<?xml version="1.0" encoding="UTF-8" standalone="no"?>
<!-- Created with Inkscape (http://www.inkscape.org/) -->
<svg width="128mm" height="128mm" viewBox="0 0 128 128" version="1.1" id="svg5" inkscape:export-filename="quarky.svg" inkscape:export-xdpi="25.4" inkscape:export-ydpi="25.4" xmlns:inkscape="http://www.inkscape.org/namespaces/inkscape" xmlns:sodipodi="http://sodipodi.sourceforge.net/DTD/sodipodi-0.dtd" xmlns="http://www.w3.org/2000/svg" xmlns:svg="http://www.w3.org/2000/svg">
  <sodipodi:namedview id="namedview7" pagecolor="#505050" bordercolor="#eeeeee" borderopacity="1" inkscape:showpageshadow="0" inkscape:pageopacity="0" inkscape:pagecheckerboard="0" inkscape:deskcolor="#505050" inkscape:document-units="mm" showgrid="false"/>
  <defs id="defs2"/>
  <g inkscape:label="Layer 1" inkscape:groupmode="layer" id="layer1">
    <path id="path980" style="fill:#000000;stroke:#000000;stroke-width:0.529;stroke-opacity:0" d="m 30.223478,14.891597 c -0.822181,3.44e-4 -1.64445,0.01249 -2.466516,0.02429 -0.585181,0.0049 -1.17023,0.0044 -1.755448,0.0026 -0.08369,10e-5 -0.167456,2.1e-5 -0.251148,0 -1.395888,0.04364 -2.769185,0.264035 -4.165637,0.276986 -1.325408,0.0017 -2.62716,0.307556 -3.939811,0.463538 -1.355906,0.116719 -2.681541,0.432172 -4.001823,0.749825 -0.912625,0.309386 -1.875386,0.578383 -2.730066,1.037662 -0.463269,0.248947 -0.535967,0.334448 -0.9436117,0.655257 -0.4956104,0.308923 -0.810784,0.793063 -1.1694376,1.235584 -0.3738488,0.46127 -0.7520512,0.903346 -1.1043254,1.383895 -0.5684881,0.789084 -1.2720612,1.506754 -1.712557,2.3828 -0.2437253,0.484715 -0.3415855,0.845287 -0.5033284,1.347721 -0.3532313,1.397228 -0.2583509,2.852579 -0.2330607,4.279843 0.073838,1.122292 -0.124564,2.228441 -0.3074748,3.328995 -0.1326558,1.301817 -0.4484777,2.570008 -0.6976318,3.850928 -0.188906,1.565561 -0.3897366,3.133048 -0.4816244,4.70824 -0.038434,1.179159 -0.210197,2.346146 -0.2588989,3.525366 -0.054718,1.783602 0.096942,3.56903 0.2682007,5.343343 0.1727413,1.075831 0.187743,2.170443 0.3317627,3.247864 0.1254348,0.575065 0.1687767,1.161175 0.1756998,1.748214 -0.040453,1.356663 0.01864,2.708822 0.1007691,4.062801 0.1018123,1.47858 0.1529824,2.958693 0.153479,4.440556 -0.061555,1.611846 0.037446,3.216446 0.1601969,4.822444 0.082457,2.00204 0.2604819,3.997921 0.4263306,5.994466 0.1579172,1.956351 0.2477326,3.925201 0.4919596,5.873544 0.1535912,1.27534 0.3510881,2.542538 0.6025472,3.802352 0.3052846,1.577032 0.6325809,3.156697 1.1255127,4.686535 0.364496,1.18477 0.9708658,2.263854 1.5399577,3.356901 0.6498673,1.173954 1.4072417,2.289125 2.1781617,3.386874 0.785156,1.077357 1.78928,1.961598 2.703194,2.923852 0.524901,0.525158 0.977888,1.109414 1.537374,1.598869 0.942352,0.811598 2.060721,1.312978 3.232878,1.692408 1.673336,0.55582 3.438535,0.47613 5.175394,0.46457 1.084127,-0.0296 2.168571,-0.0367 3.253032,-0.0362 0.100499,-0.006 1.734632,-0.011 2.940389,0.0765 1.213634,0.12425 2.431438,0.1844 3.65094,0.1974 0.87148,-0.0822 1.758379,0.0443 2.63188,-0.0134 0.697571,-0.0461 1.396707,-0.15762 2.093929,-0.2191 0.196562,-0.0121 0.392968,-0.0264 0.589628,-0.0367 0.37556,-0.0196 0.576094,-0.0247 0.945162,-0.0253 0.158599,-2.6e-4 0.632706,-0.0209 0.47594,0.004 -0.05904,0.009 -0.119015,0.006 -0.1788,0.006 0.05282,-6.2e-4 0.0665,-6e-5 0.09973,0 1.242555,0.0111 2.48534,0.0148 3.727938,0.0165 1.133732,0.001 2.267094,-5.1e-4 3.400826,-5.1e-4 0.236588,1.6e-4 1.615329,-2.5e-4 0.222209,0 -0.144632,2e-5 0.288936,0 0.433565,0 0.174395,0 0.77604,-1e-5 0.943612,0 1.336827,4e-5 2.673779,1e-5 4.010608,0 0.562669,-0.0304 1.132686,0.0423 1.69447,0 0.45737,-0.0344 0.910798,-0.11225 1.366842,-0.16123 0.898822,-0.0962 1.801834,-0.11491 2.704744,-0.10698 0.03682,1.3e-4 0.04857,3.5e-4 0.07286,5.2e-4 0.15549,0.001 0.311145,0.003 0.466638,0.004 0.662359,0.005 1.324582,0.007 1.986959,0.008 1.38628,0.002 2.772639,9e-5 4.158919,-5.1e-4 0.112273,-2e-5 0.224662,1e-5 0.33693,0 0.135438,-2e-5 0.522946,-10e-6 0.663009,0 0.634015,4e-5 1.268193,5e-4 1.90221,5.1e-4 h 3.198771 c 0.840859,-0.14649 1.672878,-0.31764 2.50734,-0.48989 0.335865,-0.12926 0.702957,-0.0123 1.042314,-0.0532 0.312373,-0.0376 0.617344,-0.12275 0.926558,-0.18086 0.398653,-0.10804 0.829656,-0.003 1.229383,-0.0646 0.300559,-0.046 0.593386,-0.13425 0.892452,-0.18913 0.0919,-0.0236 0.253466,-0.0397 0.423746,-0.0512 0.718609,0.01 1.444436,0.004 2.143022,-0.17054 0.410354,0.12114 0.821014,0.25353 1.22008,0.41083 -0.01434,-0.0177 -0.06471,-0.0591 -0.04289,-0.0527 0.33945,0.10006 0.866278,0.51077 1.242818,0.45992 0.06372,-0.009 -0.111922,-0.063 -0.167948,-0.0946 0.334751,0.0649 0.651714,0.28727 1.000456,0.29508 0.03392,7.9e-4 -0.05267,-0.0428 -0.07906,-0.0641 0.05989,0.0176 0.119425,0.0355 0.179317,0.0532 0.09858,0.0331 0.196654,0.0689 0.296106,0.0992 0.105915,0.0293 0.211894,0.0586 0.31781,0.0879 0.0031,-0.001 0.0063,-0.002 0.0093,-0.004 0.648484,1.29838 1.316683,2.58769 2.004528,3.86539 0.785781,1.4067 1.569715,2.81399 2.352312,4.22248 0.671019,1.23929 1.159878,2.56879 1.76475,3.84215 0.723824,1.49736 1.686735,2.84729 2.625679,4.21163 0.415435,0.71092 0.832173,1.42315 1.431437,1.99781 1.228069,1.29974 1.520526,1.37447 3.778064,0.40721 0.349874,-0.1499 0.87676,-1.48743 1.009758,-1.78697 0.757232,-1.7364 1.372252,-3.52853 2.073262,-5.28754 0.85771,-1.88499 1.8296,-3.73008 2.9714,-5.45961 0.80594,-0.97099 1.53378,-1.9923 2.21795,-3.05149 0.3742,-0.59282 0.67303,-1.21581 0.94619,-1.85416 1.2807,-0.13019 2.56887,-0.15014 3.85507,-0.14986 0.95474,-0.068 1.89136,-0.17617 2.77399,-0.56844 1.76756,-0.78557 -0.28598,0.0493 0.97255,-0.45372 1.12845,-0.68218 2.29427,-1.318528 3.34863,-2.111498 0.70639,-0.543817 1.43468,-1.155321 1.91823,-1.918745 0.30507,-0.481645 0.43331,-0.860013 0.64491,-1.380795 0.63151,-1.318105 0.89082,-2.756724 1.21543,-4.168221 0.2171,-1.251353 0.53053,-2.482749 0.70539,-3.740857 0.31829,-1.899984 0.33077,-3.832524 0.34623,-5.753654 0.002,-1.507375 -0.0186,-3.014338 -0.0248,-4.521687 0.0523,-1.690244 -0.0701,-3.373283 -0.1757,-5.058606 -0.20348,-1.865016 -0.51312,-3.707475 -0.60358,-5.583639 -0.12892,-1.545904 -0.2325,-3.093052 -0.37155,-4.63796 -0.0746,-1.50761 -0.15339,-3.008373 -0.31626,-4.509285 -0.12124,-1.451473 -0.0739,-2.912963 -0.0687,-4.368209 0.0228,-2.236736 0.0397,-4.470093 -0.10284,-6.70295 -0.0433,-1.562735 -0.26855,-3.110191 -0.37569,-4.667932 -0.06,-1.045676 -0.0361,-2.093695 -0.0258,-3.140377 0.0887,-1.17543 -0.16101,-2.314552 -0.49506,-3.432865 -0.46726,-1.240285 -1.18227,-2.375609 -1.9079,-3.479375 -0.99217,-1.464562 -2.25021,-2.706123 -3.55895,-3.883483 -1.41177,-1.224873 -2.9381,-2.309125 -4.43953,-3.419947 -1.03301,-0.745259 -2.12352,-1.410377 -3.27577,-1.954402 -1.50961,-0.846702 -3.18547,-1.291177 -4.85861,-1.681552 -2.28466,-0.426842 -4.543441,-0.976511 -6.844542,-1.311031 -1.709339,-0.242654 -3.426006,-0.429556 -5.14904,-0.537435 -1.491912,-0.127992 -2.984308,-0.227653 -4.479313,-0.309541 -1.600188,-0.157978 -3.196578,-0.357778 -4.792989,-0.551388 -2.168029,-0.303149 -4.350136,-0.482749 -6.52725,-0.708484 -2.384667,-0.304614 -4.784079,-0.435991 -7.179923,-0.612365 -1.855947,-0.171172 -3.71918,-0.155442 -5.580538,-0.149862 -2.158081,0.05265 -4.312567,-0.08874 -6.466272,-0.220659 -2.504231,-0.176611 -5.003997,-0.394913 -7.509103,-0.560172 -2.634278,-0.168224 -5.260875,-0.432923 -7.889957,-0.666109 -2.625641,-0.213319 -5.252957,-0.428478 -7.88479,-0.549837 -0.821743,-0.03514 -1.643819,-0.04634 -2.466,-0.04599 z m -0.08578,3.839043 c 0.268972,-2.76e-4 0.552696,0.0049 1.438672,0.01602 2.577765,0.08258 5.147396,0.31074 7.718909,0.497644 0.510046,0.04821 1.020093,0.09649 1.530139,0.144694 0.47901,0.03489 0.958835,0.06068 1.437122,0.104387 1.659315,0.151628 3.314246,0.368148 4.980574,0.436666 1.1223,0.0898 2.246267,0.12625 3.36827,0.218591 0.901915,0.07423 1.800529,0.183929 2.702677,0.255282 0.485637,0.03841 0.972131,0.06171 1.458309,0.0925 2.884185,0.208123 5.775839,0.332599 8.668205,0.278536 -0.322345,-0.0042 -0.354832,-0.0037 0.478524,-0.0067 0.681446,-0.0024 1.36208,0.0033 2.042769,0.03927 0.279959,0.01479 0.559449,0.03535 0.839225,0.05323 2.366522,0.169126 4.737995,0.281071 7.093108,0.583427 3.754409,0.363426 -1.098844,-0.115464 2.624129,0.281637 1.287215,0.137297 2.586661,0.157968 3.860229,0.411344 1.625407,0.173347 3.2445,0.394857 4.868437,0.577743 1.527018,0.177876 3.076907,0.120094 4.602303,0.349332 1.643977,0.06278 3.283787,0.215006 4.910295,0.456303 2.226423,0.236486 4.383795,0.822516 6.586156,1.204578 1.37254,0.261296 2.73862,0.581016 4.01578,1.160652 0.97866,0.589768 2.08611,0.967375 2.98741,1.698605 1.3182,0.918602 -0.0881,-0.08232 1.35134,1.016475 0.94669,0.722641 1.97133,1.34406 2.85306,2.151807 1.10739,0.974485 2.20178,1.969231 3.07216,3.170866 0.56473,0.849472 1.12497,1.708869 1.57096,2.623095 0.27224,0.778208 0.43693,1.558253 0.36432,2.386418 -0.0111,1.133907 -0.0356,2.269128 0.0315,3.40186 0.10698,1.553153 0.32996,3.09557 0.37517,4.653462 0.14033,2.157387 0.1168,4.315302 0.0971,6.476608 -0.006,1.579437 -0.0538,3.165283 0.0853,4.740279 0.161,1.480544 0.23618,2.960842 0.3111,4.448307 0.13457,1.499468 0.23497,3.000297 0.36328,4.500501 0.0926,1.896508 0.36946,3.749893 0.60617,5.630664 0.1013,1.620812 0.22463,3.23806 0.17001,4.863785 0.006,1.493936 0.0258,2.987934 0.0248,4.481897 -0.0139,1.777093 -0.0202,3.564608 -0.31988,5.321639 -0.16069,1.163394 -0.46973,2.300724 -0.66249,3.459221 -0.27662,1.23292 -0.51566,2.480959 -1.07281,3.627685 -0.0756,0.179041 -0.12228,0.376445 -0.23771,0.532784 -0.36061,0.488387 -0.85846,0.860085 -1.34513,1.211296 -0.89541,0.598109 -1.81969,1.171275 -2.7833,1.651579 -0.19845,0.0895 -0.51037,0.244273 -0.74207,0.310575 -0.58239,0.166645 -1.21278,0.127681 -1.80919,0.171049 -1.23745,0.0217 -2.47549,0.07225 -3.70624,0.206189 -0.59818,-0.318123 -1.09417,-0.533342 -1.14618,-0.444417 -0.0454,0.07866 -0.0903,0.157661 -0.13591,0.236161 -0.006,0.0054 -0.0113,0.0089 -0.0196,0.01705 -0.73603,0.573664 -0.83015,0.741108 -1.22834,1.562695 -0.005,0.01072 0.006,-0.02311 0.009,-0.03462 -0.12368,0.359079 -0.082,0.223579 -0.13643,0.609789 -0.009,0.0209 -0.0153,0.0424 -0.0233,0.0636 -0.23804,0.62231 -0.55976,1.20138 -0.90744,1.76991 -0.69992,1.05689 -1.47888,2.04838 -2.22829,3.0701 -1.220923,1.93457 -2.319501,3.95286 -3.222538,6.05596 -0.464975,1.17505 -0.894906,2.36381 -1.358057,3.53932 -0.745449,-1.07712 -1.51941,-2.13465 -2.104264,-3.31401 -0.658578,-1.31877 -1.141542,-2.7188 -1.839164,-4.01629 -0.781215,-1.39144 -1.545462,-2.79244 -2.333191,-4.18011 -0.26681,-0.49236 -0.530306,-0.98685 -0.791166,-1.48259 0.388516,-0.15789 0.654442,-0.2966 0.632002,-0.36846 -0.135031,-0.0933 -0.01291,8.2e-4 -0.119889,-0.38809 -0.125839,-0.4576 -0.295684,-0.90617 -0.458887,-1.35082 -0.237732,-0.460724 -0.577194,-1.071316 -1.073836,-1.316199 -0.03728,-0.01839 0.04196,0.07167 0.06304,0.107487 -0.02574,-0.01566 -0.05125,-0.03136 -0.077,-0.04703 -0.418958,-0.355251 -0.532424,-0.463975 -1.015958,-0.672827 -0.0084,-0.0036 0.09011,0.339905 -0.147278,0.02119 -0.295029,-0.146945 -0.775679,-0.319442 -1.09244,-0.40876 -0.07518,-0.02119 -0.159272,0.05209 -0.234094,-5.17e-4 -0.227219,-0.07738 -0.444015,-0.185779 -0.674377,-0.253214 -0.147326,-0.04313 -0.297511,0.211185 -0.446485,-0.04186 -0.164362,-0.0654 -0.323164,-0.146868 -0.492993,-0.196371 -0.07306,-0.0213 -0.04244,0.08873 -0.04031,0.09819 0.005,0.02199 0.04233,0.06057 0.02015,0.0646 -0.181396,0.03302 -0.315319,-0.466657 -0.487825,-0.261483 -0.298122,-0.05331 -0.52556,-0.218378 -0.813387,-0.311609 -0.05044,-0.01635 -0.107078,0.01084 -0.159164,0.001 -0.177459,-0.03375 -0.50242,-0.196916 -0.629936,-0.254248 -0.20514,-0.05888 -0.39903,-0.173624 -0.611848,-0.189653 -0.920671,-0.06934 -1.526384,-0.09082 -2.292367,0.128158 -0.93494,0.0063 -1.849313,0.01951 -2.765206,0.230477 -0.690611,0.113506 -1.408345,0.07261 -2.096513,0.243396 -0.69664,0.09632 -1.410818,0.08611 -2.094446,0.287837 -0.609489,0.127881 -1.240474,0.260557 -1.862418,0.26355 h -1.224732 c -0.645674,3e-6 -1.291675,3.7e-5 -1.937349,0 -0.980084,-6.1e-5 -1.960308,3.9e-5 -2.940389,5.17e-4 -0.434488,2.28e-4 -0.870498,-0.0095 -1.30483,5.17e-4 -0.343768,4.4e-5 -0.730975,1.4e-5 -0.873848,0 -1.40406,-7.94e-4 -2.808128,-0.0067 -4.212146,-0.01705 -1.107788,0.01611 -2.213993,0.08411 -3.31556,0.204638 -0.734386,0.0674 -1.469242,0.06843 -2.20555,0.06511 -0.16573,-5e-6 -0.331398,-1e-6 -0.497128,0 -0.692468,3e-6 -1.384924,10e-6 -2.077392,0 -1.191377,-3.2e-5 -2.383082,-3.94e-4 -3.574459,0 -0.374055,1.94e-4 -0.747842,7.69e-4 -1.121896,10e-4 -0.156728,8.6e-5 -0.261155,6.7e-5 -0.470255,0 -1.179773,-6.7e-5 -2.359593,1.41e-4 -3.539319,-0.01085 -1.408673,-0.0177 -2.818897,-0.01408 -4.221448,0.134875 -0.60659,0.05825 -1.209789,0.125459 -1.819527,0.136426 -0.206857,0.0037 -0.413748,0.0033 -0.620634,0.0047 -0.174447,0.0013 -0.353311,-0.03229 -0.523999,0.0015 -0.958388,0.004 -1.917629,-0.01049 -2.871142,-0.114204 -0.353045,-0.03457 -1.381946,-0.13892 -1.703256,-0.153996 -1.161951,-0.05452 -2.331223,0.04664 -3.493326,-0.001 -1.093867,0.0061 -2.187713,0.02689 -3.281454,0.04341 0.10957,0.0013 0.438036,-0.0027 0.328662,0.0041 -0.848975,0.0522 -1.725157,0.04534 -2.561601,-0.108521 -0.301056,-0.08939 -0.610813,-0.149641 -0.910538,-0.243396 -0.143774,-0.04497 -0.27825,-0.115694 -0.420646,-0.164848 -0.08407,-0.02902 -0.180418,-0.02463 -0.257349,-0.06925 -0.157835,-0.09156 -0.278068,-0.239375 -0.435116,-0.33228 -0.0336,-0.01987 -0.07831,0.0038 -0.117305,0.0057 -0.08206,-0.0738 -0.161515,-0.150657 -0.24598,-0.221692 C 18.006463,96.57964 17.923651,96.5741 17.874508,96.523317 17.560782,96.198736 17.340642,95.78081 16.972091,95.504765 16.166137,94.615992 15.259687,93.825147 14.483354,92.909574 14.136614,92.455085 13.854106,91.971329 13.531991,91.499841 13.191023,91.00146 12.80343,90.53163 12.535669,89.984172 12.05229,89.031356 11.48242,88.117227 11.157975,87.091842 10.657939,85.715135 10.432049,84.247023 10.12548,82.818717 9.8827017,81.633985 9.6970634,80.441265 9.5539388,79.240641 9.2857702,77.351448 9.2544267,75.426651 9.0769653,73.528328 8.9119466,71.538846 8.7325749,69.550581 8.6521851,67.555566 8.5356533,66.033374 8.4363576,64.514359 8.4997396,62.986336 8.4988136,61.437422 8.4473091,59.889753 8.3410929,58.344242 8.2615046,57.042374 8.205859,55.743619 8.2454915,54.439054 8.2341726,53.683562 8.1876181,52.925646 8.0315511,52.184412 7.9500748,51.957545 8.0098531,52.152577 7.9829753,51.6816 7.9348598,50.838473 7.8131902,50.001577 7.7245931,49.162374 7.5620658,47.541435 7.4240943,45.908194 7.4677612,44.278434 c 0.045016,-1.159076 0.2304838,-2.305866 0.2563151,-3.465938 0.082199,-1.425202 0.2704436,-2.842464 0.4340821,-4.259688 0.2582504,-1.310587 0.568538,-2.61173 0.7115844,-3.942912 0.2183948,-1.301135 0.4162038,-2.612945 0.3451986,-3.937744 -0.018809,-1.056765 -0.1062776,-2.139821 0.095601,-3.182752 0.038395,-0.115459 0.1506005,-0.480098 0.2232422,-0.612882 0.4214272,-0.770341 1.0796894,-1.394586 1.5683804,-2.118734 0.500053,-0.653704 0.984389,-1.361898 1.663981,-1.840198 0.795389,-0.451521 1.71341,-0.676606 2.584338,-0.926558 1.220318,-0.278175 2.451237,-0.494875 3.697449,-0.620117 1.205888,-0.173033 2.411593,-0.376383 3.634403,-0.361735 0.545041,-0.03023 1.086884,-0.06971 1.629875,-0.127124 0.191828,-0.02028 0.383381,-0.04436 0.575159,-0.06511 0.170618,-0.01847 0.669394,0.01647 0.512113,-0.05219 -0.003,-0.0013 -0.0063,-8.46e-4 -0.0093,-0.0021 1.132789,0.0016 2.265575,0.0025 3.398243,-0.01499 0.826063,-0.01094 1.080301,-0.01678 1.349271,-0.01705 z m 39.549524,13.627592 c -0.937611,0.0138 -1.875348,0.108854 -2.807064,0.19637 -1.765898,0.174295 -3.537347,0.288906 -5.297867,0.516764 -1.389972,0.171767 -2.78316,0.315245 -4.175456,0.466639 -1.575585,0.235767 -3.1311,0.580568 -4.696354,0.875915 -1.359127,0.311695 -2.716672,0.650909 -3.936194,1.35599 -0.261604,0.160432 -0.529676,0.310545 -0.784448,0.481624 -1.330004,0.893106 -2.455555,2.050125 -3.753776,2.985348 -1.918736,1.321269 -3.985889,2.386948 -6.103504,3.354317 -0.686688,0.336491 -1.676586,0.801453 -2.332674,1.201477 -1.070332,0.652593 -1.976317,1.509076 -2.85564,2.393135 -1.322579,1.269338 -2.705252,2.48651 -3.786849,3.981153 -0.671351,0.931743 -1.303396,1.888434 -1.894458,2.870109 -0.308443,-0.236578 -0.537832,-0.376334 -0.586527,-0.323495 -0.704019,0.696679 -1.267921,1.477682 -1.537374,2.446879 -0.326513,0.938259 -0.576602,1.899872 -0.743107,2.879928 -0.09266,0.473674 -0.177261,0.85729 -0.227376,1.346171 -0.119474,1.165499 -0.01921,2.336562 0.0646,3.500045 0.08661,1.073258 0.07924,2.162528 0.443901,3.192053 0.223506,0.842517 0.561262,1.634536 0.939477,2.418974 0.47938,1.256116 0.963132,2.509356 1.373043,3.790983 0.173046,0.511809 0.427374,1.287566 0.628902,1.774569 0.448048,1.082731 1.000255,2.125069 1.440222,3.212207 0.41643,0.81318 0.877959,1.584846 1.337386,2.374015 0.322019,0.553134 0.746854,1.315227 1.115178,1.83658 0.167947,0.237728 0.365107,0.453444 0.54777,0.680062 0.95806,1.027702 2.052432,1.929204 3.208073,2.725932 1.255746,0.923331 2.430379,1.976191 3.843693,2.66237 0.448767,0.234309 1.449667,0.765162 1.881539,0.953947 1.411217,0.616886 2.918686,1.00791 4.413684,1.355989 1.701952,0.477975 3.437136,0.823791 5.160409,1.214913 2.086977,0.432223 4.204165,0.74965 6.333463,0.867647 0.312089,0.02389 1.891615,0.147413 2.168343,0.158647 1.658746,0.06735 3.324602,0.0014 4.982642,-0.05684 2.135714,-0.142351 4.257878,-0.407096 6.38669,-0.625285 2.151145,-0.180374 4.307183,-0.32381 6.444051,-0.641821 2.171524,-0.350255 4.307972,-0.849668 6.360335,-1.658297 1.73063,-0.579733 3.46007,-1.191546 5.289083,-1.374593 1.673544,-0.227391 3.315753,-0.587541 4.941301,-1.047481 0.291186,-0.101986 0.587413,-0.189985 0.873331,-0.305925 1.301384,-0.527726 2.432709,-1.377201 3.420463,-2.364196 1.308107,-1.250489 2.569687,-2.552817 3.689187,-3.977535 1.10276,-1.464357 2.29623,-2.897918 2.89749,-4.660181 0.695,-2.133646 1.07875,-4.114827 0.82373,-6.36757 -0.22778,-2.471196 -0.56714,-4.93057 -0.80357,-7.401099 -0.23326,-1.708902 -0.60408,-3.381041 -0.93173,-5.073075 -0.31445,-2.025577 -0.58584,-4.079664 -1.25884,-6.024439 -0.57312,-1.594586 -1.19564,-3.197866 -2.07791,-4.648295 -0.192829,-0.266329 -0.371268,-0.543434 -0.578257,-0.798917 -1.00962,-1.246168 -2.32282,-2.22466 -3.523816,-3.270602 -1.258415,-0.979984 -2.596029,-1.852568 -3.809587,-2.890779 -1.444975,-1.080568 -2.920029,-2.179748 -4.737178,-2.520777 -0.549314,-0.09628 -1.10204,-0.171872 -1.650029,-0.275435 -2.01856,-0.381479 -3.992833,-0.97658 -6.005318,-1.387512 -1.41411,-0.339391 -2.8499,-0.633793 -4.247286,-1.03973 -0.329154,-0.09562 -1.929565,-0.628527 -2.263944,-0.730188 -0.318903,-0.09696 -0.641831,-0.180161 -0.962732,-0.270268 -0.317617,-0.0847 -0.626169,-0.213913 -0.952397,-0.254248 -0.561354,-0.0694 -1.124152,-0.09045 -1.686719,-0.08216 z m 0.902271,3.760494 c 0.07532,-0.0044 0.118465,0.01117 0.08837,0.07183 -0.05461,0.109992 -0.248662,0.0097 -0.393774,-0.02119 0.105188,-0.01946 0.223006,-0.04582 0.305408,-0.05064 z m -0.444418,0.07028 c -0.0058,0.0067 -0.01434,0.0095 -0.01809,0.01912 -0.06283,0.16115 0.342186,0.0528 0.513147,0.07906 0.282775,0.07146 0.5675,0.136405 0.848527,0.214457 1.167624,0.324292 2.308321,0.729393 3.479374,1.043864 0.736845,0.197871 2.421713,0.598463 3.107304,0.763778 2.61162,0.598304 5.204007,1.280877 7.843449,1.747696 1.337191,0.157599 2.408443,0.898947 3.468522,1.668632 1.215243,1.001121 2.509618,1.89732 3.765145,2.845305 1.255186,1.022209 2.548456,2.039618 3.538285,3.331579 0.728005,1.169286 1.216948,2.480281 1.69137,3.769796 0.607575,1.738078 0.842227,3.579318 1.123445,5.391402 0.300834,1.676005 0.693707,3.324776 0.924497,5.012614 0.23209,2.422187 0.56472,4.833636 0.78909,7.256405 0.21635,1.710249 -0.10914,3.375902 -0.68574,4.982642 -0.558578,1.394791 -1.608442,2.511072 -2.488223,3.707784 -1.035898,1.250668 -2.181403,2.395169 -3.361552,3.507796 -0.836429,0.887988 -1.887162,1.436252 -3.075781,1.666048 -0.966297,0.165885 -1.889879,0.51393 -2.861841,0.65164 -0.539201,0.0764 -1.082649,0.11903 -1.62264,0.189652 -2.028291,0.262001 -3.942391,0.997171 -5.867859,1.648995 -1.273126,0.490652 -2.587485,0.880448 -3.930509,1.12758 -0.635703,0.116975 -1.279437,0.186829 -1.918746,0.282153 -2.06665,0.244718 -4.140936,0.394631 -6.215125,0.558106 -2.098087,0.259815 -4.196845,0.503315 -6.309692,0.600997 -1.632265,0.04582 -3.084723,0.02026 -4.768701,-0.08785 -1.99838,-0.09868 -3.9838,-0.362464 -5.950541,-0.722954 -1.660918,-0.34059 -3.314929,-0.711881 -4.960421,-1.120345 C 45.809866,85.974362 44.402652,85.649687 43.06352,85.122448 42.503364,84.90191 42.044466,84.658421 41.50651,84.390198 40.246635,83.8117 39.1822,82.925181 38.085014,82.096798 37.088425,81.388942 36.10341,80.65036 35.235575,79.786861 35.101074,79.62899 34.955998,79.479223 34.831982,79.312988 34.560695,78.949341 34.193728,78.306913 33.977254,77.939429 33.544555,77.204882 33.108908,76.476576 32.711182,75.72251 32.033111,74.233732 31.339786,72.756132 30.808455,71.208057 30.376098,69.889406 29.898382,68.588578 29.398206,67.2946 c -0.26844,-0.699441 -0.650949,-1.354417 -0.847494,-2.079459 -0.305271,-0.835688 -0.291948,-1.712295 -0.357601,-2.586406 -0.06567,-1.011726 -0.178783,-2.030569 -0.06098,-3.043742 0.01024,-0.0881 0.16538,-0.828278 0.177767,-0.888317 0.07837,-0.447088 0.172352,-0.891536 0.288871,-1.329635 0.402302,0.127421 0.697879,0.190831 0.726571,0.120923 v -5.17e-4 c 0.928959,-1.86503 2.008596,-3.641384 3.254582,-5.31027 1.010595,-1.311483 2.285682,-2.366444 3.465421,-3.515031 0.544444,-0.517442 1.063435,-1.095371 1.691886,-1.516703 0.397769,-0.266676 1.198643,-0.615917 1.598869,-0.805636 0.378738,-0.179533 0.756662,-0.361333 1.134815,-0.542086 2.293096,-1.021621 4.481131,-2.23924 6.518982,-3.703133 1.436815,-1.06115 2.642439,-2.463704 4.275191,-3.234428 0.970713,-0.414942 2.012393,-0.649087 3.052527,-0.817521 1.496039,-0.271213 2.969522,-0.631267 4.483447,-0.789099 1.388683,-0.107987 2.770095,-0.292908 4.153235,-0.45837 1.741554,-0.19847 3.489106,-0.314098 5.233272,-0.49351 0.2511,-0.02159 0.502089,-0.04622 0.753443,-0.06459 0.48007,-0.0351 0.720884,-0.04242 1.195275,-0.04703 0.0023,-2.4e-5 0.0064,-9.59e-4 0.0088,-0.001 z M 81.29788,99.963407 c 0.03609,0.0042 0.14431,0.01103 0.108004,0.0124 -0.135972,0.0052 -0.172094,0.0037 -0.285771,0.0072 0.01128,-0.0024 0.02222,-0.0062 0.03359,-0.0083 0.04737,-0.0084 0.0962,-0.0076 0.144177,-0.01137 z m -1.305863,0.02791 c -0.0085,-0.0023 0.02701,-0.0028 0.103352,0.001 0.01608,8.07e-4 0.04009,0.0065 0.05788,0.0078 -0.100078,-0.0024 -0.152694,-0.0065 -0.16123,-0.0088 z m 17.898132,16.952963 c 0.0088,10e-4 0.01702,10e-4 0.02584,0.003 0.0081,10e-4 0.724541,0.8187 0.258382,0.31264 -0.06087,-0.0661 -0.119584,-0.13391 -0.179317,-0.20102 -0.03489,-0.0381 -0.07001,-0.0761 -0.104903,-0.11421 z"/>
    <path style="fill:#000000;stroke:#000000;stroke-width:0.529;stroke-opacity:0" id="path994" d="m 44.592986,77.814068 c 0.01632,-0.247403 0.03474,-0.494678 0.04899,-0.742211 0.06478,-1.125361 0.07124,-1.823797 0.227124,-2.983193 0.259701,-1.931506 0.702138,-3.819176 1.207344,-5.69786 0.766222,-2.45803 1.870747,-4.784868 3.069068,-7.056324 0.906331,-1.592588 1.739141,-3.221784 2.428256,-4.919755 0.16582,-0.431284 0.408861,-0.804691 0.605825,-1.218488 -0.151035,1.132133 -2.159733,0.21382 -2.924228,0.427344 -0.203684,0.05689 0.250465,0.342008 0.354743,0.525989 0.45812,0.808276 1.096525,2.172245 1.472961,2.950797 1.4805,3.273917 2.696763,6.65928 3.6839,10.112174 0.433586,1.590633 0.822968,3.19405 1.124164,4.815157 0.08982,0.490956 0.249415,0.951736 0.427083,1.415545 0.100465,0.262035 3.806182,-1.158753 3.705717,-1.420786 v 0 c -0.09829,0.04992 -0.159912,-0.531606 -0.210278,-0.598739 C 59.498828,71.697312 59.086887,69.989985 58.628481,68.296194 57.59655,64.657784 56.32269,61.091 54.772964,57.638978 c -0.370149,-0.771083 -1.214651,-2.569572 -1.661128,-3.35726 -0.196395,-0.346488 -0.27682,-0.869413 -0.652833,-1.000713 -2.626807,-0.917247 -3.08516,-1.138129 -3.956158,0.421074 -0.258993,0.467162 -0.485267,0.950592 -0.68961,1.444038 -0.654881,1.596591 -1.480373,3.111748 -2.313961,4.621223 -1.303303,2.496388 -2.487004,5.062333 -3.297918,7.766341 -0.165097,0.630909 -0.348734,1.257257 -0.495286,1.892733 -0.63585,2.757102 -1.005751,5.559478 -1.081839,8.387654 0,0.280633 3.96875,0.280633 3.96875,0 z"/>
    <path style="fill:#000000;stroke:#000000;stroke-width:0.529;stroke-opacity:0" id="path996" d="m 77.490433,72.600155 c 0.632994,-1.069811 1.08908,-2.228501 1.641917,-3.338703 0.28281,-0.567936 0.581342,-1.127935 0.865936,-1.694979 1.074647,-1.897139 1.766996,-3.969544 2.555878,-5.992217 0.126621,-0.340815 0.255314,-0.680866 0.379862,-1.022443 0.423214,-1.160674 0.694298,-2.421371 1.194514,-3.537773 0.21531,-0.308953 0.215884,-0.738645 0.414536,-1.052075 0.01151,-0.01818 0.03914,0.0471 0.05544,0.03306 0.1211,-0.104331 0.401828,-0.568429 0.456261,-0.653005 0.07448,-0.01799 0.475504,-0.880856 0.526875,-0.810374 0.03112,0.0427 -0.0039,0.141377 -0.05627,0.148201 -2.786414,0.362929 -2.170509,0.879369 -3.000835,0.08648 0.655735,2.142167 1.237064,4.304434 1.910548,6.441876 0.687745,2.017805 1.328679,4.052681 2.104885,6.038898 0.336965,0.964438 0.846375,1.847744 1.321482,2.746245 0.229307,0.592455 0.465741,1.181939 0.778457,1.736273 0.11539,0.255812 3.733112,-1.376085 3.61772,-1.631895 v 0 c -0.05052,-0.09311 -0.122828,-0.173371 -0.17221,-0.267086 -0.230534,-0.437475 -0.372673,-0.914043 -0.562697,-1.368978 -0.406688,-0.816443 -0.917165,-1.582169 -1.212093,-2.452748 -0.768633,-1.904024 -1.361374,-3.872535 -2.037318,-5.810166 -0.725086,-2.286254 -1.329603,-4.605057 -2.057281,-6.889763 -0.194551,-0.348562 -0.200676,-0.933103 -0.583653,-1.045686 -3.136571,-0.92207 -3.001433,-0.401656 -4.078377,1.209058 -0.155226,0.22592 -0.328369,0.440243 -0.468389,0.675892 -0.300083,0.505029 -0.484667,1.044964 -0.712478,1.582063 -0.597085,1.520973 -0.953164,3.125361 -1.597795,4.63088 -0.742545,1.926828 -1.424453,3.886192 -2.445359,5.690494 -0.817403,1.620044 -1.572299,3.270832 -2.434507,4.867013 -0.118899,0.254201 3.476053,1.93566 3.594949,1.681459 z"/>
    <path style="fill:#00a8f3;fill-opacity:1;stroke:#000000;stroke-width:1.91896;stroke-opacity:0" d="m 361.09728,428.2536 c -1.65321,-2.7439 -4.39276,-8.01222 -6.08789,-11.70739 -1.69513,-3.69517 -5.85444,-11.77313 -9.24291,-17.95103 -4.51299,-8.22817 -5.9861,-11.78313 -5.50752,-13.29101 0.98114,-3.09127 -2.1234,-10.17019 -5.52138,-12.58976 -1.62628,-1.15801 -7.74725,-3.62899 -13.60217,-5.49105 -9.28497,-2.95293 -11.74917,-3.3621 -19.28337,-3.20184 -4.75094,0.10104 -13.38899,0.88894 -19.19568,1.75088 -20.04308,2.97517 -198.850863,4.87052 -207.756878,2.20222 -3.340576,-1.00086 -6.04755,-3.11943 -12.368936,-9.68034 -19.197044,-19.92445 -23.917378,-32.99254 -27.494589,-76.11781 -0.788172,-9.50187 -1.856231,-30.01725 -2.373464,-45.58974 -0.517233,-15.57249 -1.676121,-36.59354 -2.575307,-46.71344 -1.413783,-15.91142 -1.476575,-20.51936 -0.464305,-34.07233 0.643818,-8.61988 1.578722,-17.47316 2.077563,-19.67394 2.007377,-8.85614 3.81156,-23.79839 3.81156,-31.56736 0,-9.283247 0.256369,-9.93904 7.380315,-18.878873 4.783002,-6.002186 5.602547,-6.595747 11.60028,-8.401588 11.175847,-3.364904 24.758955,-4.903971 48.204281,-5.461903 22.87642,-0.544394 27.18542,-0.296535 95.96619,5.520078 6.5918,0.557453 24.51577,1.394602 39.83103,1.860333 25.30889,0.769633 42.96655,2.197991 75.83513,6.134431 6.33457,0.758648 16.26833,1.656455 22.07503,1.995127 23.58815,1.375767 53.35047,7.043727 63.72782,12.136382 8.06868,3.959673 27.58317,18.704203 33.0962,25.006423 2.39709,2.74023 5.61954,7.38437 7.161,10.32031 3.28395,6.25476 3.51898,9.02839 4.9256,58.12618 0.88116,30.7566 2.81402,60.5834 4.97573,76.78271 0.63398,4.75093 1.15598,19.21968 1.16,32.15277 0.008,25.03642 -1.42486,36.87541 -6.25086,51.65514 -2.13849,6.54917 -4.11682,8.48153 -15.19913,14.84584 -5.17157,2.96992 -5.59677,3.04481 -18.06251,3.18123 -11.81922,0.12935 -12.93693,0.30003 -15.06681,2.30095 -1.2653,1.1887 -2.58148,3.44033 -2.92483,5.00363 -0.34337,1.5633 -4.30115,8.31153 -8.79509,14.99606 -8.59221,12.78053 -13.85003,22.55579 -17.51817,32.5695 -1.21266,3.31047 -2.50303,6.20333 -2.86747,6.42857 -0.36445,0.22524 -2.01525,-1.83548 -3.66846,-4.57936 z m -89.95833,-82.67453 c 24.76159,-2.59162 29.1237,-3.4301 44.62995,-8.57872 5.54275,-1.84039 14.18081,-4.04733 19.19568,-4.90432 12.76904,-2.18209 19.72871,-4.08125 25.29756,-6.90319 9.78621,-4.95905 30.0245,-28.21335 34.14965,-39.23881 3.92431,-10.48865 4.3868,-16.68851 2.57693,-34.54422 -1.92219,-18.96371 -7.60182,-52.11711 -10.34957,-60.41281 -5.76661,-17.40998 -10.87586,-23.77516 -31.999,-39.86489 -13.66743,-10.41063 -18.21253,-12.87988 -26.45452,-14.37216 -9.72919,-1.76154 -40.90808,-9.4189 -49.36841,-12.12459 -5.88874,-1.88328 -9.61988,-2.44494 -16.00906,-2.4099 -16.13067,0.0885 -53.57346,4.72012 -67.51599,8.35169 -7.52672,1.96046 -13.21463,5.09998 -22.40708,12.36789 -9.06337,7.16585 -17.58261,12.36171 -28.20714,17.20347 -3.98755,1.81718 -8.89467,4.4215 -10.90473,5.78736 -5.86814,3.98751 -22.25569,20.71523 -26.43201,26.98069 -2.1112,3.16729 -4.77082,5.99298 -5.91027,6.27932 -5.722736,1.4381 -10.506192,16.7141 -10.340312,33.02186 0.143752,14.13238 0.582665,15.73401 13.233182,48.28927 4.71989,12.14631 13.67634,27.71679 18.6955,32.5015 7.60356,7.24837 21.33608,16.97289 29.10644,20.61137 7.39466,3.46257 31.47843,10.00986 45.64584,12.40904 19.67729,3.33226 38.32355,3.21793 73.36736,-0.44985 z" id="path1136" transform="scale(0.26458333)"/>
    <path style="fill:#ffffff;fill-opacity:1;stroke:#000000;stroke-width:1.91896;stroke-opacity:0" d="m 216.62783,332.56852 c -16.79519,-1.308 -45.61261,-7.76263 -56.30771,-12.61201 -3.43367,-1.55691 -10.92537,-6.36868 -16.64821,-10.69282 -9.22344,-6.96917 -10.92916,-8.7358 -15.01883,-15.55509 -4.63104,-7.72199 -10.21454,-19.72501 -12.50794,-26.88868 -0.676,-2.11152 -2.93887,-8.15816 -5.02861,-13.43697 -3.55051,-8.9688 -3.8094,-10.28979 -3.95008,-20.15546 -0.16245,-11.39277 0.57519,-15.83644 2.62884,-15.83644 0.71673,0 3.79929,-4.21105 6.85014,-9.35789 4.07997,-6.88298 8.10918,-11.92916 15.23485,-19.08011 9.23871,-9.27148 10.31917,-10.03502 23.30563,-16.46948 14.89242,-7.37881 19.17738,-10.0753 30.18692,-18.99639 4.0331,-3.26805 8.78403,-6.41335 10.55762,-6.98955 9.76323,-3.17186 51.42827,-8.76864 65.27791,-8.76864 3.72094,0 10.58346,1.32215 19.37661,3.73314 7.48834,2.05323 20.95157,5.33172 29.91831,7.28554 8.96672,1.95381 17.57054,4.03047 19.11958,4.61479 2.9827,1.12511 18.66921,12.49666 27.25955,19.76111 9.9296,8.39702 14.26854,17.88534 18.48756,40.42835 3.24525,17.34003 6.61841,44.04036 6.60828,52.30822 -0.0161,13.20358 -4.25902,21.11047 -19.62255,36.56803 -9.60331,9.6621 -9.66047,9.70071 -17.31339,11.69651 -4.22305,1.10133 -11.13349,2.50597 -15.35654,3.12143 -4.22305,0.61547 -13.47222,3.04318 -20.55372,5.39493 -13.64693,4.53211 -21.62256,5.93412 -48.07083,8.45022 -21.77611,2.07161 -32.3062,2.4217 -44.43339,1.47726 z m -47.25136,-45.35319 c 1.54576,-18.70664 7.55075,-37.99101 17.60213,-56.52736 l 4.85287,-8.94948 2.08695,4.78472 c 6.40861,14.69288 13.0239,34.98007 15.80029,48.45488 2.51353,12.19902 2.00294,11.77002 10.27575,8.63364 8.04242,-3.04905 7.75971,-1.90173 4.1452,-16.82317 -4.35106,-17.96204 -10.89212,-36.52018 -18.49386,-52.47032 -6.24764,-13.10894 -6.28126,-13.15524 -10.62911,-14.6367 -5.65142,-1.92564 -8.17962,-1.87667 -9.98988,0.19346 -3.02557,3.4599 -22.00079,43.18024 -24.79456,51.90182 -3.46738,10.82445 -6.66683,28.68341 -6.66683,37.21351 v 6.14322 h 7.57838 7.57838 z m 131.74766,-28.31362 c 4.27829,-8.84201 9.37895,-20.47378 11.33478,-25.84838 l 3.55607,-9.77198 5.18566,15.53069 c 2.85212,8.54188 7.12129,19.51732 9.48705,24.38986 l 4.30137,8.85917 5.02662,-1.96622 c 2.76465,-1.08143 5.97784,-2.5811 7.14044,-3.3326 2.03834,-1.31757 2.0601,-1.49514 0.60952,-4.97337 -0.82736,-1.98385 -2.69333,-5.98248 -4.14659,-8.88582 -2.59475,-5.18382 -9.54658,-25.46725 -15.37365,-44.85587 -1.82146,-6.06062 -3.58848,-10.16416 -4.61284,-10.71238 -2.54982,-1.36463 -8.44215,-2.26916 -10.50883,-1.61322 -3.09484,0.98226 -8.03012,9.83214 -12.30432,22.06393 -5.95281,17.03559 -9.29366,25.09018 -15.74402,37.95784 -3.17805,6.33982 -5.77828,11.98382 -5.77828,12.54224 0,1.00799 11.05831,6.69028 13.02279,6.69173 0.56402,4.1e-4 4.52592,-7.23362 8.80423,-16.07562 z" id="path1384" transform="scale(0.26458333)"/>
  </g>
</svg>