<?xml version="1.0" encoding="UTF-8" standalone="no"?>
<!-- Created with Inkscape (http://www.inkscape.org/) -->

<svg
   width="24.783983mm"
   height="3.8082926mm"
   viewBox="0 0 24.783984 3.8082927"
   version="1.1"
   id="svg1"
   inkscape:version="1.4 (e7c3feb100, 2024-10-09)"
   sodipodi:docname="cloud.svg"
   xmlns:inkscape="http://www.inkscape.org/namespaces/inkscape"
   xmlns:sodipodi="http://sodipodi.sourceforge.net/DTD/sodipodi-0.dtd"
   xmlns="http://www.w3.org/2000/svg"
   xmlns:svg="http://www.w3.org/2000/svg">
  <sodipodi:namedview
     id="namedview1"
     pagecolor="#ffffff"
     bordercolor="#000000"
     borderopacity="0.25"
     inkscape:showpageshadow="2"
     inkscape:pageopacity="0.0"
     inkscape:pagecheckerboard="0"
     inkscape:deskcolor="#d1d1d1"
     inkscape:document-units="mm"
     inkscape:zoom="14.681009"
     inkscape:cx="72.576756"
     inkscape:cy="18.050531"
     inkscape:window-width="2560"
     inkscape:window-height="1378"
     inkscape:window-x="0"
     inkscape:window-y="0"
     inkscape:window-maximized="1"
     inkscape:current-layer="layer1" />
  <defs
     id="defs1">
    <inkscape:path-effect
       effect="bspline"
       id="path-effect3"
       is_visible="true"
       lpeversion="1.3"
       weight="33.333333"
       steps="2"
       helper_size="0"
       apply_no_weight="true"
       apply_with_weight="true"
       only_selected="false"
       uniform="false" />
  </defs>
  <g
     inkscape:label="Layer 1"
     inkscape:groupmode="layer"
     id="layer1"
     transform="translate(-7.8361029,-75.612539)">
    <path
       id="path1"
       style="fill:#000000;stroke-width:1.8"
       d="m 15.79324,75.616673 c -0.531188,0.01866 -1.059728,0.102344 -1.574064,0.267167 -0.528836,0.145709 -1.86746,0.567586 -1.876888,0.834058 -0.980076,-0.48341 -2.197456,-0.248153 -3.1300417,0.253731 -0.6544565,0.444139 -3.7239826,0.487207 -1.3801964,1.31091 l -0.00887,0.626956 v 0.65009 H 32.620637 c -9.1e-4,-0.425652 4.99e-4,-0.851441 -3.57e-4,-1.277046 0.272014,-1.783403 -0.458694,-0.969368 -3.271875,-1.373437 -0.766438,-0.215264 -1.596802,0.178987 -2.308903,-0.253215 -1.309584,-0.558854 -2.820533,-0.411585 -4.139799,0.02274 -0.154512,0.07345 -0.311527,0.139845 -0.38809,0.198954 -1.029026,-1.069242 -2.705869,-1.321587 -4.09019,-0.887284 -0.849689,-0.25541 -1.74295,-0.404716 -2.628263,-0.373621 z"
       sodipodi:nodetypes="scccccccccccccss" />
  </g>
</svg>
