<?xml version="1.0" encoding="UTF-8" standalone="no"?>
<!-- Created with Inkscape (http://www.inkscape.org/) -->
<svg width="181.53215mm" height="61.85022mm" viewBox="0 0 181.53215 61.85022" version="1.1" id="svg1" sodipodi:docname="nineplus_wordmark_test_wm4.svg" inkscape:version="1.3.2 (091e20ef0f, 2023-11-25, custom)" xmlns:inkscape="http://www.inkscape.org/namespaces/inkscape" xmlns:sodipodi="http://sodipodi.sourceforge.net/DTD/sodipodi-0.dtd" xmlns="http://www.w3.org/2000/svg" xmlns:svg="http://www.w3.org/2000/svg">
  <sodipodi:namedview id="namedview1" pagecolor="#ffffff" bordercolor="#000000" borderopacity="0.25" inkscape:showpageshadow="2" inkscape:pageopacity="0.0" inkscape:pagecheckerboard="0" inkscape:deskcolor="#d1d1d1" inkscape:document-units="mm" inkscape:zoom="4.0000001" inkscape:cx="421.37499" inkscape:cy="137.5" inkscape:window-width="1920" inkscape:window-height="1014" inkscape:window-x="0" inkscape:window-y="0" inkscape:window-maximized="1" inkscape:current-layer="layer9" showguides="false" showgrid="false"/>
  <defs id="defs1">
    <inkscape:path-effect effect="bspline" id="path-effect8" is_visible="true" lpeversion="1.3" weight="33.333333" steps="2" helper_size="0" apply_no_weight="true" apply_with_weight="true" only_selected="false" uniform="false"/>
    <inkscape:path-effect effect="bspline" id="path-effect7" is_visible="true" lpeversion="1.3" weight="33.333333" steps="2" helper_size="0" apply_no_weight="true" apply_with_weight="true" only_selected="false" uniform="false"/>
    <inkscape:path-effect effect="powerstroke" id="path-effect6" is_visible="true" lpeversion="1.3" scale_width="1" interpolator_type="CentripetalCatmullRom" interpolator_beta="0.75" start_linecap_type="round" end_linecap_type="round" offset_points="39.222168,1.2995712" linejoin_type="spiro" miter_limit="4" not_jump="true" sort_points="true" message="&lt;b&gt;Ctrl + click&lt;/b&gt; on existing node and move it"/>
    <inkscape:path-effect effect="simplify" id="path-effect5" is_visible="true" lpeversion="1.3" threshold="0.012" steps="1" smooth_angles="0" helper_size="0" simplify_individual_paths="false" simplify_just_coalesce="false" step="1"/>
    <inkscape:path-effect effect="powerstroke" id="path-effect4" is_visible="true" lpeversion="1.3" scale_width="1" interpolator_type="CentripetalCatmullRom" interpolator_beta="0.75" start_linecap_type="round" end_linecap_type="round" offset_points="38.03578,1.2995712" linejoin_type="spiro" miter_limit="4" not_jump="true" sort_points="true" message="&lt;b&gt;Ctrl + click&lt;/b&gt; on existing node and move it"/>
    <inkscape:path-effect effect="simplify" id="path-effect3" is_visible="true" lpeversion="1.3" threshold="0.012" steps="1" smooth_angles="0" helper_size="0" simplify_individual_paths="false" simplify_just_coalesce="false" step="1"/>
    <inkscape:path-effect effect="powerstroke" id="path-effect57" is_visible="true" lpeversion="1.3" scale_width="1" interpolator_type="CentripetalCatmullRom" interpolator_beta="0.75" start_linecap_type="round" end_linecap_type="round" offset_points="85.615068,1.8378712" linejoin_type="spiro" miter_limit="4" not_jump="true" sort_points="true" message="&lt;b&gt;Ctrl + click&lt;/b&gt; on existing node and move it"/>
    <inkscape:path-effect effect="simplify" id="path-effect56" is_visible="true" lpeversion="1.3" threshold="0.012" steps="1" smooth_angles="0" helper_size="0" simplify_individual_paths="false" simplify_just_coalesce="false" step="1"/>
    <inkscape:path-effect effect="powerstroke" id="path-effect55" is_visible="true" lpeversion="1.3" scale_width="1" interpolator_type="CentripetalCatmullRom" interpolator_beta="0.75" start_linecap_type="round" end_linecap_type="round" offset_points="65.254505,1.8378712" linejoin_type="spiro" miter_limit="4" not_jump="true" sort_points="true" message="&lt;b&gt;Ctrl + click&lt;/b&gt; on existing node and move it"/>
    <inkscape:path-effect effect="simplify" id="path-effect54" is_visible="true" lpeversion="1.3" threshold="0.012" steps="1" smooth_angles="0" helper_size="0" simplify_individual_paths="false" simplify_just_coalesce="false" step="1"/>
    <inkscape:path-effect effect="powerstroke" id="path-effect53" is_visible="true" lpeversion="1.3" scale_width="1" interpolator_type="CentripetalCatmullRom" interpolator_beta="0.75" start_linecap_type="round" end_linecap_type="round" offset_points="122.7788,0.64978561" linejoin_type="spiro" miter_limit="4" not_jump="true" sort_points="true" message="&lt;b&gt;Ctrl + click&lt;/b&gt; on existing node and move it"/>
    <inkscape:path-effect effect="simplify" id="path-effect52" is_visible="true" lpeversion="1.3" threshold="0.012" steps="1" smooth_angles="0" helper_size="0" simplify_individual_paths="false" simplify_just_coalesce="false" step="1"/>
    <inkscape:path-effect effect="powerstroke" id="path-effect51" is_visible="true" lpeversion="1.3" scale_width="1" interpolator_type="CentripetalCatmullRom" interpolator_beta="0.75" start_linecap_type="round" end_linecap_type="round" offset_points="32.669852,0.64978561" linejoin_type="spiro" miter_limit="4" not_jump="true" sort_points="true" message="&lt;b&gt;Ctrl + click&lt;/b&gt; on existing node and move it"/>
    <inkscape:path-effect effect="simplify" id="path-effect50" is_visible="true" lpeversion="1.3" threshold="0.012" steps="1" smooth_angles="0" helper_size="0" simplify_individual_paths="false" simplify_just_coalesce="false" step="1"/>
    <inkscape:path-effect effect="powerstroke" id="path-effect49" is_visible="true" lpeversion="1.3" scale_width="1" interpolator_type="CentripetalCatmullRom" interpolator_beta="0.75" start_linecap_type="round" end_linecap_type="round" offset_points="20.870444,0.91893562" linejoin_type="spiro" miter_limit="4" not_jump="true" sort_points="true" message="&lt;b&gt;Ctrl + click&lt;/b&gt; on existing node and move it"/>
    <inkscape:path-effect effect="simplify" id="path-effect48" is_visible="true" lpeversion="1.3" threshold="0.012" steps="1" smooth_angles="0" helper_size="0" simplify_individual_paths="false" simplify_just_coalesce="false" step="1"/>
    <inkscape:path-effect effect="powerstroke" id="path-effect47" is_visible="true" lpeversion="1.3" scale_width="1" interpolator_type="CentripetalCatmullRom" interpolator_beta="0.75" start_linecap_type="round" end_linecap_type="round" offset_points="34.466586,0.91893562" linejoin_type="spiro" miter_limit="4" not_jump="true" sort_points="true" message="&lt;b&gt;Ctrl + click&lt;/b&gt; on existing node and move it"/>
    <inkscape:path-effect effect="simplify" id="path-effect46" is_visible="true" lpeversion="1.3" threshold="0.012" steps="1" smooth_angles="0" helper_size="0" simplify_individual_paths="false" simplify_just_coalesce="false" step="1"/>
    <inkscape:path-effect effect="powerstroke" id="path-effect45" is_visible="true" lpeversion="1.3" scale_width="1" interpolator_type="CentripetalCatmullRom" interpolator_beta="0.75" start_linecap_type="round" end_linecap_type="round" offset_points="15.570065,0.91893562" linejoin_type="spiro" miter_limit="4" not_jump="true" sort_points="true" message="&lt;b&gt;Ctrl + click&lt;/b&gt; on existing node and move it"/>
    <inkscape:path-effect effect="simplify" id="path-effect44" is_visible="true" lpeversion="1.3" threshold="0.012" steps="1" smooth_angles="0" helper_size="0" simplify_individual_paths="false" simplify_just_coalesce="false" step="1"/>
    <inkscape:path-effect effect="powerstroke" id="path-effect43" is_visible="true" lpeversion="1.3" scale_width="1" interpolator_type="CentripetalCatmullRom" interpolator_beta="0.75" start_linecap_type="round" end_linecap_type="round" offset_points="39.186979,0.91893562" linejoin_type="spiro" miter_limit="4" not_jump="true" sort_points="true" message="&lt;b&gt;Ctrl + click&lt;/b&gt; on existing node and move it"/>
    <inkscape:path-effect effect="simplify" id="path-effect42" is_visible="true" lpeversion="1.3" threshold="0.012" steps="1" smooth_angles="0" helper_size="0" simplify_individual_paths="false" simplify_just_coalesce="false" step="1"/>
    <inkscape:path-effect effect="powerstroke" id="path-effect41" is_visible="true" lpeversion="1.3" scale_width="1" interpolator_type="CentripetalCatmullRom" interpolator_beta="0.75" start_linecap_type="round" end_linecap_type="round" offset_points="4.74729,0.91893562" linejoin_type="spiro" miter_limit="4" not_jump="true" sort_points="true" message="&lt;b&gt;Ctrl + click&lt;/b&gt; on existing node and move it"/>
    <inkscape:path-effect effect="simplify" id="path-effect40" is_visible="true" lpeversion="1.3" threshold="0.012" steps="1" smooth_angles="0" helper_size="0" simplify_individual_paths="false" simplify_just_coalesce="false" step="1"/>
    <inkscape:path-effect effect="powerstroke" id="path-effect39" is_visible="true" lpeversion="1.3" scale_width="1" interpolator_type="CentripetalCatmullRom" interpolator_beta="0.75" start_linecap_type="round" end_linecap_type="round" offset_points="94.91884,0.91893562" linejoin_type="spiro" miter_limit="4" not_jump="true" sort_points="true" message="&lt;b&gt;Ctrl + click&lt;/b&gt; on existing node and move it"/>
    <inkscape:path-effect effect="simplify" id="path-effect38" is_visible="true" lpeversion="1.3" threshold="0.012" steps="1" smooth_angles="0" helper_size="0" simplify_individual_paths="false" simplify_just_coalesce="false" step="1"/>
    <inkscape:path-effect effect="powerstroke" id="path-effect37" is_visible="true" lpeversion="1.3" scale_width="1" interpolator_type="CentripetalCatmullRom" interpolator_beta="0.75" start_linecap_type="round" end_linecap_type="round" offset_points="256,0.91893562" linejoin_type="spiro" miter_limit="4" not_jump="true" sort_points="true" message="&lt;b&gt;Ctrl + click&lt;/b&gt; on existing node and move it"/>
    <inkscape:path-effect effect="simplify" id="path-effect36" is_visible="true" lpeversion="1.3" threshold="0.012" steps="1" smooth_angles="0" helper_size="0" simplify_individual_paths="false" simplify_just_coalesce="false" step="1"/>
    <inkscape:path-effect effect="powerstroke" id="path-effect35" is_visible="true" lpeversion="1.3" scale_width="1" interpolator_type="CentripetalCatmullRom" interpolator_beta="0.75" start_linecap_type="round" end_linecap_type="round" offset_points="83.8103,0.91893562" linejoin_type="spiro" miter_limit="4" not_jump="true" sort_points="true" message="&lt;b&gt;Ctrl + click&lt;/b&gt; on existing node and move it"/>
    <inkscape:path-effect effect="simplify" id="path-effect34" is_visible="true" lpeversion="1.3" threshold="0.012" steps="1" smooth_angles="0" helper_size="0" simplify_individual_paths="false" simplify_just_coalesce="false" step="1"/>
    <inkscape:path-effect effect="powerstroke" id="path-effect33" is_visible="true" lpeversion="1.3" scale_width="1" interpolator_type="CentripetalCatmullRom" interpolator_beta="0.75" start_linecap_type="round" end_linecap_type="round" offset_points="358.14079,0.91893562" linejoin_type="spiro" miter_limit="4" not_jump="true" sort_points="true" message="&lt;b&gt;Ctrl + click&lt;/b&gt; on existing node and move it"/>
    <inkscape:path-effect effect="simplify" id="path-effect32" is_visible="true" lpeversion="1.3" threshold="0.012" steps="1" smooth_angles="0" helper_size="0" simplify_individual_paths="false" simplify_just_coalesce="false" step="1"/>
    <inkscape:path-effect effect="powerstroke" id="path-effect31" is_visible="true" lpeversion="1.3" scale_width="1" interpolator_type="CentripetalCatmullRom" interpolator_beta="0.75" start_linecap_type="round" end_linecap_type="round" offset_points="9.0211859,0.91893562" linejoin_type="spiro" miter_limit="4" not_jump="true" sort_points="true" message="&lt;b&gt;Ctrl + click&lt;/b&gt; on existing node and move it"/>
    <inkscape:path-effect effect="simplify" id="path-effect30" is_visible="true" lpeversion="1.3" threshold="0.012" steps="1" smooth_angles="0" helper_size="0" simplify_individual_paths="false" simplify_just_coalesce="false" step="1"/>
    <inkscape:path-effect effect="powerstroke" id="path-effect29" is_visible="true" lpeversion="1.3" scale_width="1" interpolator_type="CentripetalCatmullRom" interpolator_beta="0.75" start_linecap_type="round" end_linecap_type="round" offset_points="75.353763,0.91893562" linejoin_type="spiro" miter_limit="4" not_jump="true" sort_points="true" message="&lt;b&gt;Ctrl + click&lt;/b&gt; on existing node and move it"/>
    <inkscape:path-effect effect="simplify" id="path-effect28" is_visible="true" lpeversion="1.3" threshold="0.012" steps="1" smooth_angles="0" helper_size="0" simplify_individual_paths="false" simplify_just_coalesce="false" step="1"/>
    <inkscape:path-effect effect="powerstroke" id="path-effect27" is_visible="true" lpeversion="1.3" scale_width="1" interpolator_type="CentripetalCatmullRom" interpolator_beta="0.75" start_linecap_type="round" end_linecap_type="round" offset_points="31.723276,0.91893562" linejoin_type="spiro" miter_limit="4" not_jump="true" sort_points="true" message="&lt;b&gt;Ctrl + click&lt;/b&gt; on existing node and move it"/>
    <inkscape:path-effect effect="simplify" id="path-effect26" is_visible="true" lpeversion="1.3" threshold="0.012" steps="1" smooth_angles="0" helper_size="0" simplify_individual_paths="false" simplify_just_coalesce="false" step="1"/>
    <inkscape:path-effect effect="powerstroke" id="path-effect25" is_visible="true" lpeversion="1.3" scale_width="1" interpolator_type="CentripetalCatmullRom" interpolator_beta="0.75" start_linecap_type="round" end_linecap_type="round" offset_points="49.788406,0.32489281" linejoin_type="spiro" miter_limit="4" not_jump="true" sort_points="true" message="&lt;b&gt;Ctrl + click&lt;/b&gt; on existing node and move it"/>
    <inkscape:path-effect effect="simplify" id="path-effect24" is_visible="true" lpeversion="1.3" threshold="0.012" steps="1" smooth_angles="0" helper_size="0" simplify_individual_paths="false" simplify_just_coalesce="false" step="1"/>
    <inkscape:path-effect effect="powerstroke" id="path-effect23" is_visible="true" lpeversion="1.3" scale_width="1" interpolator_type="CentripetalCatmullRom" interpolator_beta="0.75" start_linecap_type="round" end_linecap_type="round" offset_points="29.042788,0.22973391" linejoin_type="spiro" miter_limit="4" not_jump="true" sort_points="true" message="&lt;b&gt;Ctrl + click&lt;/b&gt; on existing node and move it"/>
    <inkscape:path-effect effect="simplify" id="path-effect22" is_visible="true" lpeversion="1.3" threshold="0.012" steps="1" smooth_angles="0" helper_size="0" simplify_individual_paths="false" simplify_just_coalesce="false" step="1"/>
    <inkscape:path-effect effect="powerstroke" id="path-effect21" is_visible="true" lpeversion="1.3" scale_width="1" interpolator_type="CentripetalCatmullRom" interpolator_beta="0.75" start_linecap_type="round" end_linecap_type="round" offset_points="24.542705,1.8378712" linejoin_type="spiro" miter_limit="4" not_jump="true" sort_points="true" message="&lt;b&gt;Ctrl + click&lt;/b&gt; on existing node and move it"/>
    <inkscape:path-effect effect="simplify" id="path-effect20" is_visible="true" lpeversion="1.3" threshold="0.012" steps="1" smooth_angles="0" helper_size="0" simplify_individual_paths="false" simplify_just_coalesce="false" step="1"/>
    <inkscape:path-effect effect="powerstroke" id="path-effect19" is_visible="true" lpeversion="1.3" scale_width="1" interpolator_type="CentripetalCatmullRom" interpolator_beta="0.75" start_linecap_type="round" end_linecap_type="round" offset_points="24.645475,1.8378712" linejoin_type="spiro" miter_limit="4" not_jump="true" sort_points="true" message="&lt;b&gt;Ctrl + click&lt;/b&gt; on existing node and move it"/>
    <inkscape:path-effect effect="simplify" id="path-effect18" is_visible="true" lpeversion="1.3" threshold="0.012" steps="1" smooth_angles="0" helper_size="0" simplify_individual_paths="false" simplify_just_coalesce="false" step="1"/>
    <inkscape:path-effect effect="powerstroke" id="path-effect17" is_visible="true" lpeversion="1.3" scale_width="1" interpolator_type="CentripetalCatmullRom" interpolator_beta="0.75" start_linecap_type="round" end_linecap_type="round" offset_points="2.39728,1.8378712" linejoin_type="spiro" miter_limit="4" not_jump="true" sort_points="true" message="&lt;b&gt;Ctrl + click&lt;/b&gt; on existing node and move it"/>
    <inkscape:path-effect effect="simplify" id="path-effect16" is_visible="true" lpeversion="1.3" threshold="0.012" steps="1" smooth_angles="0" helper_size="0" simplify_individual_paths="false" simplify_just_coalesce="false" step="1"/>
    <inkscape:path-effect effect="powerstroke" id="path-effect15" is_visible="true" lpeversion="1.3" scale_width="1" interpolator_type="CentripetalCatmullRom" interpolator_beta="0.75" start_linecap_type="round" end_linecap_type="round" offset_points="40.405644,1.8378712" linejoin_type="spiro" miter_limit="4" not_jump="true" sort_points="true" message="&lt;b&gt;Ctrl + click&lt;/b&gt; on existing node and move it"/>
    <inkscape:path-effect effect="simplify" id="path-effect14" is_visible="true" lpeversion="1.3" threshold="0.012" steps="1" smooth_angles="0" helper_size="0" simplify_individual_paths="false" simplify_just_coalesce="false" step="1"/>
    <inkscape:path-effect effect="powerstroke" id="path-effect13" is_visible="true" lpeversion="1.3" scale_width="1" interpolator_type="CentripetalCatmullRom" interpolator_beta="0.75" start_linecap_type="round" end_linecap_type="round" offset_points="8.2963712,1.8378712" linejoin_type="spiro" miter_limit="4" not_jump="true" sort_points="true" message="&lt;b&gt;Ctrl + click&lt;/b&gt; on existing node and move it"/>
    <inkscape:path-effect effect="simplify" id="path-effect12" is_visible="true" lpeversion="1.3" threshold="0.012" steps="1" smooth_angles="0" helper_size="0" simplify_individual_paths="false" simplify_just_coalesce="false" step="1"/>
    <inkscape:path-effect effect="powerstroke" id="path-effect11" is_visible="true" lpeversion="1.3" scale_width="1" interpolator_type="CentripetalCatmullRom" interpolator_beta="0.75" start_linecap_type="round" end_linecap_type="round" offset_points="15.385527,1.8378712" linejoin_type="spiro" miter_limit="4" not_jump="true" sort_points="true" message="&lt;b&gt;Ctrl + click&lt;/b&gt; on existing node and move it"/>
    <inkscape:path-effect effect="simplify" id="path-effect10" is_visible="true" lpeversion="1.3" threshold="0.012" steps="1" smooth_angles="0" helper_size="0" simplify_individual_paths="false" simplify_just_coalesce="false" step="1"/>
    <inkscape:path-effect effect="bspline" id="path-effect7-7" is_visible="true" lpeversion="1.3" weight="33.333333" steps="2" helper_size="0" apply_no_weight="true" apply_with_weight="true" only_selected="false" uniform="false"/>
  </defs>
  <g inkscape:groupmode="layer" id="layer1" inkscape:label="Layer 1" transform="translate(-52.720095,-118.0304)">
    <path style="fill:#ffffff;stroke:#000000;stroke-width:2.646;stroke-linecap:round;stroke-dasharray:none" id="path1" sodipodi:type="arc" sodipodi:cx="144.43849" sodipodi:cy="-101.23769" sodipodi:rx="24" sodipodi:ry="24" sodipodi:start="6.0483272" sodipodi:end="5.0520725" sodipodi:open="true" sodipodi:arc-type="arc" d="m 167.77963,-106.82261 a 24,24 0 0 1 -12.17504,26.829167 24,24 0 0 1 -29.00242,-5.186058 24,24 0 0 1 -2.12297,-29.385859 24,24 0 0 1 27.95582,-9.30098" transform="rotate(89.38898)"/>
    <path style="fill:#96ffff;fill-opacity:1;stroke:#000000;stroke-width:1.91109;stroke-linejoin:round;stroke-miterlimit:0;stroke-dasharray:none" d="m 62.415517,123.34659 2.292045,10.13487 9.057912,2.81211 -1.982701,-8.76706 z" id="path2"/>
    <path style="fill:#96ffff;fill-opacity:1;stroke:#000000;stroke-width:1.91109;stroke-linejoin:round;stroke-miterlimit:0;stroke-dasharray:none" d="m 75.027314,151.86986 -10.332883,1.0957 -3.848228,8.66861 8.938348,-0.94781 z" id="path2-7"/>
    <path style="fill:#96ffff;fill-opacity:1;stroke:#000000;stroke-width:1.91109;stroke-linejoin:round;stroke-miterlimit:0;stroke-dasharray:none" d="m 53.675523,142.47597 8.814386,5.50233 8.371501,-4.45777 -7.624784,-4.75974 z" id="path2-2"/>
    <path style="fill:#96ffff;fill-opacity:1;stroke:#000000;stroke-width:1.84225;stroke-linejoin:round;stroke-miterlimit:4;stroke-dasharray:none" d="m 144.64556,124.38481 -3.94458,9.62198 -8.75427,1.24644 3.4122,-8.3234 z" id="path2-6"/>
    <path style="fill:#96ffff;fill-opacity:1;stroke:#000000;stroke-width:1.84225;stroke-linejoin:round;stroke-miterlimit:0;stroke-dasharray:none" d="m 147.7002,144.55253 -8.44007,5.07955 -7.49155,-4.88895 7.301,-4.39401 z" id="path2-2-0"/>
    <path id="path2-2-7-6-6" style="fill:#ffff00;stroke:#000000;stroke-width:2.646;stroke-linejoin:round;stroke-miterlimit:0;stroke-dasharray:none" d="m 123.77916,154.83902 -3.65592,7.00819 -7.39754,3.3673 7.10137,5.06993 3.12913,8.27334 4.8944,-7.69197 8.53647,-2.71813 -7.63254,-5.44882 z" sodipodi:nodetypes="ccccccccc"/>
    <path style="opacity:1;fill:#000000;fill-opacity:0;stroke:#000000;stroke-width:2.646;stroke-linecap:round;stroke-linejoin:miter;stroke-dasharray:none;stroke-opacity:0.977337;paint-order:markers fill stroke" d="m 95.972515,156.49771 c 0,0 2.651024,1.9189 7.955305,0.93543 2.45534,-0.45524 4.17219,-2.06731 5.51361,-3.86736 1.56278,-2.09707 2.0528,-4.86336 2.48113,-7.44338 0.41067,-2.47363 0.003,-5.0153 0.0548,-7.52226 0.0603,-2.93 -0.5735,-5.70367 -2.29892,-7.50369 -1.87199,-1.95293 -4.35491,-3.17442 -6.90499,-3.32394 -2.90319,0.008 -5.060078,1.66605 -6.665015,3.61939 -1.397549,1.70094 -2.046397,4.1049 -1.966084,6.30488 0.08486,2.32446 0.932636,4.82811 2.557549,6.49244 1.543485,1.58092 3.90017,2.47123 6.10711,2.57644 1.73789,0.0829 3.47749,-0.68551 4.98035,-1.56219 4.30732,-2.51264 4.237,-4.24925 4.237,-4.24925" id="path9626" sodipodi:nodetypes="csaasscaaaasc"/>
  </g>
  <g inkscape:groupmode="layer" id="layer9" inkscape:label="wordmark 4">
    <path style="fill:#000000;stroke:#ffffff;stroke-width:0;stroke-linejoin:miter;stroke-miterlimit:4;stroke-dasharray:none" id="path46" d="m 101.88052,37.323209 c -0.0407,0.650775 -0.0407,1.302585 -0.0351,1.954133 0.0351,1.038433 0.10015,2.075846 0.13751,3.114286 0.0351,0.833272 0.085,1.666124 0.14347,2.498407 0.0466,0.752565 0.12463,1.502944 0.20462,2.253241 0.0711,0.553522 0.12,1.108678 0.17123,1.663767 0.0297,0.503433 0.0582,1.006972 0.091,1.510308 0.0165,0.254904 0,0.123782 0.035,0.393492 0.19504,1.764709 3.09524,1.527073 2.89994,-0.237665 v 0 c -0.0232,-0.174023 -0.0165,-0.07311 -0.0297,-0.302891 -0.0351,-0.519838 -0.0598,-1.039945 -0.0955,-1.559774 -0.0526,-0.564983 -0.10182,-1.130077 -0.17487,-1.69347 -0.077,-0.725715 -0.15503,-1.45147 -0.19735,-2.179389 -0.0582,-0.80714 -0.10481,-1.614883 -0.13851,-2.422993 -0.0351,-1.020778 -0.0985,-2.040589 -0.13586,-3.06127 0,-0.643709 0,-1.287163 0.0351,-1.930205 0,-1.77268 -2.91303,-1.77268 -2.91303,0 z"/>
    <path style="fill:#000000;stroke:#ffffff;stroke-width:0;stroke-linejoin:miter;stroke-miterlimit:4;stroke-dasharray:none" id="path47" d="m 104.42702,33.13611 c -0.0351,0.131335 -0.159,0.409217 -0.29354,0.467946 -0.12364,0.05358 -0.25222,0.09421 -0.3781,0.141218 -0.12925,-8.73e-4 -0.25983,0.02281 -0.38627,-0.0031 -0.35771,-0.07121 -0.66579,-0.305809 -0.78212,-0.659783 -0.0466,-0.142442 -0.0582,-0.296322 -0.0589,-0.446331 -0.001,-0.07802 0.0297,-0.153052 0.0466,-0.22948 0.0351,-0.04079 0.0297,-0.146276 0.0833,-0.180622 0.20629,-0.13226 0.35014,-0.199993 0.61639,-0.189878 0.1385,0.0047 0.27073,0.06059 0.40666,0.09094 0.0674,0.0402 0.13586,0.08029 0.2033,0.12036 -1.48964,-1.42259 -3.50141,0.68405 -2.0119,2.10665 v 0 c 0.14511,0.114079 0.2909,0.228258 0.43638,0.342452 0.22776,0.07954 0.44452,0.202573 0.68315,0.238736 0.71463,0.10852 1.42601,-0.25609 1.87915,-0.788487 0.11239,-0.132062 0.20164,-0.282504 0.30246,-0.423781 0.21686,-0.562032 0.35715,-0.720877 0.22942,-1.385199 -0.12826,-0.665536 -0.66666,-1.215776 -1.30211,-1.415241 -0.21156,-0.06632 -0.43985,-0.04893 -0.66017,-0.07368 -0.21719,0.05709 -0.4416,0.09431 -0.65281,0.17107 -0.1107,0.0402 -0.20792,0.109751 -0.30479,0.176456 -0.40488,0.279364 -0.70493,0.67098 -0.85722,1.139071 -0.5657,1.980543 2.23513,2.780805 2.80103,0.800247 z"/>
    <path style="fill:#000000;stroke:#ffffff;stroke-width:0;stroke-linejoin:miter;stroke-miterlimit:4;stroke-dasharray:none" id="path48" d="m 110.78823,50.328013 c 0,-0.614565 6.7e-4,-1.228476 0.0297,-1.842536 0.077,-1.056621 0.14974,-2.113209 0.20858,-3.170999 0.0634,-1.273798 0.22942,-2.538565 0.39325,-3.80225 0.11069,-0.864171 0.28197,-1.717538 0.49929,-2.560609 0.0893,-0.316518 0.18347,-0.634198 0.30875,-0.938931 0.0297,-0.0678 0.0526,-0.137186 0.0926,-0.199598 0.0165,-0.02083 0.0407,-0.03041 0.0588,-0.04485 0.0232,-0.01983 0.0526,-0.03904 0.0803,-0.05891 0.18347,-0.08925 0.40316,-0.03904 0.59764,-0.01752 0.16661,0.03669 0.3653,0.0443 0.50455,0.157945 0.0165,0.01619 0.0297,0.04135 0.0466,0.06258 0.0232,0.03614 0.0466,0.07398 0.0724,0.109885 0.0526,0.07709 0.10947,0.15259 0.16495,0.228951 0.51443,0.794481 0.75039,1.715254 0.98219,2.621401 0.35073,1.427756 0.45559,2.896856 0.55813,4.358496 0.0803,1.209105 0.15966,2.418127 0.24363,3.626936 0.0351,0.555389 0.0165,0.281908 0.0581,0.820456 0.15966,2.053608 3.06397,1.827892 2.90427,-0.225712 v 0 c -0.0407,-0.503772 -0.0165,-0.238339 -0.0582,-0.796454 -0.0833,-1.209719 -0.16429,-2.419671 -0.24396,-3.629679 -0.11603,-1.637584 -0.24296,-3.281965 -0.64278,-4.879961 -0.13389,-0.5195 -0.20562,-0.829576 -0.37229,-1.339768 -0.2704,-0.830185 -0.62814,-1.631019 -1.13362,-2.346556 -0.33555,-0.415802 -0.46898,-0.629412 -0.90324,-0.961718 -0.57271,-0.437706 -1.26429,-0.632661 -1.96889,-0.712094 -0.40142,-0.0228 -0.57678,-0.05011 -0.98828,0.0031 -0.73587,0.09468 -1.39945,0.416032 -1.93973,0.921885 -0.12164,0.137681 -0.2552,0.265709 -0.36532,0.413176 -0.46024,0.61919 -0.66579,1.372435 -0.87692,2.101837 -0.24528,0.958806 -0.4416,1.928765 -0.56686,2.911193 -0.17289,1.333684 -0.34607,2.668722 -0.41248,4.013013 -0.0598,1.072422 -0.13587,2.143459 -0.2109,3.214843 -0.0232,0.654012 -0.0351,1.307869 -0.0297,1.962397 0,2.059785 2.91286,2.059785 2.91286,0 z"/>
    <path style="fill:#000000;stroke:#ffffff;stroke-width:0;stroke-linejoin:miter;stroke-miterlimit:4;stroke-dasharray:none" id="path48-9" d="m 92.287697,51.009796 c 0,-0.614565 6.3e-4,-1.228476 0.0297,-1.842533 0.077,-1.056623 0.14975,-2.113208 0.20859,-3.171002 0.0634,-1.273797 0.22942,-2.538564 0.39327,-3.802246 0.1107,-0.864174 0.28198,-1.717538 0.49926,-2.560609 0.0893,-0.316519 0.18347,-0.634198 0.30876,-0.938932 0.0297,-0.0678 0.0526,-0.137219 0.0925,-0.199597 0.0165,-0.02083 0.0407,-0.03041 0.0588,-0.04485 0.0232,-0.01983 0.0526,-0.03904 0.0803,-0.05891 0.18347,-0.08925 0.40316,-0.03904 0.59763,-0.01752 0.16661,0.03669 0.36528,0.04427 0.50451,0.157946 0.0165,0.01619 0.0297,0.04135 0.0466,0.06258 0.0232,0.03614 0.0466,0.07398 0.0721,0.109885 0.0526,0.07709 0.10948,0.152589 0.16496,0.228951 0.51443,0.794484 0.75038,1.715254 0.98217,2.621404 0.35074,1.427753 0.45562,2.896853 0.55813,4.358493 0.0803,1.209104 0.15967,2.418127 0.24364,3.626939 0.035,0.555386 0.0165,0.281908 0.0582,0.820453 0.15967,2.053609 3.063943,1.827891 2.904243,-0.225713 v 0 c -0.0407,-0.503771 -0.0165,-0.238339 -0.0582,-0.79645 -0.0833,-1.209724 -0.164293,-2.419675 -0.243963,-3.629682 -0.11603,-1.637581 -0.24296,-3.281965 -0.64278,-4.879958 -0.13389,-0.519504 -0.20562,-0.82958 -0.37226,-1.339771 -0.2704,-0.830182 -0.62817,-1.631016 -1.13362,-2.346557 -0.33558,-0.415798 -0.469,-0.629408 -0.90328,-0.961718 -0.57267,-0.437705 -1.26429,-0.632657 -1.96888,-0.71209 -0.40142,-0.0228 -0.57678,-0.05011 -0.98828,0.0031 -0.73587,0.09468 -1.39941,0.416032 -1.93973,0.921885 -0.12165,0.137681 -0.2552,0.265709 -0.36528,0.413179 -0.46025,0.61919 -0.6658,1.372436 -0.87693,2.101837 -0.24528,0.958803 -0.4416,1.928762 -0.56689,2.91119 -0.17289,1.333684 -0.34604,2.668725 -0.41245,4.013016 -0.0601,1.072422 -0.13587,2.143456 -0.2109,3.214843 -0.0232,0.654012 -0.0351,1.307866 -0.0297,1.962397 0,2.059786 2.91291,2.059786 2.91291,0 z"/>
    <path style="fill:#000000;stroke:#ffffff;stroke-width:0;stroke-linejoin:miter;stroke-miterlimit:4;stroke-dasharray:none" id="path49" d="m 120.36994,44.68869 c 0.69212,0.543446 1.56155,0.773644 2.40241,0.971889 0.73819,0.151202 1.49532,0.207067 2.24714,0.147499 0.43809,-0.03494 0.60699,-0.07597 1.03567,-0.153218 0.7559,-0.159631 1.51697,-0.346471 2.22108,-0.672736 0.1385,-0.06462 0.27338,-0.139929 0.41017,-0.20991 0.59225,-0.349675 1.10291,-0.806874 1.42233,-1.426018 0.23305,-0.451747 0.23901,-0.626538 0.35133,-1.121594 0.0165,-0.226571 0.0466,-0.453201 0.0351,-0.679799 -0.0526,-1.005674 -0.4614,-2.138888 -0.94122,-3.02005 -0.119,-0.217546 -0.25884,-0.422617 -0.38802,-0.633924 -0.53718,-0.75733 -1.22264,-1.393736 -2.07802,-1.774382 -0.49519,-0.220356 -0.67826,-0.233513 -1.19309,-0.344667 -1.00704,-0.136392 -1.96552,0.05854 -2.86926,0.514553 -0.17652,0.08909 -0.34428,0.194704 -0.51615,0.29199 -0.85614,0.54473 -1.56662,1.280101 -2.10565,2.13857 -0.10482,0.166606 -0.19569,0.341344 -0.29354,0.511987 -0.44571,0.892365 -0.71638,1.87316 -0.80358,2.86734 -0.0165,0.200225 -0.0165,0.401583 -0.0297,0.602334 -0.0165,1.047021 0.25057,2.066586 0.71724,3.001254 0.091,0.1833 0.19801,0.358705 0.29718,0.538029 0.51268,0.816106 1.10122,1.591072 1.7531,2.301853 0.14314,0.156656 0.29487,0.306106 0.4422,0.459146 0.57502,0.557952 1.16625,1.112772 1.8531,1.533052 0.49056,0.300221 0.61817,0.332545 1.14245,0.556845 1.09054,0.403623 2.25509,0.469926 3.4055,0.506278 0.69655,0.01223 1.39336,0.02744 2.0885,-0.02579 2.05276,-0.170044 1.81227,-3.073105 -0.24065,-2.903034 v 0 c -0.58441,0.05477 -1.17289,0.01521 -1.75869,0.01751 -0.79782,-0.02314 -1.61046,-0.04661 -2.37857,-0.285247 -0.28098,-0.110051 -0.37519,-0.134872 -0.63912,-0.287461 -0.51969,-0.300256 -0.94817,-0.731871 -1.3816,-1.139799 -0.1107,-0.114245 -0.22677,-0.225183 -0.335,-0.342627 -0.52084,-0.564246 -0.99306,-1.178256 -1.41321,-1.820021 -0.0634,-0.1076 -0.12926,-0.212754 -0.18777,-0.322866 -0.27338,-0.518863 -0.45036,-1.082674 -0.45442,-1.672483 0,-0.120061 6.2e-4,-0.240487 0.0165,-0.360335 0.0407,-0.616919 0.19569,-1.233732 0.45149,-1.796102 0.0582,-0.101255 0.10481,-0.205084 0.16495,-0.303725 0.29784,-0.493694 0.67902,-0.932592 1.15914,-1.255881 0.41655,-0.254636 0.85912,-0.492354 1.36253,-0.466312 0.16761,0.0238 0.27835,0.03207 0.43986,0.08635 0.38392,0.129153 0.67902,0.407412 0.92271,0.721555 0.0786,0.121186 0.16595,0.237512 0.23767,0.363367 0.16199,0.285577 0.31471,0.643496 0.4282,0.950028 0.0466,0.135038 0.18412,0.544145 0.21916,0.724764 0.0165,0.06198 0.0165,0.125616 0.0165,0.188457 -0.0232,0.327758 0.0297,0.305874 -0.26975,0.528532 -0.55928,0.310535 -1.18433,0.468523 -1.80751,0.597099 -0.25387,0.04892 -0.39559,0.08278 -0.65112,0.108065 -0.48295,0.04777 -0.97141,0.01587 -1.44729,-0.07709 -0.32858,-0.07276 -0.64028,-0.155136 -0.95587,-0.272818 -0.0526,-0.01918 -0.10182,-0.04135 -0.15272,-0.05966 -0.0165,-0.0047 -0.0232,-0.0014 -0.035,-0.0063 -0.0165,-0.0077 -0.0297,-0.02148 -0.0466,-0.03207 -1.58243,-1.318639 -3.44733,0.919181 -1.86484,2.237823 z"/>
    <path style="fill:#000000;stroke:#ffffff;stroke-width:0;stroke-linejoin:miter;stroke-miterlimit:4;stroke-dasharray:none" id="path53" d="m 179.26035,20.846314 c -0.62477,0.176061 -1.25847,0.324057 -1.88447,0.498415 -1.15899,0.291296 -2.15767,0.760167 -3.18353,1.363877 -1.12651,0.687657 -2.18935,1.472475 -3.15533,2.371084 -0.6149,0.617273 -1.17802,1.317499 -1.50491,2.134974 -0.23537,0.588949 -0.25818,0.829904 -0.38336,1.438813 -0.15504,1.086881 -0.12166,2.199044 0.14809,3.266005 0.0526,0.202275 0.11901,0.400129 0.17718,0.600199 0.38918,1.057345 0.98641,2.060909 1.7687,2.878479 0.16958,0.177351 0.35715,0.33686 0.53543,0.505287 0.82239,0.739805 1.77528,1.30338 2.70622,1.890779 0.46898,0.281744 0.9449,0.558304 1.36799,0.90807 0.19934,0.164921 0.47423,0.430598 0.65823,0.603853 0.61998,0.609911 1.15454,1.304953 1.53344,2.088724 0.31999,0.724297 0.44511,1.502301 0.51794,2.284188 0.0863,1.051453 0.0803,2.106025 0,3.157532 -0.0893,0.911313 -0.30578,1.812583 -0.63212,2.667663 -0.33731,0.845256 -0.8093,1.619975 -1.34878,2.349003 -0.3315,0.435143 -0.68563,0.859365 -1.1843,1.104394 -0.49812,0.237282 -1.01504,0.417608 -1.54299,0.573219 -0.48415,0.186076 -0.98915,0.284255 -1.50015,0.357538 -0.72761,0.117815 -1.4615,0.187135 -2.18961,0.301478 -0.53192,0.08862 -1.06688,0.158541 -1.59996,0.240092 -0.10481,0.02215 -0.20859,0.0443 -0.31238,0.06612 -2.01085,0.446561 -1.37929,3.290282 0.63152,2.843692 v 0 c 0.0407,-0.01087 0.0816,-0.0205 0.12363,-0.03041 0.5383,-0.08278 1.07808,-0.152293 1.61528,-0.242471 0.71556,-0.115469 1.43834,-0.176128 2.15323,-0.295892 0.64622,-0.09553 1.28928,-0.217646 1.9037,-0.446095 0.73933,-0.218373 1.4635,-0.480236 2.15187,-0.831064 0.15273,-0.09001 0.30875,-0.17226 0.45618,-0.269843 0.65298,-0.432519 1.16876,-1.028195 1.64118,-1.644304 0.69614,-0.950387 1.30422,-1.960744 1.73353,-3.062145 0.40838,-1.121861 0.70814,-2.28695 0.80711,-3.480133 0.0816,-1.212246 0.0925,-2.427945 -0.0165,-3.639695 -0.11405,-1.138985 -0.32264,-2.266992 -0.81449,-3.311187 -0.0925,-0.178739 -0.17653,-0.361328 -0.2757,-0.536224 -0.49638,-0.877136 -1.15517,-1.657898 -1.86612,-2.367234 -0.75528,-0.707111 -1.55145,-1.359606 -2.46677,-1.852689 -0.78271,-0.493342 -1.5888,-0.95974 -2.28845,-1.571225 -0.10182,-0.08909 -0.20859,-0.171697 -0.30478,-0.267131 -0.51096,-0.510533 -0.91049,-1.152549 -1.18337,-1.816994 -0.25223,-0.799598 -0.37053,-1.623264 -0.25388,-2.461393 0.0297,-0.158342 0.0925,-0.566812 0.15273,-0.742558 0.16892,-0.492877 0.51443,-0.903736 0.8725,-1.26946 0.79984,-0.764597 1.71115,-1.40106 2.64695,-1.988201 0.77797,-0.467536 1.59139,-0.848205 2.4785,-1.062587 0.67254,-0.187764 1.35448,-0.341635 2.02331,-0.540885 1.95416,-0.651368 1.03292,-3.414877 -0.92116,-2.763506 z"/>
    <path style="fill:#000000;stroke:#ffffff;stroke-width:0;stroke-linejoin:miter;stroke-miterlimit:4;stroke-dasharray:none" id="path62" d="m 137.23794,49.486963 c -0.0816,-0.494742 -0.14809,-0.990676 -0.20231,-1.489249 -0.085,-0.866805 -0.11404,-1.737571 -0.17058,-2.606412 -0.0466,-0.579099 -0.0648,-1.159286 -0.0724,-1.739902 0,-0.834578 -0.0466,-1.668489 -0.10681,-2.500998 -0.0526,-0.705601 -0.0694,-1.41259 -0.11536,-2.118435 -0.0466,-0.756399 -0.10648,-1.512434 -0.16958,-2.267808 -0.0628,-0.744555 -0.0786,-1.491947 -0.0893,-2.238736 -0.0165,-0.73794 0,-1.475959 0,-2.213929 4.5e-4,-0.838135 9.2e-4,-1.67629 0.001,-2.514419 1.7e-4,-0.679535 1.7e-4,-1.359061 1.7e-4,-2.038596 0,-0.492063 0,-0.984141 0,-1.476221 0,-0.409507 0,-0.819068 0,-1.228615 0,-0.422153 0,-0.844321 0,-1.266462 0,-0.344432 0,-0.688848 0,-1.033266 0,-0.18254 0,-0.365117 0,-0.547643 0,-2.059795 -2.91304,-2.059795 -2.91304,0 v 0 c 0,0.18254 0,0.365113 0,0.547643 0,0.344431 0,0.688844 0,1.033266 0,0.422148 0,0.844303 0,1.266462 0,0.409564 0,0.819094 0,1.228632 0,0.492063 0,0.984114 0,1.476157 0,0.679338 0,1.358674 -1.5e-4,2.037989 -1.4e-4,0.838016 -5e-4,1.676012 -10e-4,2.514008 -3e-4,0.752988 0,1.506002 0,2.258956 0.0165,0.813832 0.0297,1.628226 0.10016,2.439569 0.0618,0.73725 0.11702,1.475113 0.16528,2.213364 0.0466,0.7089 0.0648,1.419079 0.11537,2.127717 0.0526,0.779916 0.0938,1.561187 0.0985,2.343073 0.0165,0.630578 0.0297,1.260746 0.0786,1.889672 0.0598,0.910337 0.0896,1.822791 0.18182,2.730732 0.0598,0.553119 0.13586,1.103237 0.22478,1.652335 0.33851,2.031763 3.212,1.552878 2.87333,-0.478894 z"/>
    <path style="fill:#000000;stroke:#ffffff;stroke-width:0;stroke-linejoin:miter;stroke-miterlimit:4;stroke-dasharray:none" id="path63" d="m 135.06111,23.313157 c 0.77704,-0.01686 1.55364,-0.05243 2.33097,-0.07014 1.07164,-0.0238 2.14387,0.01223 3.21332,0.07986 1.07812,0.07061 2.15527,0.157714 3.23104,0.256454 0.53714,0.0638 1.08334,0.09527 1.59234,0.290205 0.28496,0.103862 0.53368,0.26386 0.72913,0.494567 0.28066,0.310536 0.42356,0.715885 0.60392,1.087734 0.23834,0.445863 0.38683,0.925857 0.51268,1.412897 0.119,0.472487 0.15074,0.955996 0.12,1.440595 -0.035,0.436131 -0.20694,0.841084 -0.36238,1.245098 -0.21552,0.509947 -0.45267,1.011947 -0.69831,1.508064 -0.19934,0.402053 -0.40663,0.79974 -0.67873,1.157716 -0.28957,0.299229 -0.61608,0.559644 -0.95802,0.796469 -0.33023,0.21887 -0.69561,0.36628 -1.06555,0.502315 -0.41367,0.127169 -0.8495,0.155962 -1.27758,0.202175 -0.67284,0.09339 -1.34092,0.211961 -2.0164,0.287396 -0.52897,0.0431 -1.05834,0.08373 -1.58769,0.12393 -0.48355,0.04135 -0.96693,-0.03041 -1.44774,-0.0749 -0.41481,-0.04545 -0.82835,-0.07183 -1.24443,-0.03041 -2.04671,0.230936 -1.72004,3.125577 0.32693,2.894626 v 0 c 0.0165,-0.0016 0.0297,0.0031 0.0297,-0.0063 0,-0.0092 -0.0407,-0.0063 -0.0297,-0.0063 0.21785,-5.52e-4 0.43519,0.03789 0.65244,0.04836 0.64418,0.05996 1.29146,0.139995 1.93892,0.07907 0.5645,-0.0431 1.12859,-0.08496 1.69247,-0.133815 0.67135,-0.07617 1.33691,-0.185679 2.00466,-0.286171 0.6664,-0.07259 1.34033,-0.137022 1.97538,-0.366631 0.60577,-0.225645 1.19817,-0.48571 1.73323,-0.853916 0.59086,-0.421571 1.16238,-0.877767 1.62111,-1.445378 0.36706,-0.503773 0.68044,-1.039128 0.94913,-1.601817 0.28263,-0.575955 0.56044,-1.155789 0.80387,-1.749412 0.26577,-0.691843 0.51327,-1.395436 0.55288,-2.143102 0.0351,-0.781906 -0.0165,-1.562684 -0.21091,-2.323378 -0.17652,-0.671826 -0.38974,-1.333669 -0.71205,-1.951927 -0.3104,-0.637841 -0.5968,-1.298511 -1.10379,-1.811615 -0.23371,-0.240389 -0.29255,-0.316882 -0.56104,-0.525154 -0.39791,-0.308189 -0.85088,-0.540475 -1.31982,-0.718797 -0.13289,-0.04545 -0.26513,-0.09573 -0.39967,-0.135632 -0.61584,-0.18211 -1.25968,-0.231827 -1.89411,-0.307891 -1.10341,-0.101256 -2.208,-0.19044 -3.31372,-0.262867 -1.15256,-0.0723 -2.30782,-0.11117 -3.46289,-0.08495 -0.75528,0.01686 -1.51014,0.05068 -2.26515,0.06952 -2.05981,0 -2.05981,2.912981 0,2.912981 z"/>
    <path style="fill:#000000;stroke:#ffffff;stroke-width:0;stroke-linejoin:miter;stroke-miterlimit:4;stroke-dasharray:none" id="path64" d="m 146.7424,39.438169 c 0,0.454195 0,0.908336 0,1.362509 -0.0232,0.343967 -0.0581,0.686732 -0.077,1.03085 -0.0165,0.346122 -0.0165,0.692778 -0.0165,1.039266 -6.3e-4,0.476217 -1.7e-4,0.952354 0,1.428539 -0.0165,0.743973 0.0618,1.484085 0.16826,2.219127 0.11404,0.663211 0.26379,1.319462 0.38566,1.981054 0.10782,0.576596 0.19934,1.156304 0.26116,1.739762 0.077,0.461708 0.10481,0.928447 0.15073,1.393398 0.0466,0.475574 0.0939,0.951232 0.13289,1.427481 0.0165,0.518163 0.0833,1.032946 0.11538,1.550116 0.0466,0.401587 0.0526,0.807785 0.11069,1.207965 0.0165,0.109585 0.0165,0.223596 0.0588,0.327064 0.0955,0.248719 0.22842,0.481108 0.34256,0.721633 0.18049,0.170309 0.34488,0.359406 0.5418,0.510939 0.58964,0.4546 1.50849,0.608103 2.22925,0.725316 0.8463,0.122112 1.70289,0.127929 2.55593,0.137317 0.80479,0.0047 1.60943,0.0031 2.41403,0.0016 0.45268,-7.67e-4 0.9053,-0.0014 1.35787,-0.0016 0.22545,-1.32e-4 0.45034,-1.22e-4 0.67566,-1.22e-4 2.05979,-3e-5 2.05979,-2.913011 0,-2.912991 v 0 c -0.22611,0 -0.45213,0 -0.6778,1.32e-4 -0.45328,3.44e-4 -0.90712,0.001 -1.36062,0.0016 -0.79251,0.0013 -1.58494,0.0031 -2.37741,-0.0013 -0.71059,-0.0077 -1.42432,-0.0077 -2.12995,-0.101422 -0.25454,-0.03904 -0.50686,-0.08446 -0.75872,-0.139367 -0.0407,-0.0092 -0.0803,-0.02083 -0.12,-0.02909 -0.0165,-0.0031 -0.0598,-0.02215 -0.0526,-0.0047 0.0297,0.07335 0.0846,0.132261 0.12826,0.198308 0.0351,0.116988 0.0618,0.23467 0.0955,0.350898 0.0165,0.03844 -0.0165,-0.07772 -0.0297,-0.117351 -0.0407,-0.265017 -0.0526,-0.53605 -0.0756,-0.803023 0,-0.08665 -0.0165,-0.173383 -0.0232,-0.260091 -0.0351,-0.535348 -0.0972,-1.068428 -0.12,-1.604729 -0.0407,-0.494506 -0.0896,-0.988428 -0.1385,-1.482296 -0.0526,-0.468468 -0.0721,-0.940165 -0.15272,-1.405406 -0.0711,-0.657818 -0.17058,-1.311979 -0.29355,-1.962166 -0.11702,-0.62555 -0.25354,-1.247299 -0.36819,-1.873421 -0.0896,-0.594401 -0.14974,-1.193335 -0.13751,-1.795321 -1.7e-4,-0.473069 -5.7e-4,-0.946129 -1.7e-4,-1.419185 8.4e-4,-0.294801 0.001,-0.589687 0.0165,-0.884196 0.0232,-0.398497 0.0721,-0.79493 0.0816,-1.194168 0,-0.454193 0,-0.908334 0,-1.362508 0,-2.059799 -2.91304,-2.059799 -2.91304,0 z"/>
    <path style="fill:#000000;stroke:#ffffff;stroke-width:0;stroke-linejoin:miter;stroke-miterlimit:4;stroke-dasharray:none" id="path65" d="m 154.40932,32.173439 c -0.40492,1.397175 -0.55288,2.841933 -0.62478,4.288838 -0.0165,2.259819 0.19999,4.516885 0.51153,6.75313 0.25288,1.934378 0.66731,3.842773 1.39764,5.653784 0.63929,1.293161 1.65895,2.365088 2.95425,3.016875 0.24991,0.125946 0.51619,0.217845 0.77425,0.326733 1.40978,0.46066 2.8537,0.355093 4.13878,-0.407058 0.24065,-0.142574 0.4585,-0.320883 0.68752,-0.481283 1.14958,-0.987301 2.04721,-2.226574 2.58534,-3.647442 0.12,-0.317344 0.20627,-0.646624 0.30941,-0.969942 0.58788,-2.174208 0.48355,-4.430466 0.35361,-6.654154 -0.13091,-2.153357 -0.21553,-4.307335 -0.47073,-6.450473 -0.0351,-0.221149 -0.0756,-0.442366 -0.1124,-0.663518 -0.35248,-2.029417 -3.2226,-1.531003 -2.87006,0.49841 v 0 c 0.0297,0.170176 0.0601,0.340353 0.091,0.510473 0.24991,2.085278 0.32461,4.181982 0.45558,6.277131 0.11241,1.873624 0.22942,3.779064 -0.22775,5.619392 -0.0674,0.226935 -0.12364,0.457456 -0.20265,0.680752 -0.33089,0.939243 -0.90154,1.76036 -1.62189,2.442653 -0.69194,0.539833 -1.12714,0.774738 -2.02552,0.543095 -0.89697,-0.32941 -1.66534,-0.883792 -2.121,-1.744716 -0.65868,-1.578476 -0.97265,-3.26759 -1.20902,-4.955499 -0.29056,-2.056952 -0.48064,-4.133445 -0.48645,-6.212129 0.0526,-1.222728 0.17784,-2.443516 0.51561,-3.624783 0.56571,-1.980533 -2.23497,-2.780785 -2.80083,-0.800243 z"/>
    <circle id="path3" style="fill:#000000;stroke:#ffffff;stroke-width:0.264583" cx="380.65274" cy="19.926432" r="0"/>
  </g>
</svg>