<?xml version="1.0" encoding="UTF-8" standalone="no"?>
<!-- Created with Inkscape (http://www.inkscape.org/) -->

<svg
   width="21.480898mm"
   height="15.599615mm"
   viewBox="0 0 21.480898 15.599615"
   version="1.1"
   id="svg1"
   inkscape:version="1.3.2 (091e20ef0f, 2023-11-25, custom)"
   sodipodi:docname="quarkymark.svg"
   xmlns:inkscape="http://www.inkscape.org/namespaces/inkscape"
   xmlns:sodipodi="http://sodipodi.sourceforge.net/DTD/sodipodi-0.dtd"
   xmlns="http://www.w3.org/2000/svg"
   xmlns:svg="http://www.w3.org/2000/svg">
  <sodipodi:namedview
     id="namedview1"
     pagecolor="#ffffff"
     bordercolor="#000000"
     borderopacity="0.25"
     inkscape:showpageshadow="2"
     inkscape:pageopacity="0.0"
     inkscape:pagecheckerboard="0"
     inkscape:deskcolor="#d1d1d1"
     inkscape:document-units="mm"
     inkscape:zoom="2"
     inkscape:cx="-173.25"
     inkscape:cy="29.5"
     inkscape:window-width="1920"
     inkscape:window-height="1014"
     inkscape:window-x="0"
     inkscape:window-y="0"
     inkscape:window-maximized="1"
     inkscape:current-layer="layer1" />
  <defs
     id="defs1" />
  <g
     inkscape:label="Layer 1"
     inkscape:groupmode="layer"
     id="layer1"
     style="display:inline"
     transform="translate(-81.223652,-96.572638)">
    <path
       style="fill:#000000;stroke:#ffffff;stroke-width:0;stroke-dasharray:none"
       id="path2"
       d="m 82.678549,104.18444 c -0.08209,0.0182 -0.162052,0.0431 -0.242318,0.0672 -0.09377,0.0298 -0.187075,0.0605 -0.278011,0.0981 -0.111802,0.0463 -0.215414,0.1085 -0.302406,0.19346 -0.02092,0.0203 -0.03944,0.0431 -0.05912,0.0647 -0.06559,0.0736 -0.126051,0.15174 -0.184138,0.23127 -0.06068,0.0838 -0.10466,0.17755 -0.140916,0.27405 -0.02664,0.0662 -0.03375,0.1383 -0.05776,0.20515 -0.03328,0.10449 -0.05906,0.21121 -0.09065,0.31623 -0.03471,0.10631 -0.05258,0.21657 -0.07097,0.32652 -0.01708,0.0965 -0.02303,0.19444 -0.02641,0.29228 -0.0024,0.10995 -0.0024,0.21979 -0.002,0.32969 0.0047,0.14411 0.02679,0.28766 0.07384,0.42438 0.03366,0.0978 0.05405,0.13376 0.09788,0.22495 0.06866,0.12885 0.146205,0.25372 0.244804,0.36205 0.0603,0.0663 0.09636,0.0961 0.160562,0.15375 0.139135,0.11849 0.301489,0.20136 0.470383,0.26793 0.147986,0.0569 0.292931,0.0787 0.450347,0.0829 0.118218,-0.001 0.23551,-0.0196 0.350304,-0.0469 0.08787,-0.0263 0.0328,-0.009 0.09439,-0.0296 0.0067,-0.002 -0.01327,0.005 -0.02034,0.007 -0.05038,0.005 -0.102207,0.0216 -0.15153,0.0109 -0.227901,-0.0525 -0.214289,-0.0851 -0.336138,-0.2455 -0.0069,-0.0194 -0.01363,-0.0389 -0.02057,-0.0583 -4.82e-4,-4.7e-4 -0.002,-0.002 -0.002,-10e-4 0.0044,0.082 0.01218,0.16429 0.01852,0.24609 0.01841,0.17992 0.03111,0.36034 0.03904,0.54104 0.0055,0.13975 0.0056,0.27958 0.006,0.41939 8.7e-5,0.14029 -1.11e-4,0.28048 -2.16e-4,0.42071 -9.7e-5,0.15138 -1.06e-4,0.30286 -1.15e-4,0.4543 -5e-6,0.14284 -5e-6,0.28583 -5e-6,0.42874 0,0.0918 0,0.18359 0,0.27537 0,0.0672 0,0.13448 0,0.20177 -4.8e-4,0.0418 -0.0095,0.10468 -0.01381,0.16702 -9.63e-4,0.0164 -0.0014,0.0324 -0.0024,0.0483 -0.03217,0.64172 0.875373,0.68719 0.907527,0.0454 v 0 c 4.65e-4,-0.009 9.62e-4,-0.0198 0.0014,-0.0296 0.0053,-0.0771 0.01745,-0.15375 0.01618,-0.23127 0,-0.0673 0,-0.13449 0,-0.20178 0,-0.0918 0,-0.18357 -6e-6,-0.27537 0,-0.14284 0,-0.28579 6e-6,-0.42869 9e-6,-0.1512 1.8e-5,-0.30244 1.14e-4,-0.45366 1.07e-4,-0.14102 3.09e-4,-0.2821 2.16e-4,-0.42317 -2.98e-4,-0.15265 -4.79e-4,-0.30533 -0.0069,-0.45786 -0.0085,-0.19114 -0.0215,-0.38202 -0.04102,-0.57238 -0.01254,-0.1543 -0.01109,-0.31153 -0.06112,-0.45992 -0.04347,-0.0636 -0.07069,-0.14211 -0.130357,-0.19098 -0.162052,-0.13248 -0.251525,-0.12921 -0.432634,-0.11268 -0.02817,0.002 -0.05579,0.0109 -0.08152,0.0235 -0.0014,4.9e-4 0.0035,-1.5e-4 0.0049,-2.2e-4 -0.04333,0.0109 -0.0875,0.0189 -0.132157,0.0218 -0.03424,0.009 -0.09476,-0.0145 -0.127686,-0.0216 -0.06862,-0.0256 -0.135664,-0.0563 -0.195013,-0.0998 -7.6e-5,-7e-5 -0.06606,-0.0574 -0.07224,-0.0636 -0.05054,-0.0502 -0.08571,-0.11231 -0.120998,-0.17337 -0.04058,-0.0794 -0.07695,-0.15793 -0.07875,-0.24903 -9e-6,-0.0998 -3.21e-4,-0.19951 0.0014,-0.29924 0.002,-0.0585 0.0044,-0.11704 0.01472,-0.17483 0.01181,-0.072 0.02154,-0.14466 0.04505,-0.21419 0.02924,-0.0983 0.0545,-0.19786 0.08438,-0.29605 0.01708,-0.0543 0.03616,-0.11122 0.04467,-0.16755 0.01163,-0.0314 0.01454,-0.0453 0.03091,-0.0665 0.01345,-0.0243 -4.79e-4,-5e-5 0.03924,-0.0514 0.02866,-0.0371 0.05699,-0.0745 0.08905,-0.10886 -0.0014,-0.002 -0.02693,0.0127 -0.02702,0.0109 -4.81e-4,-0.002 0.05254,-0.0284 0.05518,-0.0287 0.06097,-0.0265 0.125142,-0.0442 0.187954,-0.0658 0.07617,-0.0231 0.152166,-0.0465 0.229975,-0.0636 0.617803,-0.17647 0.368172,-1.05022 -0.249631,-0.8737 z" />
    <path
       style="fill:#000000;stroke:#ffffff;stroke-width:0;stroke-dasharray:none"
       id="path3"
       d="m 83.002393,105.08934 c 0.01327,10e-4 0.02655,0.004 0.03982,0.005 0.05267,0.005 0.105442,0.009 0.158181,0.0127 0.0038,3.4e-4 -0.0078,-6e-5 -0.01163,-1e-4 0.002,4.8e-4 0.0073,0.002 0.0055,0.001 -0.11551,-0.0216 -0.188165,-0.0896 -0.248136,-0.188 0.01127,0.0591 0.01563,0.11921 0.01943,0.179 0.0029,0.10286 0.0069,0.20622 0.002,0.30911 -0.0051,0.11377 -0.0169,0.22717 -0.02919,0.34037 -0.01617,0.14339 -0.02288,0.2876 -0.03375,0.43146 -0.01145,0.1432 -0.01526,0.28694 -0.01745,0.4306 -0.0014,0.11685 -0.0014,0.23354 -0.0014,0.35032 -9.61e-4,0.091 -0.0067,0.18232 -0.01545,0.27291 -0.0095,0.12213 -0.02361,0.24367 -0.03429,0.36561 -0.0014,0.0182 -0.0029,0.0356 -0.0038,0.0536 -0.04847,0.6407 0.857606,0.70925 0.906078,0.0685 v 0 c 9.62e-4,-0.0145 0.002,-0.0287 0.0035,-0.0431 0.01036,-0.12067 0.02472,-0.24083 0.03395,-0.36154 0.01054,-0.11849 0.01881,-0.23738 0.01928,-0.35629 -4.9e-5,-0.11213 -7.3e-5,-0.22431 9.61e-4,-0.33646 0.002,-0.1254 0.0049,-0.25078 0.01508,-0.37579 0.01018,-0.13412 0.01636,-0.26866 0.03111,-0.40243 0.01436,-0.13339 0.02808,-0.2671 0.03366,-0.40125 0.0047,-0.13557 0.0035,-0.27144 -0.0035,-0.40698 -0.01072,-0.15283 -0.0265,-0.30693 -0.08091,-0.45146 -0.01826,-0.0383 -0.03129,-0.0796 -0.05485,-0.11485 -0.103152,-0.15484 -0.23535,-0.23549 -0.414654,-0.26357 -0.06348,-0.007 -0.127123,-0.0127 -0.190735,-0.0187 -0.636064,-0.0909 -0.764568,0.80866 -0.128504,0.89953 z" />
    <path
       style="fill:#000000;stroke:#ffffff;stroke-width:0;stroke-dasharray:none"
       id="path4"
       d="m 84.339796,104.61542 c 0,0.0751 0,0.15011 0,0.22507 0,0.10723 0,0.2145 0,0.32176 0,0.1254 0,0.25087 0,0.37632 -0.0029,0.16229 0.0024,0.32416 0.0098,0.48616 0.0071,0.1452 0.0091,0.29073 0.01018,0.43616 9.61e-4,0.17355 9.61e-4,0.34696 9.61e-4,0.52044 0.0029,0.23577 -0.0058,0.47137 -0.01254,0.70698 -0.0049,0.19072 -0.0053,0.38143 -0.01363,0.57201 -0.008,0.14775 -0.01218,0.29577 -0.01436,0.44378 -0.0044,0.18962 0.0055,0.37909 0.01127,0.56857 0.0029,0.19961 0.0091,0.39901 0.01781,0.59847 0.0044,0.16174 0.01254,0.32326 0.0279,0.48428 0.01072,0.15502 0.04954,0.30515 0.09361,0.45355 0.045,0.14575 0.116891,0.281 0.204567,0.40521 0.08065,0.10123 0.181115,0.18712 0.297325,0.24531 0.02784,0.0145 0.05672,0.0258 0.08507,0.0385 0.14506,0.0613 0.30138,0.0842 0.456733,0.10087 0.186839,0.0145 0.373717,-0.004 0.559542,-0.0222 0.176699,-0.0145 0.352986,-0.0365 0.526938,-0.0714 0.150912,-0.038 0.303952,-0.0838 0.43335,-0.17355 0.03328,-0.0231 0.06355,-0.0502 0.09532,-0.0752 0.204125,-0.19095 0.276567,-0.45673 0.343009,-0.71823 0.04789,-0.19369 0.08409,-0.39011 0.114983,-0.58716 0.0364,-0.21543 0.05572,-0.43313 0.07715,-0.65041 0.03077,-0.23344 0.01948,-0.46843 0.01054,-0.7028 -0.0082,-0.19885 -0.01345,-0.39778 -0.01599,-0.59678 9.61e-4,-0.1866 -0.0044,-0.37299 -0.01127,-0.55943 -0.0069,-0.17991 -0.0089,-0.35996 -0.01018,-0.53998 -9.61e-4,-0.22448 -9.61e-4,-0.44894 -9.61e-4,-0.67341 3.8e-5,-0.20331 8.6e-5,-0.40662 1.15e-4,-0.60994 0.002,-0.12649 -0.0096,-0.25243 -0.01545,-0.37859 -0.0014,-0.10722 -0.01181,-0.21395 -0.01866,-0.32087 -0.0044,-0.0891 -0.0064,-0.17791 -0.01563,-0.26654 -0.0051,-0.0442 -0.0029,-0.0234 -0.0069,-0.0623 -0.06822,-0.63888 -0.971751,-0.5424 -0.90353,0.0965 v 0 c 0.0047,0.0431 0.0024,0.022 0.0069,0.0634 0.0085,0.0756 0.0065,0.15193 0.01236,0.22791 0.0067,0.10159 0.01672,0.20287 0.01781,0.30469 0.0053,0.11195 0.01581,0.22366 0.01454,0.33576 -2.9e-5,0.20332 -7.8e-5,0.40664 -1.16e-4,0.60997 -2.4e-5,0.22666 -2.55e-4,0.4533 9.61e-4,0.67994 0.0014,0.1894 0.0035,0.3788 0.0109,0.56808 0.0067,0.17882 0.01181,0.35767 0.01072,0.53671 0.0029,0.20654 0.008,0.41304 0.01654,0.61944 0.0073,0.19318 0.01972,0.38684 -0.0069,0.57927 -0.01972,0.20017 -0.03702,0.40078 -0.07064,0.59924 -0.02635,0.16919 -0.05732,0.33804 -0.0981,0.50449 -0.01363,0.0542 -0.02726,0.11013 -0.04245,0.16392 -0.0053,0.0189 -0.01127,0.0374 -0.0169,0.056 -0.0035,0.0109 -0.0095,0.0214 -0.01054,0.0329 -4.82e-4,0.005 0.0239,-0.007 0.01799,-0.004 0.0029,-4.9e-4 0.0064,-0.004 0.0091,-0.001 0.0014,9.6e-4 -9.61e-4,0.004 -0.0024,0.005 -0.01876,0.0187 -0.06337,0.0274 -0.08754,0.0349 -0.01454,0.004 -0.02924,0.009 -0.04385,0.0127 -0.141025,0.0322 -0.286833,0.0407 -0.430305,0.0565 -0.125087,0.0127 -0.250487,0.0262 -0.376394,0.0227 -0.06746,-0.007 -0.138063,-0.0109 -0.200499,-0.0354 0.002,0.002 0.0085,0.005 0.006,0.005 -0.02779,-0.004 -0.0085,-0.0127 -0.0085,0.004 0,0.002 -0.0038,-0.004 -0.0058,-0.004 0.0035,0.005 0.0067,0.0109 0.01018,0.0145 -0.0277,-0.0269 -0.05332,-0.0927 -0.06804,-0.12922 -0.02775,-0.093 -0.05554,-0.18598 -0.06028,-0.28381 -0.0149,-0.14412 -0.01948,-0.28916 -0.02433,-0.43394 -0.0084,-0.19591 -0.01454,-0.39175 -0.01726,-0.58782 -0.0055,-0.17592 -0.01508,-0.35184 -0.0109,-0.5279 0.002,-0.13885 0.006,-0.27758 0.01345,-0.41623 0.0085,-0.19538 0.0095,-0.39085 0.01418,-0.58636 0.0069,-0.24407 0.01581,-0.48814 0.01272,-0.73235 2.4e-5,-0.1761 1.93e-4,-0.35209 -9.61e-4,-0.52814 -0.0014,-0.15665 -0.0035,-0.3134 -0.01109,-0.46992 -0.0067,-0.1483 -0.01199,-0.29639 -0.0089,-0.44481 0,-0.1254 0,-0.25089 0,-0.37632 0,-0.10722 0,-0.21452 0,-0.32178 0,-0.075 0,-0.15011 0,-0.22506 0,-0.64251 -0.908666,-0.64251 -0.908666,0 z" />
    <path
       style="fill:#000000;stroke:#ffffff;stroke-width:0;stroke-dasharray:none"
       id="path5"
       d="m 86.749389,109.05822 c 0,0.0749 0,0.14975 0,0.22452 -0.0035,0.087 0.0073,0.17337 0.01399,0.25995 0.0044,0.0652 0.0058,0.13048 0.0065,0.19589 9.63e-4,0.10195 0.0109,0.20367 0.01599,0.30553 0.0047,0.11704 0.0047,0.234 0.0051,0.35102 2.69e-4,0.13012 1.64e-4,0.26029 1.11e-4,0.39045 -3.8e-5,0.0758 -6.7e-5,0.15139 -8.2e-5,0.22715 -5e-6,0.0402 0,0.0198 -5e-6,0.0611 -3.8e-5,0.64252 0.908628,0.64258 0.908666,6e-5 v 0 c 6e-6,-0.0413 6e-6,-0.0209 1.1e-5,-0.0611 9e-6,-0.0756 4.4e-5,-0.15121 7.6e-5,-0.22693 5.9e-5,-0.13122 1.59e-4,-0.2625 -1.1e-4,-0.39375 -4.24e-4,-0.13121 -4.8e-4,-0.26253 -0.0062,-0.39369 -0.0047,-0.0903 -0.0129,-0.18028 -0.0149,-0.27069 -9.62e-4,-0.0858 -0.0035,-0.17174 -0.0095,-0.25732 -0.0051,-0.0627 -0.01436,-0.12485 -0.01108,-0.18778 0,-0.0749 0,-0.14975 0,-0.22452 0,-0.64252 -0.908667,-0.64252 -0.908667,0 z" />
    <path
       style="fill:#000000;stroke:#ffffff;stroke-width:0;stroke-dasharray:none"
       id="path6"
       d="m 89.204625,110.76759 c -0.06453,-0.009 -0.136118,0.0145 -0.19946,-0.004 -0.0014,-4.6e-4 -0.002,-0.004 -0.0029,-0.004 -0.0109,-0.004 -0.02183,-0.005 -0.03278,-0.009 0.0029,-1.2e-4 0.01127,10e-4 0.0089,-3.9e-4 -0.0076,-0.005 -0.01832,-0.005 -0.02548,-0.0109 -0.0095,-0.007 0.02384,0.007 0.034,0.0145 0.02682,0.0183 0.03418,0.0325 0.0225,0.0127 0.002,0.001 0.0071,0.007 0.006,0.005 -0.02375,-0.0487 -0.02793,-0.0627 -0.04925,-0.11903 -0.01399,-0.0404 -0.0149,-0.0834 -0.01727,-0.12558 -0.01199,-0.10722 -0.03048,-0.21341 -0.03894,-0.321 -0.0051,-0.0765 -0.0055,-0.15338 -0.0056,-0.22998 -1.49e-4,-0.10123 4.9e-5,-0.20236 1.45e-4,-0.30355 4.09e-4,-0.084 -0.0014,-0.17283 0.0024,-0.25325 0.01943,-0.10722 0.01972,-0.21704 0.03562,-0.32463 0.01895,-0.12012 0.03202,-0.24078 0.03967,-0.36203 0.0053,-0.097 0.0055,-0.19433 0.0056,-0.29152 -3.8e-5,-0.11013 -1.93e-4,-0.22026 -2.75e-4,-0.33039 -8.1e-5,-0.1194 -8.5e-5,-0.23891 -9e-5,-0.35836 -6e-6,-0.13866 -6e-6,-0.27732 -6e-6,-0.41599 0.0035,-0.13866 -0.0189,-0.27594 -0.03226,-0.41353 -0.0082,-0.0923 -0.0085,-0.18513 -0.0093,-0.27776 -4.82e-4,-0.13594 -3.33e-4,-0.27182 -2.36e-4,-0.40772 0.0109,-0.054 -0.01599,-0.24184 0.0029,-0.28251 0.02072,-0.10758 0.01899,-0.21822 0.03544,-0.32621 0.02626,-0.10268 0.05301,-0.20643 0.09327,-0.30469 0.03549,-0.0847 0.07342,-0.16993 0.121507,-0.24843 0.01726,0.005 0.02034,-0.0247 0.03106,-0.0367 0.0071,-0.007 -0.01418,0.0164 -0.01799,0.0262 -0.0014,0.004 0.01163,-0.009 0.0098,-0.005 -0.008,0.0164 -0.03553,0.0233 0.0087,0.005 0.0883,-0.0269 0.17948,-0.0467 0.270979,-0.0614 0.09712,-0.0127 0.195164,-0.0145 0.292927,-0.0145 -0.01914,0.002 0.01018,0.005 0.0073,0.005 -0.04525,-0.007 -0.07131,-0.0164 -0.119199,-0.0463 0.04841,0.0556 0.0852,0.11904 0.122997,0.18199 0.04959,0.0665 0.06973,0.1472 0.09676,0.22453 0.03289,0.12194 0.03678,0.24905 0.04154,0.37457 0.0055,0.19311 0.0055,0.38633 0.0053,0.5795 -0.01345,0.13739 -0.02639,0.27458 -0.034,0.41239 -0.0078,0.17046 -0.008,0.34105 -0.0085,0.51163 -2.55e-4,0.14938 -4.4e-5,0.29882 4.3e-5,0.44825 7.3e-5,0.13448 1.06e-4,0.26893 1.26e-4,0.40339 -0.0058,0.1343 0.0076,0.26742 0.02115,0.40078 0.01472,0.14611 0.0169,0.29315 0.01908,0.4399 0.0038,0.14284 0.0035,0.28512 -0.0087,0.42751 -0.0089,0.16883 -0.03386,0.33594 -0.05141,0.50393 -0.01181,0.12194 -0.03231,0.24312 -0.05123,0.36423 -0.02124,0.12485 -0.03217,0.25108 -0.0541,0.37583 -0.01218,0.0858 -0.03862,0.16865 -0.06748,0.25006 -0.0326,0.0254 0.04789,-0.0622 -0.01799,0.0145 -0.0029,0.004 0.0064,-0.007 0.0056,-0.0109 -9.62e-4,-0.004 -0.02732,0.0289 0.0029,-0.007 -0.05677,0.0227 -0.119344,0.0558 -0.175227,0.084 -0.0402,0.0238 -0.02804,0.0109 -0.0093,0.002 0.02375,-0.009 0.02851,-0.005 -0.0129,-0.009 -0.05127,-0.002 -0.100717,-0.0164 -0.150839,-0.0273 -0.629025,-0.13103 -0.81433,0.75854 -0.18531,0.88957 v 0 c 0.09506,0.0198 0.19033,0.0418 0.287815,0.0451 0.172775,0.007 0.342379,-0.009 0.494734,-0.0976 0.09955,-0.0469 0.201268,-0.0974 0.294036,-0.15884 0.143315,-0.11486 0.259868,-0.25148 0.324679,-0.4264 0.04394,-0.12794 0.08371,-0.25779 0.104225,-0.3918 0.02284,-0.13103 0.03606,-0.26311 0.05715,-0.39442 0.02057,-0.13593 0.04385,-0.2716 0.0569,-0.40841 0.01799,-0.17428 0.04385,-0.34764 0.05316,-0.52268 0.01418,-0.1721 0.01636,-0.34395 0.01163,-0.51652 -0.0029,-0.17283 -0.0058,-0.34573 -0.02361,-0.51771 -0.01054,-0.10304 -0.02314,-0.20503 -0.01654,-0.30906 -1.5e-5,-0.13466 -5.3e-5,-0.2692 -1.26e-4,-0.40381 -8.5e-5,-0.14829 -2.92e-4,-0.2966 -4.7e-5,-0.4449 4.76e-4,-0.15502 4.8e-4,-0.31007 0.0071,-0.46496 0.0082,-0.15411 0.02779,-0.30717 0.03538,-0.46132 1.2e-4,-0.20543 1.08e-4,-0.41092 -0.006,-0.61629 -0.0089,-0.21532 -0.02375,-0.43202 -0.09174,-0.63825 -0.04736,-0.13539 -0.09341,-0.27353 -0.175682,-0.39269 -0.07231,-0.12031 -0.14864,-0.23842 -0.244757,-0.34153 -0.02995,-0.0284 -0.0569,-0.0603 -0.08983,-0.0852 -0.137663,-0.10395 -0.296066,-0.1512 -0.467128,-0.15483 -0.143533,0.002 -0.28743,0.005 -0.429618,0.0273 -0.173665,0.0294 -0.347815,0.0674 -0.510548,0.1363 -0.181872,0.0891 -0.321848,0.19932 -0.427865,0.37413 -0.07053,0.12285 -0.133937,0.25034 -0.185737,0.38221 -0.06226,0.16719 -0.116055,0.33838 -0.146077,0.51465 -0.01381,0.11722 -0.0199,0.23529 -0.03836,0.35209 -0.0093,0.12358 -0.0078,0.24716 -0.0073,0.37108 -10e-5,0.1383 -3.45e-4,0.27678 2.6e-4,0.41517 9.62e-4,0.11994 0.0024,0.24005 0.01345,0.35954 0.01072,0.10813 0.02928,0.21614 0.02793,0.32496 0,0.13866 -4e-6,0.27736 0,0.41604 1.1e-5,0.11958 1.5e-5,0.23935 9.3e-5,0.359 8.2e-5,0.1094 2.34e-4,0.21897 2.78e-4,0.32845 -1.06e-4,0.0789 -5.3e-5,0.15792 -0.0038,0.2368 -0.006,0.10122 -0.01846,0.20188 -0.034,0.30216 -0.01381,0.11522 -0.02057,0.23111 -0.03813,0.34592 -0.0091,0.11558 -0.0084,0.23103 -0.0076,0.34694 -9.7e-5,0.10268 -3.04e-4,0.20549 -1.4e-4,0.30822 4.32e-4,0.10014 0.0014,0.20027 0.0087,0.30016 0.0085,0.10231 0.02068,0.20439 0.03784,0.30571 0.0095,0.13702 0.02802,0.27354 0.07942,0.40206 0.01905,0.03 -0.0076,-0.0127 0.0301,0.0841 0.03596,0.0925 0.0876,0.17737 0.144588,0.25831 0.122452,0.1503 0.260575,0.24754 0.447588,0.30155 0.151893,0.0378 0.30448,0.0527 0.460891,0.0449 0.642528,0 0.642528,-0.90867 0,-0.90867 z" />
    <path
       style="fill:#000000;stroke:#ffffff;stroke-width:0;stroke-dasharray:none"
       id="path7"
       d="m 90.097371,111.66137 c 0.164615,0.10377 0.349227,0.16011 0.538762,0.1964 0.141771,0.0249 0.284853,0.0298 0.428018,0.02 0.188955,-0.0185 0.352594,-0.10668 0.503022,-0.21654 0.09901,-0.0705 0.176391,-0.16065 0.252266,-0.25412 0.08093,-0.0954 0.104406,-0.21063 0.129667,-0.32885 0.08543,-0.63683 -0.815177,-0.75762 -0.900603,-0.12085 v 0 c 0.02112,-0.0605 0.01527,-0.0518 0.05274,-0.10704 -0.02063,0.0271 -0.01617,0.0365 -0.09159,0.0932 -0.02577,0.0249 -0.02072,0.0254 -0.03933,0.0302 0.02428,0.004 0.01963,0.004 -0.02419,0.001 -0.04865,-0.001 -0.0973,-0.004 -0.145496,-0.0109 -0.06909,-0.0109 -0.135973,-0.0276 -0.199231,-0.0589 -0.534613,-0.3564 -1.038651,0.39966 -0.504042,0.75606 z" />
    <path
       style="fill:#000000;stroke:#ffffff;stroke-width:0;stroke-dasharray:none"
       id="path8"
       d="m 92.996553,111.65656 c 0,-0.10286 0,-0.2056 0,-0.3084 0.0058,-0.0887 0.01272,-0.17719 0.01654,-0.26586 9.61e-4,-0.10577 0.0062,-0.21108 0.01272,-0.3166 0.0076,-0.12176 0.01,-0.2439 0.01145,-0.36594 -0.0024,-0.0849 0.0069,-0.16937 0.01236,-0.25403 0.0067,-0.11521 0.0078,-0.23063 0.0087,-0.34602 3.07e-4,-0.11013 0.0095,-0.22026 0.01948,-0.32997 0.01436,-0.14793 0.01823,-0.29639 0.02092,-0.44481 0.0073,-0.12085 0.01399,-0.24156 0.01837,-0.36249 0.0035,-0.10413 0.0038,-0.20819 0.0038,-0.31231 0.002,-0.10358 -0.0035,-0.2075 0.002,-0.31103 0.0109,-0.16665 0.01363,-0.3337 0.01617,-0.50066 -0.002,-0.13921 0.0065,-0.27807 0.01436,-0.41699 0.0056,-0.0823 0.0038,-0.16483 0.01236,-0.24676 0.01,-0.094 0.02212,-0.18742 0.02971,-0.28156 0.0096,-0.11921 0.0047,-0.23889 0.01054,-0.35819 0.0084,-0.14993 0.0129,-0.30021 0.01617,-0.45041 0.002,-0.0943 0.0024,-0.1885 0.0024,-0.28276 -9.62e-4,-0.0812 -4.82e-4,-0.16211 0.0047,-0.24307 0.0084,-0.11031 0.01218,-0.22082 0.01436,-0.33139 0.0014,-0.0963 0.0014,-0.19249 0.0014,-0.28876 -1.8e-5,-0.0447 -4e-6,-0.0231 -3.8e-5,-0.0652 -4.71e-4,-0.64252 -0.909137,-0.64185 -0.908667,4.9e-4 v 0 c 3e-5,0.0416 2e-5,0.0202 3.5e-5,0.0643 -2e-5,0.0903 -1.11e-4,0.18083 -0.0014,0.27113 -0.002,0.0967 -0.0053,0.19319 -0.01254,0.28954 -0.0065,0.1005 -0.0084,0.20102 -0.0067,0.30175 -1e-4,0.088 -3.69e-4,0.17574 -0.0024,0.26371 -0.0035,0.14394 -0.0076,0.288 -0.01563,0.43184 -0.0044,0.10831 -0.0029,0.21683 -0.0085,0.32512 -0.0067,0.088 -0.01943,0.17537 -0.02808,0.26322 -0.0093,0.0951 -0.0109,0.19035 -0.01526,0.28574 -0.0085,0.15121 -0.01726,0.30259 -0.01563,0.45423 -0.0024,0.15865 -0.0051,0.31729 -0.01545,0.47561 -0.0044,0.11595 -0.0024,0.23197 -0.0029,0.34801 -1.9e-4,0.0938 -4.21e-4,0.18765 -0.0035,0.28145 -0.0044,0.12648 -0.01272,0.25272 -0.01885,0.37911 -0.0024,0.12631 -0.0049,0.25268 -0.01727,0.37848 -0.01218,0.13485 -0.02264,0.2702 -0.02317,0.40572 -9.61e-4,0.0985 -0.0014,0.19685 -0.0069,0.29514 -0.0064,0.10013 -0.01617,0.20007 -0.01418,0.30049 -0.0014,0.10686 -0.0035,0.21392 -0.0098,0.32069 -0.0069,0.11122 -0.0129,0.22224 -0.01363,0.33364 -0.0044,0.10177 -0.01472,0.20329 -0.01745,0.30521 0,0.10286 0,0.20559 0,0.3084 0,0.64252 0.908672,0.64252 0.908672,0 z" />
    <path
       style="fill:#000000;stroke:#ffffff;stroke-width:0;stroke-dasharray:none"
       id="path9"
       d="m 93.228456,106.03854 c 0.06806,-0.0809 0.142752,-0.14721 0.233157,-0.20116 0.108659,-0.0658 0.230051,-0.10287 0.34965,-0.14266 0.110749,-0.0244 0.221026,-0.052 0.332907,-0.0709 0.09345,-0.0127 0.188249,-0.0127 0.282425,-0.0127 0.0589,-4.6e-4 0.117818,-4e-4 0.176718,-3.7e-4 0.642523,4.2e-4 0.6431,-0.90825 4.81e-4,-0.90866 v 0 c -0.0623,-4e-5 -0.124596,-9e-5 -0.186893,4.1e-4 -0.143188,0.001 -0.287102,0.004 -0.428722,0.0269 -0.156218,0.0276 -0.311491,0.0629 -0.464604,0.10413 -0.187623,0.0627 -0.375014,0.12849 -0.543899,0.2342 -0.174537,0.11159 -0.329047,0.24353 -0.460877,0.40393 -0.401379,0.50173 0.308168,1.06937 0.709552,0.56764 z" />
    <path
       style="fill:#000000;stroke:#ffffff;stroke-width:0;stroke-dasharray:none"
       id="path33"
       d="m 93.915133,106.55123 c 0.01018,0.12612 0.02197,0.2521 0.03304,0.37815 0.01127,0.12921 0.01472,0.25895 0.0169,0.3886 0.0014,0.11285 9.62e-4,0.22566 9.62e-4,0.33849 -1.46e-4,0.12358 -1.98e-4,0.24729 -2.27e-4,0.37092 0.0044,0.16484 -0.0038,0.32903 -0.01272,0.49346 -0.01054,0.17956 -0.01399,0.35918 -0.01581,0.5389 -0.0014,0.2067 -0.0014,0.41341 -9.63e-4,0.62011 6.7e-5,0.19489 1.31e-4,0.38978 1.64e-4,0.58467 0.0038,0.17156 -0.0024,0.34259 -0.01254,0.51378 -0.01036,0.16029 -0.01381,0.32094 -0.01581,0.48156 -9.61e-4,0.1174 -0.0014,0.23496 -9.61e-4,0.35244 -4.8e-4,-2.2e-4 -9.61e-4,-4.6e-4 -0.002,-4.8e-4 -9.61e-4,0.007 -0.002,0.0145 -0.0029,0.0222 -0.07965,0.63757 0.821996,0.75023 0.901657,0.11267 v 0 c 0.0096,-0.0812 0.0053,-0.0365 0.01181,-0.13448 -4.8e-5,-0.11359 -9e-6,-0.22713 9.61e-4,-0.3407 0.002,-0.14629 0.0049,-0.29264 0.01436,-0.43868 0.01127,-0.18928 0.01799,-0.37852 0.01417,-0.56818 -2.9e-5,-0.19491 -9.6e-5,-0.3898 -1.63e-4,-0.58469 -3.3e-5,-0.20367 -1.78e-4,-0.40737 9.61e-4,-0.61104 0.0014,-0.16665 0.0047,-0.33316 0.01454,-0.49948 0.0096,-0.18046 0.01799,-0.36079 0.01399,-0.54155 3.3e-5,-0.12339 8.2e-5,-0.24695 2.25e-4,-0.37044 9.1e-5,-0.11831 3.8e-4,-0.23673 -9.61e-4,-0.35509 -0.0029,-0.15084 -0.0071,-0.30179 -0.0203,-0.45215 -0.01254,-0.14248 -0.02457,-0.28496 -0.03865,-0.42722 -0.09087,-0.63607 -0.990405,-0.50757 -0.89954,0.12848 z" />
    <path
       style="fill:#000000;stroke:#ffffff;stroke-width:0;stroke-dasharray:none"
       id="path34"
       d="m 95.044676,110.00513 c 0.114638,-0.10468 0.225899,-0.21303 0.338756,-0.31967 0.194027,-0.17447 0.373144,-0.36443 0.55716,-0.5492 0.123197,-0.12394 0.246655,-0.24729 0.37534,-0.36543 0.08491,-0.0811 0.175864,-0.15538 0.262956,-0.23396 0.01905,-0.0145 0.03576,-0.0314 0.05334,-0.0476 0.484514,-0.422 -0.112293,-1.10721 -0.596795,-0.68521 v 0 c -0.121126,0.1085 0.05279,-0.0454 -0.07128,0.0636 -0.08351,0.0821 -0.181207,0.14975 -0.262956,0.23398 -0.138517,0.1274 -0.271899,0.25984 -0.404441,0.39338 -0.177535,0.17828 -0.35017,0.36174 -0.537452,0.52999 -0.09457,0.0894 -0.191296,0.17865 -0.282265,0.27053 -0.50173,0.40138 0.06592,1.11094 0.567642,0.70956 z" />
    <path
       style="fill:#000000;stroke:#ffffff;stroke-width:0;stroke-dasharray:none"
       id="path35"
       d="m 94.296446,110.00575 c 0.08712,0.14684 0.184507,0.28661 0.282084,0.42645 0.119344,0.17701 0.248804,0.34673 0.376514,0.51767 0.125432,0.17047 0.26184,0.33223 0.397513,0.49446 0.101898,0.12431 0.20766,0.24452 0.321194,0.35832 0.06115,0.0618 0.116382,0.13085 0.187189,0.18236 0.02597,0.0189 0.05419,0.0345 0.08131,0.0516 -0.0038,-10e-4 -0.0073,-0.004 -0.01109,-0.005 0.525348,0.36993 1.048509,-0.37303 0.52316,-0.74295 v 0 c -0.02241,-0.0145 -0.04481,-0.0296 -0.06721,-0.0445 0.02337,0.0182 0.03304,0.0216 0.04981,0.0414 0.0024,0.004 -0.0062,-0.005 -0.0091,-0.009 -0.03736,-0.0391 -0.07415,-0.0785 -0.111548,-0.1174 -0.09479,-0.0945 -0.181916,-0.1953 -0.266807,-0.29887 -0.125051,-0.14938 -0.251025,-0.29833 -0.366599,-0.45537 -0.12187,-0.16319 -0.245613,-0.32497 -0.359383,-0.49395 -0.09025,-0.12921 -0.180316,-0.2583 -0.260526,-0.39414 -0.344953,-0.54208 -1.111561,-0.0542 -0.766609,0.48784 z" />
    <path
       style="fill:#000000;stroke:#ffffff;stroke-width:0;stroke-dasharray:none"
       id="path36"
       d="m 95.52084,105.76788 c 0.0871,0.10777 0.173283,0.2163 0.259387,0.32487 0.07587,0.10849 0.159199,0.21168 0.238236,0.3179 0.0877,0.10832 0.17332,0.21845 0.260955,0.32694 0.0744,0.10813 0.162434,0.20498 0.248866,0.30319 0.05067,0.0643 0.116473,0.11831 0.157636,0.18993 0.05536,0.0781 0.10277,0.1612 0.154455,0.24158 0.05132,0.0863 0.126051,0.15611 0.182076,0.23878 0.06891,0.0996 0.148549,0.1908 0.230352,0.27985 0.09977,0.10032 0.194317,0.2053 0.288066,0.31127 0.08258,0.10414 0.184896,0.18961 0.27615,0.28529 0.01636,0.0145 0.03269,0.0298 0.04903,0.0449 0.479462,0.42772 1.08437,-0.25032 0.604913,-0.67807 v 0 c -0.0035,-0.002 -0.0065,-0.005 -0.01,-0.007 -0.08147,-0.0807 -0.166558,-0.15756 -0.239643,-0.24638 -0.09775,-0.11049 -0.196216,-0.22013 -0.300249,-0.32477 -0.05912,-0.064 -0.116945,-0.12921 -0.165905,-0.20151 -0.05163,-0.0689 -0.108276,-0.13412 -0.157744,-0.20392 -0.05779,-0.072 -0.09603,-0.17156 -0.156219,-0.24421 -0.07035,-0.10214 -0.149094,-0.1969 -0.233273,-0.28791 -0.07793,-0.0874 -0.155491,-0.17464 -0.222084,-0.27156 -0.08054,-0.0994 -0.159326,-0.20033 -0.239754,-0.29968 -0.08487,-0.11304 -0.172647,-0.22408 -0.254723,-0.3393 -0.09068,-0.11376 -0.181007,-0.228 -0.272586,-0.34107 -0.411337,-0.49359 -1.109396,0.0881 -0.69806,0.58172 z" />
    <path
       style="fill:#000000;stroke:#ffffff;stroke-width:0;stroke-dasharray:none"
       id="path37"
       d="m 96.833117,110.583 c 0.192474,-0.11431 0.356549,-0.26671 0.520376,-0.41747 0.16545,-0.14594 0.312178,-0.31062 0.456284,-0.47706 0.111348,-0.12993 0.209477,-0.26945 0.324127,-0.39648 0.119236,-0.13231 0.235967,-0.26735 0.364596,-0.39068 0.09152,-0.0849 0.182822,-0.16992 0.272726,-0.2566 0.10984,-0.10686 0.217986,-0.21525 0.326348,-0.32351 0.179844,-0.18564 0.343264,-0.38591 0.498205,-0.59252 0.136118,-0.18693 0.28052,-0.36752 0.427851,-0.54568 0.14751,-0.19018 0.31486,-0.36363 0.48341,-0.53506 0.11102,-0.11667 0.21868,-0.23638 0.32986,-0.35289 0.0533,-0.0521 0.10089,-0.1094 0.14871,-0.16646 0.41212,-0.49294 -0.28501,-1.07578 -0.69713,-0.58282 v 0 c -0.035,0.042 -0.0689,0.0849 -0.10906,0.12212 -0.10824,0.1134 -0.213486,0.22971 -0.321084,0.3438 -0.186231,0.19026 -0.371498,0.38239 -0.535271,0.59267 -0.156454,0.18959 -0.310222,0.38143 -0.454988,0.58019 -0.128304,0.1721 -0.264233,0.3385 -0.412691,0.49384 -0.104515,0.1045 -0.208818,0.20903 -0.314694,0.31206 -0.08987,0.0867 -0.181406,0.17155 -0.27272,0.2566 -0.14397,0.13921 -0.277169,0.28902 -0.410549,0.43831 -0.117764,0.13194 -0.223138,0.27289 -0.335402,0.4093 -0.120962,0.14066 -0.244261,0.27969 -0.383893,0.40232 -0.129103,0.11886 -0.255944,0.24165 -0.409042,0.32999 -0.534613,0.35642 -0.03059,1.11249 0.504038,0.75607 z" />
    <circle
       id="path39"
       style="fill:#000000;stroke:#ffffff;stroke-width:0.264847;stroke-dasharray:none"
       cx="66.727539"
       cy="85.349182"
       r="0" />
    <path
       style="fill:#000000;fill-opacity:1;stroke:#ffffff;stroke-width:0;stroke-dasharray:none;stroke-opacity:1"
       id="path56"
       d="m 94.60428,100.73866 c 0.0064,-0.0454 0.01454,-0.09 0.0265,-0.13412 0.01672,-0.0607 0.03524,-0.12067 0.05436,-0.18064 0.02039,-0.0611 0.04149,-0.12177 0.06064,-0.18325 0.0129,-0.0505 0.02953,-0.099 0.05061,-0.14666 0.02221,-0.0411 0.04149,-0.0838 0.06571,-0.123575 0.01345,-0.01854 -0.0078,0.0109 -0.0064,0.0109 0.0058,0.0036 0.01708,-0.02163 0.01327,-0.01636 -0.01399,0.02072 -0.02279,0.02563 9.61e-4,0.0073 -0.0053,0.0036 -0.01163,0.0073 -0.01599,0.01272 -0.0024,0.0036 0.0065,-0.0036 0.01,-0.0055 9.61e-4,-3.82e-4 -0.0024,0.0018 -0.002,0.0018 0.06991,-0.03398 -0.02154,0.0073 0.02404,-0.0109 0.06048,-0.02508 0.121907,-0.0478 0.184536,-0.06688 0.05785,-0.01454 0.116764,-0.02599 0.175791,-0.03562 0.08829,-0.01454 0.177499,-0.02563 0.266743,-0.03362 0.0991,-0.0073 0.198639,-0.01272 0.297962,-0.0091 0.13859,0.0036 0.277029,0.0109 0.415312,0.02072 0.175791,0.01908 0.349824,0.0507 0.52469,0.07651 0.114129,0.01636 0.228667,0.02799 0.343024,0.0418 0.108477,0.01454 0.216636,0.03017 0.324333,0.04927 0.12387,0.024 0.24616,0.0551 0.368014,0.0876 0.12496,0.0331 0.248661,0.0703 0.37236,0.10777 0.101516,0.0318 0.203172,0.0632 0.304736,0.0949 0.09946,0.0313 0.198884,0.0625 0.298696,0.0925 0.08058,0.0273 0.160071,0.0576 0.240697,0.0849 0.112456,0.0387 0.226031,0.0734 0.341139,0.10339 0.08863,0.0234 0.178263,0.0429 0.267903,0.062 0.03275,0.0109 0.07329,0.0271 0.109385,0.0423 0.06133,0.0227 0.122089,0.0467 0.181679,0.0736 0.06497,0.0274 0.128959,0.0563 0.192519,0.0869 0.0408,0.0187 0.0823,0.0358 0.12359,0.0534 0.006,0.002 0.0213,0.009 0.0208,0.0109 -4.9e-4,0.001 -0.002,-9.7e-4 -0.004,-9.7e-4 0.0527,0.0354 0.10879,0.0651 0.16389,0.0965 0.006,0.007 0.0755,0.0422 0.0423,0.0294 -0.0245,-0.0234 -0.0227,-0.0202 -0.0392,-0.0398 -0.002,-0.004 -0.008,-0.0127 -0.007,-0.009 0.006,0.0182 0.0301,0.0605 0.0375,0.0756 0.0145,0.0273 0.0197,0.0565 0.0267,0.0861 0.008,0.0409 0.008,0.0831 0.009,0.12467 0.002,0.0914 10e-4,0.18268 10e-4,0.27403 -10e-4,0.0818 -0.0116,0.16265 -0.0236,0.24338 -0.0122,0.0709 -0.0272,0.14103 -0.0466,0.21016 -0.031,0.0914 -0.0562,0.18458 -0.088,0.27571 -0.0203,0.06 -0.0505,0.11558 -0.0774,0.17264 -0.0265,0.0538 -0.0465,0.1105 -0.0719,0.16483 -0.0235,0.0451 -0.0429,0.0923 -0.0679,0.13685 -0.0225,0.0473 -0.0473,0.0932 -0.073,0.13884 -0.002,0.004 -0.004,0.005 -0.005,0.009 -0.0151,0.0242 -0.0222,0.0371 -0.02191,0.0349 9.64e-4,-0.005 0.01344,-0.0182 0.0087,-0.0145 -0.0073,0.005 -0.01127,0.0145 -0.01708,0.0205 -0.006,0.007 -0.01199,0.0127 -0.01799,0.0204 -0.02381,0.0218 -0.04741,0.058 -0.07698,0.0725 0.0014,-10e-4 0.0035,-0.002 0.0038,-0.004 1.2e-4,-9.6e-4 -0.0024,-1.4e-4 -0.0035,2.9e-4 -0.0087,0.004 -0.01726,0.009 -0.02601,0.0127 -0.0065,0.004 -0.01345,0.005 -0.0201,0.007 -0.05581,0.0218 -0.01218,0.005 -0.06977,0.0269 -0.03386,0.007 -0.07918,0.0393 -0.115365,0.0345 -0.09826,0.004 -0.196643,0.004 -0.294959,0.004 -0.110966,-0.004 -0.222454,-0.0109 -0.331951,-0.0298 -0.07429,-0.0345 -0.150948,-0.064 -0.226343,-0.0961 -0.162579,-0.07 -0.330245,-0.12685 -0.497603,-0.18398 -0.109422,-0.0325 -0.21644,-0.0703 -0.32233,-0.11268 -0.192484,-0.0769 -0.390839,-0.13739 -0.587405,-0.20263 -0.132684,-0.0416 -0.261835,-0.0929 -0.390479,-0.14539 -0.09319,-0.0429 -0.190098,-0.0769 -0.284605,-0.11631 -0.130939,-0.0529 -0.264808,-0.0972 -0.399678,-0.13902 -0.165468,-0.0491 -0.331715,-0.0956 -0.499575,-0.13576 -0.13839,-0.0333 -0.277476,-0.0634 -0.415525,-0.0979 -0.07355,-0.0187 -0.147458,-0.0376 -0.21852,-0.0643 -0.06106,-0.0189 -0.116491,-0.0496 -0.172338,-0.08 -0.0826,-0.0454 -0.166086,-0.0894 -0.24878,-0.13466 -0.0712,-0.0391 -0.14168,-0.0792 -0.209615,-0.12377 -0.04998,-0.0302 -0.09036,-0.0709 -0.13054,-0.11248 -0.03313,-0.0347 -0.05992,-0.0745 -0.08073,-0.11777 -0.01763,-0.0296 -0.01881,-0.0594 -0.02139,-0.0923 0.0029,-0.0262 -0.01599,-0.0905 0.0044,-0.11178 0.160616,-0.62213 -0.719198,-0.84927 -0.879816,-0.22714 v 0 c -0.006,0.0249 -0.0129,0.0496 -0.01781,0.0747 -0.02313,0.11977 -0.02174,0.24193 -0.01018,0.36282 0.008,0.0676 0.0089,0.0885 0.02423,0.15702 0.02025,0.0905 0.05496,0.17701 0.09621,0.25967 0.06421,0.11922 0.13888,0.23219 0.234336,0.32909 0.08781,0.0896 0.180643,0.17373 0.287272,0.24087 0.08747,0.0563 0.176881,0.10921 0.268369,0.15882 0.08358,0.0454 0.167559,0.0901 0.250996,0.13595 0.09448,0.0511 0.190368,0.0998 0.292426,0.13411 0.101916,0.0369 0.205995,0.0674 0.311357,0.0929 0.140971,0.0351 0.282803,0.0665 0.424132,0.10013 0.149003,0.0356 0.296445,0.0771 0.443373,0.12031 0.109913,0.0338 0.219098,0.0694 0.325687,0.11267 0.09467,0.0378 0.18991,0.074 0.283016,0.11577 0.147476,0.0602 0.295686,0.11849 0.447606,0.16647 0.179389,0.0594 0.360434,0.11431 0.536276,0.18396 0.120235,0.048 0.241745,0.0916 0.365864,0.12867 0.146441,0.05 0.293398,0.0992 0.435697,0.16029 0.141989,0.0603 0.283534,0.12649 0.435594,0.15684 0.158308,0.0249 0.318252,0.0396 0.478577,0.0416 0.133684,-2e-5 0.26771,0.002 0.401023,-0.009 0.113511,-0.0145 0.224128,-0.0423 0.330066,-0.0869 0.11684,-0.0443 0.23405,-0.0907 0.33657,-0.16374 0.0797,-0.0609 0.15415,-0.12813 0.21958,-0.20444 0.0597,-0.0689 0.11686,-0.14012 0.16049,-0.22051 0.0286,-0.0507 0.0569,-0.10159 0.0816,-0.15429 0.0341,-0.0642 0.0653,-0.12976 0.0968,-0.1952 0.023,-0.0518 0.044,-0.1045 0.0679,-0.15593 0.0375,-0.0858 0.0843,-0.16773 0.11169,-0.25772 0.0375,-0.10922 0.0694,-0.22024 0.10493,-0.33015 0.0288,-0.10504 0.0523,-0.21123 0.0696,-0.31876 0.0185,-0.12467 0.0324,-0.25016 0.0335,-0.37641 6e-5,-0.1005 3.7e-4,-0.20096 -0.002,-0.30142 -0.003,-0.10323 -0.009,-0.207 -0.033,-0.30786 -0.0229,-0.0963 -0.0522,-0.19075 -0.0966,-0.2796 -0.0525,-0.10577 -0.10426,-0.2131 -0.19276,-0.2947 -0.0639,-0.0569 -0.13305,-0.10686 -0.20752,-0.14938 -0.051,-0.0287 -0.10239,-0.0565 -0.15104,-0.0891 -0.0667,-0.0376 -0.13581,-0.0696 -0.20702,-0.0978 -0.0705,-0.03399 -0.14192,-0.06561 -0.21368,-0.09669 -0.0671,-0.03017 -0.13487,-0.0587 -0.20421,-0.08342 -0.0885,-0.03671 -0.178434,-0.07178 -0.272027,-0.09305 -0.07689,-0.01636 -0.153674,-0.03308 -0.229639,-0.05307 -0.09446,-0.02381 -0.187098,-0.05379 -0.279331,-0.08505 -0.08936,-0.02908 -0.176209,-0.06561 -0.266144,-0.09305 -0.09699,-0.02926 -0.193575,-0.05961 -0.290223,-0.08996 -0.104242,-0.03253 -0.208583,-0.0647 -0.312774,-0.09741 -0.133138,-0.04016 -0.266327,-0.08033 -0.400794,-0.115764 -0.147041,-0.03925 -0.294723,-0.07633 -0.444335,-0.104497 -0.124397,-0.02181 -0.249251,-0.04071 -0.374538,-0.0567 -0.106278,-0.01272 -0.212632,-0.02453 -0.318719,-0.03853 -0.196705,-0.0289 -0.392419,-0.06524 -0.59052,-0.08378 -0.153183,-0.0109 -0.306539,-0.01835 -0.460055,-0.0229 -0.134447,-0.0018 -0.269018,0.0014 -0.403082,0.01272 -0.111693,0.0109 -0.223381,0.02308 -0.333941,0.04234 -0.09983,0.01636 -0.199576,0.03544 -0.296723,0.0647 -0.08563,0.02726 -0.170448,0.05688 -0.253359,0.09159 -0.08834,0.03616 -0.173192,0.07996 -0.249102,0.138481 -0.08558,0.06997 -0.163833,0.148476 -0.219391,0.245032 -0.04207,0.07306 -0.08078,0.148112 -0.1164,0.224477 -0.03284,0.07796 -0.06242,0.157199 -0.08434,0.239034 -0.01617,0.05816 -0.03991,0.113952 -0.05708,0.171742 -0.02332,0.0732 -0.04514,0.14684 -0.06611,0.22068 -0.02264,0.0847 -0.03871,0.17065 -0.05067,0.25744 -0.07969,0.63756 0.821957,0.75027 0.901651,0.11268 z" />
    <g
       inkscape:groupmode="layer"
       id="layer3"
       inkscape:label="qlogo"
       style="display:inline;stroke:#ffffff">
      <path
         style="display:inline;fill:#00a8f3;fill-opacity:1;stroke:#ffffff;stroke-width:0;stroke-dasharray:none;stroke-opacity:1"
         d="m 98.455904,106.00982 c -0.01914,-0.0362 -0.109113,-0.30918 -0.199938,-0.60688 -0.255759,-0.83844 -0.302432,-0.87297 -1.677814,-1.24146 -2.154696,-0.57726 -3.529503,-1.12224 -3.751749,-1.48729 -0.182686,-0.29998 -0.211514,-0.88088 -0.08636,-1.74099 0.06308,-0.43358 0.153765,-1.074333 0.201481,-1.423897 0.181734,-1.330836 0.501051,-1.877145 1.213436,-2.07598 0.472371,-0.13212 0.765703,-0.11849 2.171914,0.09995 1.152904,0.179007 4.831106,1.149229 5.304396,1.399185 0.47833,0.252646 0.66344,0.983851 0.52817,2.086292 -0.25528,2.08035 -0.53989,3.30929 -0.83565,3.6083 -0.25608,0.25888 -0.80339,0.41157 -1.26571,0.35309 -0.387614,-0.0491 -0.393288,-0.0465 -0.783676,0.3382 -0.688943,0.67905 -0.782924,0.75845 -0.818486,0.6915 z"
         id="path55"
         inkscape:label="mainbg" />
      <path
         id="path51"
         style="display:inline;fill:#000000;fill-opacity:1;stroke:#ffffff;stroke-width:0;stroke-dasharray:none;stroke-opacity:1"
         inkscape:label="path51"
         d="m 94.935585,96.572724 c -0.05823,-4.55e-4 -0.116945,8.18e-4 -0.174682,0.0055 -0.15909,0.01817 -0.312765,0.05361 -0.462994,0.102316 -0.164705,0.04307 -0.327384,0.09341 -0.486471,0.151202 -0.03351,0.01636 -0.06779,0.02944 -0.100481,0.04689 -0.111039,0.05888 -0.203264,0.144842 -0.298645,0.22446 -0.139771,0.129757 -0.269629,0.269529 -0.360626,0.440449 -0.07838,0.150657 -0.149313,0.306512 -0.216941,0.463003 -0.07019,0.186295 -0.127395,0.377188 -0.178444,0.570989 -0.03838,0.168103 -0.07377,0.337461 -0.09674,0.509944 -0.0096,0.0607 -0.0075,0.116491 0,0.169012 -0.0051,0.01636 -0.01072,0.03253 -0.01417,0.0498 l -9.4e-4,0.0055 c -0.01839,0.07869 -0.028,0.158108 -0.0338,0.238543 -0.0024,0.04198 -0.0073,0.08432 -0.01418,0.12576 -0.0082,0.04707 -0.01799,0.09377 -0.02724,0.140843 -0.01181,0.05961 -0.02306,0.118854 -0.03475,0.178463 -0.01581,0.07034 -0.02724,0.141202 -0.03193,0.213172 -0.0014,0.0571 0.0062,0.11431 9.4e-4,0.17101 -0.004,0.038 -0.01145,0.0752 -0.01877,0.11267 -0.0096,0.0494 -0.01932,0.0991 -0.02911,0.14848 -0.01272,0.0576 -0.02255,0.11595 -0.02911,0.17465 -3.39e-4,0.0433 -0.0025,0.0861 -0.0085,0.12866 -0.0058,0.0404 -0.01417,0.0802 -0.02161,0.12013 -0.01327,0.0682 -0.02697,0.13666 -0.04038,0.20472 -0.01599,0.0714 -0.01618,0.14484 -0.02348,0.21788 -0.0047,0.0792 -0.0051,0.15902 -0.0065,0.23855 -0.006,0.0738 0.0062,0.1492 0.0065,0.22351 0.0025,0.0761 0.01218,0.15193 0.02254,0.2282 0.006,0.0656 0.01888,0.13194 0.03099,0.19722 0.01508,0.086 0.05238,0.1692 0.08829,0.2517 0.02837,0.0647 0.06352,0.12649 0.100481,0.18875 0.0483,0.0756 0.09879,0.15066 0.155891,0.22259 0.05625,0.0712 0.12556,0.13448 0.199096,0.1944 0.08551,0.0645 0.183588,0.11522 0.28268,0.16338 0.08678,0.0436 0.177554,0.0809 0.265776,0.12212 0.08058,0.0365 0.161289,0.0729 0.243236,0.10704 0.07893,0.0369 0.162343,0.066 0.244174,0.0976 0.10655,0.04 0.214178,0.0776 0.322122,0.1145 0.09458,0.0334 0.187052,0.0707 0.280803,0.10613 0.104296,0.0371 0.211132,0.0683 0.317426,0.1005 0.106442,0.0302 0.212812,0.0607 0.318367,0.0931 0.07073,0.0231 0.142715,0.0431 0.215062,0.0611 0.06281,0.0164 0.03424,0.007 0.06573,0.0164 0.08191,0.0253 0.164705,0.0492 0.246992,0.0732 0.09052,0.0271 0.182789,0.0467 0.275166,0.0667 0.0587,0.0109 0.0874,0.0194 0.136173,0.0329 0.100626,0.0291 0.201805,0.0576 0.302401,0.0863 0.121199,0.0349 0.24306,0.0669 0.366263,0.0949 0.08283,0.0182 0.165723,0.0334 0.248871,0.0498 0.08274,0.0127 0.163415,0.0358 0.244174,0.0572 0.01726,0.0423 0.03346,0.0849 0.04791,0.12776 0.02708,0.0921 0.05861,0.1839 0.09579,0.27422 0.03526,0.10359 0.07195,0.20681 0.09861,0.3118 0.04096,0.12158 0.07824,0.24378 0.129595,0.36345 0.03991,0.0918 0.08074,0.18266 0.117399,0.27516 0.05361,0.13049 0.102916,0.26393 0.211306,0.37564 0.05081,0.0344 0.09236,0.0821 0.152147,0.10323 0.228754,0.0814 0.303059,0.0629 0.497741,-0.007 0.02966,-0.0109 0.08367,-0.056 0.108931,-0.078 6.2e-4,-6.6e-4 -0.0024,10e-4 -0.0038,9.4e-4 0.07834,-0.0616 0.155818,-0.12503 0.214122,-0.20098 0.04518,-0.0581 0.09506,-0.11286 0.145569,-0.1681 0.04382,-0.0513 0.08665,-0.10359 0.137118,-0.14939 0.05281,-0.0496 0.107132,-0.0981 0.158708,-0.14829 0.05637,-0.05 0.109367,-0.10323 0.169048,-0.1503 0.04253,-0.0402 0.07967,-0.082 0.125851,-0.11921 0.06951,-0.0616 0.137899,-0.12467 0.203792,-0.18877 0.02379,-0.0247 0.0458,-0.0507 0.06855,-0.0761 0.08142,0.0182 0.163268,0.0314 0.246988,0.03 0.0923,-9.6e-4 0.19011,-0.004 0.27705,-0.0253 0.1058,-0.0145 0.2089,-0.038 0.31085,-0.0629 0.0888,-0.0238 0.18033,-0.0422 0.26484,-0.0742 0.0581,-0.0187 0.13219,-0.0371 0.1944,-0.0592 0.0819,-0.0285 0.16476,-0.0585 0.23478,-0.10323 0.0902,-0.0545 0.17559,-0.11431 0.24605,-0.18595 0.0859,-0.0823 0.1658,-0.16883 0.22915,-0.26482 0.0694,-0.10995 0.13347,-0.22219 0.17845,-0.34184 0.0353,-0.094 0.07,-0.18808 0.10329,-0.28269 0.0338,-0.0976 0.0627,-0.19716 0.093,-0.29582 0.018,-0.0916 0.0365,-0.18339 0.0545,-0.27517 0.0155,-0.0785 0.0306,-0.15629 0.046,-0.23478 0.0144,-0.0729 0.0289,-0.14593 0.0432,-0.21882 0.0142,-0.0725 0.028,-0.14539 0.0423,-0.21788 0.016,-0.0814 0.0319,-0.16266 0.0479,-0.24418 0.0125,-0.064 0.0249,-0.12849 0.0376,-0.19253 0.0114,-0.058 0.0238,-0.11558 0.0348,-0.17374 0.0129,-0.0712 0.0258,-0.14248 0.0291,-0.21506 0.002,-0.0447 -0.001,-0.0896 0,-0.1343 0.0207,-0.0434 0.0381,-0.0914 0.047,-0.1483 0.0109,-0.0703 0.0217,-0.13957 0.031,-0.21037 0.0129,-0.10559 0.0222,-0.21263 0.0216,-0.32023 6.8e-4,-0.10686 0.0142,-0.21227 0.002,-0.32025 -0.009,-0.10305 -0.0109,-0.20589 -0.0235,-0.30899 -0.007,-0.14502 -0.0134,-0.29074 -0.031,-0.435738 -0.0207,-0.135573 -0.0416,-0.271201 -0.0836,-0.40383 -0.0462,-0.137573 -0.10261,-0.271601 -0.17374,-0.400069 -0.0679,-0.123942 -0.14217,-0.244958 -0.23384,-0.354071 -0.10635,-0.125033 -0.22394,-0.239016 -0.36439,-0.323995 -0.12683,-0.07942 -0.25422,-0.157563 -0.39349,-0.20943 -0.13042,-0.0498 -0.26229,-0.09614 -0.39444,-0.139935 -0.18333,-0.06506 -0.36782,-0.123215 -0.55221,-0.184059 -0.20439,-0.06324 -0.40783,-0.131939 -0.612315,-0.194401 -0.162706,-0.05325 -0.327271,-0.09577 -0.489289,-0.151202 -0.203752,-0.07288 -0.404628,-0.154656 -0.611377,-0.216009 -0.173701,-0.05343 -0.348707,-0.09795 -0.524036,-0.142661 -0.206188,-0.0567 -0.41185,-0.121034 -0.617951,-0.178462 -0.214962,-0.05179 -0.429374,-0.103407 -0.645185,-0.149385 -0.244859,-0.05034 -0.490806,-0.09323 -0.737221,-0.125942 -0.250172,-0.03998 -0.50075,-0.07742 -0.751308,-0.110857 -0.174719,-0.0229 -0.350279,-0.04471 -0.524976,-0.04598 z m -0.0085,0.91472 c 0.16207,-0.0073 0.327329,0.01636 0.490228,0.03671 0.241848,0.03253 0.483562,0.06706 0.725012,0.106132 0.233537,0.0309 0.46571,0.07124 0.697777,0.119217 0.205083,0.04507 0.40974,0.09214 0.614194,0.141753 0.194453,0.05634 0.389286,0.114855 0.584141,0.169012 0.168085,0.04525 0.336231,0.08651 0.503377,0.136118 0.191959,0.05797 0.378794,0.133938 0.568175,0.201925 0.172938,0.06015 0.348889,0.107768 0.523099,0.162469 0.207897,0.06415 0.414552,0.134847 0.622642,0.198163 0.17009,0.05725 0.3407,0.109767 0.50995,0.169921 0.12442,0.04162 0.24818,0.08414 0.37096,0.131575 0.0797,0.03071 0.1502,0.07869 0.22258,0.123942 0.0506,0.02835 0.0888,0.0696 0.1249,0.114492 0.0472,0.05725 0.084,0.120126 0.11833,0.185005 0.0422,0.07651 0.0778,0.156109 0.10424,0.238544 0.0222,0.08142 0.0334,0.164287 0.046,0.246994 0.0104,0.113584 0.0151,0.227184 0.0207,0.340894 0.0127,0.1154 0.0158,0.23122 0.0263,0.34655 0.003,0.0772 -0.004,0.1532 -0.005,0.23007 7.1e-4,0.0725 -0.006,0.14394 -0.0151,0.21507 -4.7e-4,0.004 -0.001,0.007 -0.002,0.0109 -0.0264,0.0389 -0.0467,0.0851 -0.0573,0.13903 -0.0185,0.0783 -0.014,0.16029 -0.0207,0.24041 -0.009,0.0671 -0.001,0.13558 -0.005,0.20285 -0.003,0.0445 -0.0116,0.0887 -0.0197,0.13249 -0.0105,0.0554 -0.0219,0.11067 -0.0329,0.16628 -0.0127,0.0642 -0.0249,0.12813 -0.0376,0.19253 -0.016,0.0814 -0.0319,0.16356 -0.0479,0.24511 -0.0142,0.0725 -0.029,0.14538 -0.0432,0.21788 -0.0144,0.0729 -0.0279,0.14502 -0.0423,0.21788 -0.0154,0.0785 -0.0316,0.15738 -0.047,0.23572 -0.018,0.0916 -0.0355,0.18339 -0.0535,0.27517 -0.03,0.0682 -0.0429,0.14211 -0.0695,0.21132 -0.0319,0.092 -0.0672,0.18213 -0.10143,0.27327 -0.03,0.0814 -0.075,0.15575 -0.12209,0.23009 -0.0371,0.0456 -0.0725,0.0956 -0.12021,0.1343 -0.0105,0.009 -0.0211,0.0209 -0.0319,0.0309 -0.004,0.004 -0.0935,0.0732 -0.0695,0.0498 -0.0269,0.0127 -0.0373,0.0189 -0.0394,0.0207 -0.008,0.002 -0.0154,0.004 -0.0404,0.0127 -0.0725,0.0238 -0.14587,0.0431 -0.21788,0.0676 -0.0599,0.0198 -0.12412,0.0331 -0.18594,0.0498 -0.06,0.009 -0.11573,0.0344 -0.1775,0.0367 -0.0469,0.009 -0.0912,0.0182 -0.13994,0.0164 0.01,-0.002 -0.0527,7.6e-4 -0.0404,-0.004 0.007,-0.002 0.0165,0.002 0.0244,9.5e-4 0.001,-2e-5 -0.003,-0.002 -0.004,-0.002 -0.007,-0.002 -0.0145,-0.004 -0.0216,-0.005 -0.0105,-0.004 -0.02065,-0.005 -0.03099,-0.009 -0.119,-0.0343 -0.223631,-0.0365 -0.310854,-0.0164 -0.133392,-0.0145 -0.276179,0.0193 -0.392557,0.12957 -0.06986,0.0629 -0.123488,0.13667 -0.189706,0.20193 -0.05387,0.0514 -0.108023,0.1025 -0.164342,0.15211 -0.05261,0.0396 -0.09161,0.0889 -0.139935,0.13157 -0.05572,0.0423 -0.102989,0.0916 -0.154964,0.13721 -0.05672,0.054 -0.114129,0.10741 -0.171866,0.16066 -0.02517,0.0229 -0.04832,0.0469 -0.07137,0.0714 -0.0251,-0.0705 -0.04663,-0.14157 -0.07044,-0.21225 -0.02366,-0.10413 -0.06681,-0.20619 -0.09861,-0.30898 -0.02899,-0.082 -0.06553,-0.16284 -0.0864,-0.24605 -0.02999,-0.0943 -0.06584,-0.18761 -0.10706,-0.27987 -0.01254,-0.0305 -0.0277,-0.0612 -0.04038,-0.092 -0.06477,-0.15229 -0.187951,-0.24092 -0.322124,-0.27703 -0.03993,-0.0182 -0.0844,-0.0329 -0.134302,-0.0442 -0.07278,-0.0164 -0.03645,-0.007 -0.108004,-0.0254 -0.105896,-0.0263 -0.211311,-0.0556 -0.319306,-0.0732 -0.07231,-0.0145 -0.144024,-0.0284 -0.215999,-0.0442 -0.101371,-0.0236 -0.20259,-0.0491 -0.302403,-0.078 -0.09652,-0.0282 -0.193272,-0.0569 -0.290192,-0.0836 -0.07395,-0.022 -0.148095,-0.0414 -0.224452,-0.0545 -0.0679,-0.0145 -0.135519,-0.0303 -0.201916,-0.0507 -0.08316,-0.0236 -0.166031,-0.0496 -0.248869,-0.0742 -0.08556,-0.0223 -0.172502,-0.0411 -0.256385,-0.0694 -0.109167,-0.0325 -0.217724,-0.0653 -0.327758,-0.0958 -0.08134,-0.0234 -0.163124,-0.0489 -0.243236,-0.076 -0.104787,-0.0394 -0.208841,-0.08 -0.31461,-0.1174 -0.0949,-0.0316 -0.188245,-0.0661 -0.28174,-0.10141 -0.07353,-0.0274 -0.14824,-0.0541 -0.218818,-0.0874 -0.0687,-0.0284 -0.135264,-0.0594 -0.202853,-0.0892 -0.08349,-0.0382 -0.16883,-0.0738 -0.250748,-0.11468 -0.02146,-0.009 -0.04434,-0.0196 -0.06481,-0.0309 -0.0082,-0.005 -0.01636,-0.009 -0.02442,-0.0164 -0.0031,-0.002 -0.0058,-0.005 -0.0095,-0.005 -0.01708,-0.0127 -0.03449,-0.0314 -0.04696,-0.046 -0.03486,-0.0433 -0.06431,-0.0883 -0.09485,-0.13339 -0.02126,-0.0354 -0.04285,-0.0705 -0.05823,-0.10795 -0.01581,-0.0354 -0.03313,-0.0709 -0.0432,-0.10704 -0.01054,-0.0553 -0.02143,-0.10977 -0.0263,-0.1652 -0.0071,-0.0522 -0.01399,-0.10486 -0.0169,-0.15683 -0.0014,-0.0676 -0.01072,-0.1354 -0.0075,-0.20285 0.0011,-0.064 0.0022,-0.12776 0.0047,-0.19159 0.0053,-0.054 0.0051,-0.1094 0.01508,-0.16247 0.01363,-0.0689 0.02786,-0.13666 0.04133,-0.20567 0.0098,-0.0511 0.01917,-0.10322 0.0263,-0.15502 0.0071,-0.054 0.0129,-0.10776 0.01218,-0.16246 -9.27e-4,0.004 -0.004,0.0164 -0.0027,0.0109 0.0047,-0.0389 0.0169,-0.0758 0.02254,-0.11449 0.01018,-0.0511 0.02021,-0.10214 0.03006,-0.15302 0.01127,-0.0596 0.02223,-0.11977 0.02724,-0.18028 0.0038,-0.0591 0.0075,-0.11886 0,-0.17846 0.0022,-0.0443 0.01363,-0.0896 0.02254,-0.13431 0.01163,-0.0596 0.02304,-0.11921 0.03475,-0.178458 0.01054,-0.05307 0.02079,-0.106678 0.03006,-0.159744 0.0095,-0.0587 0.01745,-0.117945 0.02066,-0.177554 0.0042,-0.05688 0.01018,-0.113402 0.02442,-0.169012 0.0095,-0.04816 0.0098,-0.09341 0.0029,-0.13521 0.0033,-0.01454 0.008,-0.02708 0.01036,-0.04216 0.01961,-0.152657 0.0523,-0.301206 0.0864,-0.449845 0.04349,-0.154474 0.08603,-0.309638 0.143678,-0.458296 0.05708,-0.125215 0.112402,-0.251447 0.176554,-0.372845 0.04914,-0.08687 0.11969,-0.155564 0.192524,-0.221624 0.05965,-0.03707 0.105296,-0.111766 0.178426,-0.12685 0.12018,-0.03744 0.239219,-0.07633 0.361568,-0.10795 0.110639,-0.0318 0.220615,-0.0687 0.337148,-0.07887 z m 3.057822,8.402436 c -0.0067,0.005 -0.01381,0.0127 -0.02066,0.0182 -0.008,0.007 0.0065,-0.007 0.02066,-0.0182 z" />
      <path
         style="display:inline;fill:#ffffff;fill-opacity:1;stroke:#ffffff;stroke-width:0;stroke-dasharray:none;stroke-opacity:1"
         d="m 99.153375,103.639 c -0.301712,-0.0571 -0.910154,-0.27278 -1.992949,-0.70664 -0.215995,-0.0865 -0.520347,-0.19083 -0.69452,-0.23823 -0.412357,-0.11213 -0.734947,-0.21265 -0.930356,-0.29034 -0.217403,-0.0863 -0.569061,-0.26622 -0.703282,-0.35961 -0.197781,-0.13757 -0.411992,-0.46971 -0.575554,-0.89239 -0.114946,-0.29704 -0.131339,-0.44308 -0.08532,-0.76024 0.01581,-0.10923 0.02408,-0.2114 0.01825,-0.22713 -0.0058,-0.0145 0.02317,-0.1 0.06437,-0.187244 0.0412,-0.08723 0.105987,-0.239398 0.143988,-0.337988 0.107804,-0.27967 0.254919,-0.427965 0.499369,-0.503366 0.190813,-0.05888 1.248866,-0.156836 1.690528,-0.156473 0.263566,1.82e-4 0.640482,0.03635 0.910684,0.0876 0.289845,0.05488 1.432062,0.376243 1.722413,0.484629 0.513922,0.191856 0.727559,0.319015 0.982124,0.584522 0.18011,0.18781 0.26156,0.33217 0.3632,0.64347 0.0842,0.25786 0.13494,0.50305 0.14871,0.71841 0.01,0.1552 0.005,0.2019 -0.0484,0.42235 -0.0723,0.30091 -0.16097,0.56224 -0.33562,0.98952 -0.17136,0.41917 -0.22498,0.5229 -0.31936,0.618 -0.07631,0.0769 -0.08127,0.0787 -0.29686,0.10904 -0.256782,0.036 -0.380007,0.0365 -0.561442,0.002 z"
         id="path61"
         sodipodi:nodetypes="csccssscsssscsssccssccccc"
         inkscape:label="facebg" />
      <path
         style="display:inline;fill:#000000;fill-opacity:1;stroke:#ffffff;stroke-width:0;stroke-dasharray:none;stroke-opacity:1"
         id="path58"
         d="m 94.591624,100.01658 c 0.03904,-0.09614 0.07291,-0.194314 0.114783,-0.28927 0.0227,-0.04634 0.04207,-0.09486 0.06899,-0.139026 3.54e-4,-4.91e-4 0.0014,9.63e-4 0.002,2.54e-4 0.0055,-0.0073 0.01018,-0.01454 0.01526,-0.02108 0.03073,-0.0378 0.0613,-0.07651 0.09777,-0.10904 0.03847,-0.02853 0.07789,-0.05634 0.119272,-0.08069 0.04847,-0.0249 0.100444,-0.04198 0.152801,-0.05652 0.06575,-0.02163 0.13501,-0.02799 0.203558,-0.03417 0.146169,-0.01454 0.292339,-0.02708 0.438518,-0.04071 0.137972,-0.01272 0.276074,-0.02344 0.414242,-0.0338 0.133501,-0.0109 0.267421,-0.01454 0.401315,-0.01817 0.134428,-0.0073 0.268302,0.0036 0.402067,0.01636 0.178172,0.01636 0.355286,0.0398 0.531195,0.07215 0.179535,0.0338 0.354839,0.08614 0.530575,0.135391 0.176173,0.0458 0.352236,0.09214 0.528563,0.137209 0.114401,0.02544 0.225032,0.06233 0.335086,0.101953 0.136791,0.04816 0.271674,0.101407 0.407245,0.153019 0.09621,0.0398 0.185655,0.09414 0.274058,0.148658 0.06808,0.04071 0.129649,0.09014 0.190762,0.140292 0.06124,0.048 0.112584,0.10632 0.164142,0.16429 0.04443,0.0458 0.08301,0.0961 0.112804,0.15247 0.0367,0.0629 0.0683,0.12813 0.0938,0.19617 0.0264,0.0729 0.0508,0.14666 0.0766,0.21975 0.032,0.0927 0.0527,0.18873 0.073,0.28452 0.0194,0.0981 0.0349,0.19651 0.0424,0.29623 4.9e-4,0.0823 -0.0144,0.1641 -0.0309,0.24454 -0.0226,0.0969 -0.049,0.1928 -0.0784,0.28781 -0.0305,0.0912 -0.0599,0.1828 -0.0927,0.27325 -0.0302,0.0785 -0.0604,0.15702 -0.095,0.23384 -0.0366,0.0851 -0.0739,0.16974 -0.108591,0.2555 -0.02294,0.0578 -0.04771,0.11486 -0.07518,0.17065 -0.0044,0.009 -0.0089,0.0182 -0.01309,0.026 -0.01272,0.0262 -0.0253,0.0523 -0.03866,0.0781 -0.01345,0.026 -0.01345,0.0347 -0.0129,0.0233 -3.56e-4,9.7e-4 -0.06159,0.0898 -0.03904,0.0563 0.01036,-0.0145 0.0014,-0.001 -0.02279,0.0262 0.0029,-0.004 0.0056,-0.007 0.0085,-0.0109 2.69e-4,-4.4e-4 9.61e-4,-0.001 9.61e-4,-0.001 -0.02995,0.0314 -0.02582,0.0273 -0.04983,0.0542 -0.02126,0.0202 -0.04736,0.0485 -0.06624,0.0651 -0.03298,0.0294 -0.002,0.002 -0.0014,9.6e-4 0.002,-0.004 -0.01109,0.009 -0.0084,0.005 0.01236,-0.009 0.0487,-0.0347 -0.02337,0.0145 -0.0078,0.005 0.01563,-0.0109 0.02337,-0.0164 0.0866,-0.0376 -0.06219,0.0164 0.01127,-0.009 -0.08976,0.0127 -0.179317,0.0285 -0.269346,0.0402 -0.07605,0.009 -0.152583,0.0127 -0.229124,0.0145 -0.06824,-0.004 -0.136336,-0.0109 -0.204,-0.0207 -0.09074,-0.0145 -0.179025,-0.04 -0.267373,-0.0647 -0.113911,-0.0333 -0.228538,-0.0647 -0.340707,-0.10341 -0.134574,-0.0523 -0.269918,-0.10286 -0.405577,-0.15229 -0.16456,-0.0563 -0.32804,-0.1154 -0.490314,-0.17792 -0.129339,-0.0462 -0.25592,-0.0996 -0.384328,-0.1483 -0.101044,-0.0409 -0.202831,-0.0792 -0.306768,-0.11213 -0.13621,-0.0398 -0.275145,-0.0689 -0.412448,-0.10467 -0.127141,-0.0367 -0.253949,-0.0745 -0.380896,-0.11177 -0.089,-0.0256 -0.176463,-0.0562 -0.263006,-0.0891 -0.09403,-0.0325 -0.182334,-0.0783 -0.272466,-0.11994 -0.113584,-0.0482 -0.221917,-0.10668 -0.328398,-0.16865 -0.07924,-0.0451 -0.143679,-0.10904 -0.203231,-0.17719 -0.06184,-0.0736 -0.113111,-0.15538 -0.162906,-0.23746 -0.04333,-0.0671 -0.08018,-0.13702 -0.113566,-0.20941 -0.03515,-0.0956 -0.08331,-0.18604 -0.116818,-0.28223 -0.02679,-0.0698 -0.04409,-0.14248 -0.05176,-0.21674 -0.01072,-0.0939 0.0014,-0.18782 0.01436,-0.28085 0.01218,-0.07 0.0058,-0.0331 0.01914,-0.11031 0.10924,-0.633172 -0.786207,-0.787663 -0.895444,-0.15447 v 0 c -0.01563,0.0905 -0.0075,0.0423 -0.02437,0.14448 -0.02226,0.1701 -0.03722,0.34198 -0.01527,0.51319 0.01894,0.14266 0.0486,0.28354 0.100644,0.41826 0.04452,0.11831 0.09735,0.2332 0.14506,0.35035 0.04811,0.10359 0.101444,0.20412 0.162397,0.30082 0.07902,0.12922 0.16187,0.25685 0.262071,0.37085 0.124706,0.13739 0.261204,0.26406 0.423578,0.35645 0.131611,0.0763 0.26548,0.14848 0.405369,0.2086 0.109058,0.0498 0.216056,0.10467 0.329672,0.14393 0.108295,0.0409 0.217622,0.079 0.328883,0.11122 0.136137,0.04 0.271996,0.0809 0.408543,0.1194 0.122416,0.0318 0.245895,0.0591 0.367989,0.092 0.08783,0.0274 0.173065,0.0612 0.258518,0.0954 0.126632,0.0478 0.25117,0.10086 0.378745,0.14611 0.167286,0.0645 0.33572,0.12558 0.505407,0.18359 0.142097,0.052 0.28357,0.1054 0.424931,0.1592 0.128722,0.0433 0.25906,0.0816 0.389717,0.11867 0.12765,0.0354 0.255728,0.0705 0.387133,0.0894 0.115092,0.0145 0.230801,0.0287 0.347082,0.0289 0.10964,-0.002 0.219247,-0.007 0.328127,-0.0218 0.103025,-0.0145 0.205659,-0.0303 0.308366,-0.0462 0.02708,-0.005 0.05434,-0.0109 0.08114,-0.0164 0.07006,-0.0182 0.136534,-0.0493 0.201224,-0.0803 0.0561,-0.0349 0.10604,-0.0647 0.16799,-0.12122 0.047,-0.0429 0.0912,-0.0887 0.13527,-0.13467 0.0198,-0.0223 0.0593,-0.0632 0.088,-0.0974 0.041,-0.0521 0.0813,-0.10504 0.11415,-0.16283 0.0372,-0.0641 0.0707,-0.1303 0.10273,-0.1972 0.0373,-0.0765 0.0715,-0.15465 0.10313,-0.23367 0.0286,-0.0743 0.0631,-0.1463 0.0935,-0.21981 0.0436,-0.0974 0.0827,-0.1968 0.12043,-0.2967 0.0375,-0.10413 0.0719,-0.2093 0.10654,-0.31445 0.0387,-0.12558 0.0735,-0.2525 0.10177,-0.38091 0.0308,-0.16138 0.0564,-0.32518 0.0451,-0.49014 -0.0113,-0.13939 -0.0314,-0.27743 -0.0595,-0.41446 -0.0286,-0.13412 -0.0593,-0.26802 -0.10483,-0.39751 -0.0282,-0.08 -0.0548,-0.16047 -0.084,-0.23996 -0.0424,-0.11085 -0.0928,-0.21811 -0.15236,-0.320916 -0.0641,-0.111039 -0.1365,-0.217026 -0.22553,-0.309928 -0.0832,-0.09323 -0.16876,-0.184532 -0.26675,-0.262605 -0.093,-0.07596 -0.18793,-0.149567 -0.29095,-0.211683 -0.137137,-0.08396 -0.276732,-0.16556 -0.427046,-0.223896 -0.140589,-0.05343 -0.280473,-0.108495 -0.422296,-0.158472 -0.136954,-0.04925 -0.275072,-0.0945 -0.417053,-0.127214 -0.169794,-0.04343 -0.339299,-0.08814 -0.509014,-0.131938 -0.203029,-0.05688 -0.405782,-0.11631 -0.613404,-0.154474 -0.20338,-0.03653 -0.407946,-0.06524 -0.613869,-0.08323 -0.165595,-0.01454 -0.331504,-0.02617 -0.497864,-0.01926 -0.151148,0.0036 -0.302302,0.0073 -0.453006,0.01981 -0.143388,0.0109 -0.286699,0.02199 -0.429893,0.03507 -0.147222,0.01272 -0.294459,0.02708 -0.441672,0.04089 -0.125506,0.01272 -0.251391,0.02853 -0.372105,0.0667 -0.128595,0.03835 -0.255521,0.08414 -0.371264,0.153202 -0.0967,0.05997 -0.191978,0.123579 -0.27561,0.20127 -0.07595,0.07451 -0.14764,0.153383 -0.210026,0.239743 -0.07053,0.100862 -0.129158,0.208285 -0.17719,0.321686 -0.04169,0.09668 -0.07929,0.195055 -0.116637,0.293537 -0.253104,0.590578 0.582091,0.948518 0.835193,0.357938 z"
         inkscape:label="plateline" />
      <path
         style="display:inline;fill:#000000;fill-opacity:1;stroke:#ffffff;stroke-width:0;stroke-dasharray:none;stroke-opacity:1"
         id="path59"
         d="m 95.820152,101.3945 c 0.03135,-0.0758 0.07789,-0.1443 0.119035,-0.21507 0.02977,-0.0587 0.07678,-0.10449 0.119945,-0.1532 0.06482,-0.0703 0.125396,-0.14429 0.192421,-0.21252 0.05937,-0.0614 0.123052,-0.11849 0.186079,-0.1761 0.05507,-0.0496 0.112711,-0.0961 0.170357,-0.14266 0.01327,-0.009 0.01781,-0.0127 0.03371,-0.0247 0.04756,-0.038 0.03433,-0.0284 0.07598,-0.0658 0.002,-0.002 0.0084,-0.007 0.0062,-0.005 -0.0078,0.007 -0.01563,0.0127 -0.02337,0.0194 -0.24303,0.0876 -0.234605,0.13394 -0.501508,0.004 -0.04558,-0.0224 -0.07106,-0.0727 -0.105733,-0.10977 -0.0044,-0.004 -0.0069,-0.0196 -0.01054,-0.0145 -0.0044,0.005 0.0035,0.0145 0.0055,0.0216 0.0038,0.0145 0.0082,0.0303 0.01236,0.0456 0.0199,0.078 0.03289,0.15811 0.03198,0.2388 -0.0024,0.0976 -0.0064,0.19529 -0.0089,0.29296 -0.0024,0.1134 -0.0024,0.22676 -0.0029,0.34015 -9.4e-5,0.0907 -5.6e-5,0.18137 -1.8e-5,0.2722 0,0.009 5e-6,0.0193 9e-6,0.0289 2.51e-4,0.64252 0.908921,0.64218 0.908666,-3.6e-4 v 0 c 0,-0.009 -3e-6,-0.0193 -9e-6,-0.0289 -3.4e-5,-0.0901 -7.6e-5,-0.18028 1.8e-5,-0.27045 1.6e-4,-0.10595 4.9e-5,-0.21178 0.0024,-0.31764 0.0029,-0.11122 0.0085,-0.22231 0.0091,-0.33357 -0.0044,-0.15683 -0.02221,-0.31313 -0.06481,-0.46475 -0.03967,-0.141384 -0.09912,-0.346743 -0.231897,-0.426906 -0.278505,-0.168103 -0.301369,-0.105042 -0.565099,-0.02017 -0.01763,0.01272 -0.03558,0.02635 -0.05287,0.04016 -0.03269,0.02635 -0.05045,0.0507 -0.08929,0.07324 -0.07218,0.05834 -0.144079,0.116854 -0.212881,0.179189 -0.07562,0.06924 -0.151602,0.137937 -0.222887,0.211737 -0.07707,0.0792 -0.148749,0.1632 -0.222882,0.24529 -0.08282,0.0936 -0.165886,0.18784 -0.225075,0.29895 -0.05946,0.10268 -0.124379,0.20287 -0.168485,0.31349 -0.253103,0.59058 0.582096,0.94852 0.8352,0.35794 z"
         inkscape:label="eye1" />
      <path
         style="display:inline;fill:#000000;fill-opacity:1;stroke:#ffffff;stroke-width:0;stroke-dasharray:none;stroke-opacity:1"
         id="path60"
         d="m 98.123249,102.13822 c 0.03135,-0.0383 0.06286,-0.0763 0.09777,-0.11158 0.07008,-0.0625 0.145151,-0.11922 0.219729,-0.1761 0.08278,-0.0634 0.169139,-0.12176 0.255214,-0.18046 0.072,-0.0474 0.148312,-0.0876 0.222069,-0.1323 0.05944,-0.0363 0.120217,-0.0705 0.180298,-0.10577 -0.162652,0.093 -0.293805,0.0458 -0.484413,-0.0433 -0.04923,-0.0229 -0.07095,-0.0823 -0.10466,-0.12486 -0.01163,-0.0145 -0.01545,-0.0391 -0.0078,-0.005 0.01726,0.11722 0.0263,0.23562 0.03847,0.35347 0.01236,0.14557 0.02179,0.29114 0.04154,0.43589 0.0169,0.10741 0.03246,0.2151 0.04905,0.3226 0.002,0.0127 0.0035,0.0242 0.0053,0.0363 0.09374,0.63565 0.992689,0.50308 0.898943,-0.13266 v 0 c -0.002,-0.0145 -0.0044,-0.0284 -0.0062,-0.0423 -0.01599,-0.1034 -0.03091,-0.20684 -0.04721,-0.31014 -0.01963,-0.13358 -0.0237,-0.26875 -0.03755,-0.40294 -0.01727,-0.16756 -0.02688,-0.33704 -0.06624,-0.50128 -0.03024,-0.10504 -0.08091,-0.2716 -0.180334,-0.32594 -0.247204,-0.13502 -0.35744,-0.14666 -0.561021,-0.0423 -0.06304,0.0374 -0.12725,0.0727 -0.189579,0.1114 -0.0874,0.0533 -0.178717,0.10014 -0.262951,0.15866 -0.09944,0.068 -0.198991,0.13575 -0.29457,0.20901 -0.111184,0.0851 -0.223354,0.16992 -0.32308,0.26838 -0.08525,0.09 -0.167668,0.18381 -0.231662,0.29045 -0.318786,0.55787 0.470162,1.00869 0.788942,0.45082 z"
         inkscape:label="eye2" />
    </g>
  </g>
</svg>
