<?xml version="1.0" encoding="UTF-8" standalone="no"?>
<!-- Created with Inkscape (http://www.inkscape.org/) -->

<svg
   width="128mm"
   height="128mm"
   viewBox="0 0 128 128"
   version="1.1"
   id="svg5"
   inkscape:export-filename="quarky.svg"
   inkscape:export-xdpi="25.4"
   inkscape:export-ydpi="25.4"
   sodipodi:docname="quarkyheader.svg"
   xml:space="preserve"
   inkscape:version="1.3 (0e150ed6c4, 2023-07-21)"
   xmlns:inkscape="http://www.inkscape.org/namespaces/inkscape"
   xmlns:sodipodi="http://sodipodi.sourceforge.net/DTD/sodipodi-0.dtd"
   xmlns="http://www.w3.org/2000/svg"
   xmlns:svg="http://www.w3.org/2000/svg"><sodipodi:namedview
     id="namedview7"
     pagecolor="#505050"
     bordercolor="#eeeeee"
     borderopacity="1"
     inkscape:showpageshadow="0"
     inkscape:pageopacity="0"
     inkscape:pagecheckerboard="0"
     inkscape:deskcolor="#505050"
     inkscape:document-units="mm"
     showgrid="false"
     inkscape:zoom="0.20980632"
     inkscape:cx="1556.1972"
     inkscape:cy="-486.16268"
     inkscape:window-width="1920"
     inkscape:window-height="1014"
     inkscape:window-x="0"
     inkscape:window-y="0"
     inkscape:window-maximized="1"
     inkscape:current-layer="layer1" /><defs
     id="defs2" /><g
     inkscape:label="Layer 1"
     inkscape:groupmode="layer"
     id="layer1"
     style="display:inline;font-variation-settings:normal;opacity:1;vector-effect:none;fill:#000000;fill-opacity:1;stroke:#000000;stroke-width:0.529;stroke-linecap:butt;stroke-linejoin:miter;stroke-miterlimit:4;stroke-dasharray:none;stroke-dashoffset:0;stroke-opacity:0;-inkscape-stroke:none;stop-color:#000000;stop-opacity:1"><path
       id="path980-3"
       style="font-variation-settings:normal;display:inline;vector-effect:none;fill:#333333;fill-opacity:1;stroke:#000000;stroke-width:0.529;stroke-linecap:butt;stroke-linejoin:miter;stroke-miterlimit:4;stroke-dasharray:none;stroke-dashoffset:0;stroke-opacity:0;-inkscape-stroke:none;stop-color:#000000;stop-opacity:1"
       d="m 30.140143,14.434448 c -0.82218,3.44e-4 -1.644451,0.01249 -2.466516,0.02429 -0.58518,0.0049 -1.170231,0.0044 -1.755448,0.0026 -0.08369,10e-5 -0.167456,2.1e-5 -0.251148,0 -1.395886,0.04364 -2.769186,0.264035 -4.165637,0.276986 -1.325407,0.0017 -2.627162,0.307556 -3.939811,0.463538 -1.355905,0.116718 -2.681542,0.432172 -4.001823,0.749825 -0.912624,0.309385 -1.875387,0.578384 -2.730066,1.037662 -0.463269,0.248947 -0.535967,0.334449 -0.9436117,0.655257 -0.49561,0.308923 -0.810784,0.793063 -1.169437,1.235584 -0.373849,0.46127 -0.752052,0.903346 -1.104326,1.383895 -0.568487,0.789083 -1.272061,1.506755 -1.712557,2.3828 -0.243725,0.484715 -0.341585,0.845288 -0.503328,1.347721 -0.353231,1.397227 -0.258351,2.85258 -0.233061,4.279843 0.07384,1.12229 -0.124564,2.228442 -0.307475,3.328995 -0.132655,1.301816 -0.448478,2.570009 -0.697631,3.850928 -0.188906,1.56556 -0.389737,3.133049 -0.481625,4.70824 -0.03843,1.179158 -0.210197,2.346147 -0.258899,3.525366 -0.05472,1.7836 0.09694,3.569032 0.268201,5.343343 0.172741,1.07583 0.187743,2.170444 0.331763,3.247864 0.125434,0.575064 0.168776,1.161175 0.1757,1.748214 -0.04045,1.356661 0.01864,2.708823 0.100769,4.062801 0.101812,1.478578 0.152982,2.958694 0.153479,4.440556 -0.06155,1.611844 0.03745,3.216448 0.160197,4.822444 0.08246,2.002038 0.260482,3.997923 0.42633,5.994466 0.157917,1.956349 0.247733,3.925203 0.49196,5.873544 0.153591,1.275338 0.351088,2.542539 0.602547,3.802352 0.305284,1.57703 0.632581,3.156699 1.125513,4.686535 0.364495,1.184769 0.970866,2.263855 1.539957,3.356901 0.649867,1.173953 1.4072427,2.289126 2.1781617,3.386874 0.785155,1.077356 1.789281,1.961599 2.703194,2.923852 0.524901,0.525158 0.977889,1.109414 1.537374,1.598869 0.942351,0.8116 2.060722,1.312977 3.232878,1.692407 1.673334,0.55582 3.438537,0.47613 5.175394,0.46457 1.084126,-0.0296 2.168572,-0.0367 3.253032,-0.0362 0.100499,-0.006 1.734633,-0.011 2.940389,0.0765 1.213632,0.12425 2.431439,0.1844 3.65094,0.1974 0.871479,-0.0822 1.75838,0.0443 2.63188,-0.0134 0.697571,-0.0461 1.396708,-0.15762 2.093929,-0.2191 0.196562,-0.0121 0.392969,-0.0264 0.589628,-0.0367 0.37556,-0.0196 0.576095,-0.0247 0.945162,-0.0253 0.158599,-2.6e-4 0.632706,-0.0208 0.47594,0.004 -0.05904,0.009 -0.119015,0.006 -0.1788,0.006 0.05282,-6.2e-4 0.0665,-6e-5 0.09973,0 1.242554,0.0111 2.485341,0.0148 3.727938,0.0165 1.133731,0.001 2.267095,-5.2e-4 3.400826,-5.2e-4 0.236588,1.6e-4 1.615327,-2.5e-4 0.222209,0 -0.144632,2e-5 0.288936,0 0.433565,0 0.174395,0 0.77604,-1e-5 0.943612,0 1.336825,4e-5 2.67378,1e-5 4.010608,0 0.562668,-0.0304 1.132686,0.0423 1.69447,0 0.457369,-0.0344 0.910798,-0.11225 1.366842,-0.16123 0.898821,-0.0962 1.801835,-0.1149 2.704744,-0.10697 0.03682,1.3e-4 0.04857,3.5e-4 0.07286,5.2e-4 0.15549,0.001 0.311145,0.003 0.466638,0.004 0.662358,0.005 1.324582,0.007 1.986959,0.008 1.386278,0.002 2.77264,8e-5 4.158919,-5.2e-4 0.112273,-2e-5 0.224663,1e-5 0.33693,0 0.135438,-2e-5 0.522946,-10e-6 0.663009,0 0.634014,4e-5 1.268193,5.1e-4 1.90221,5.2e-4 h 3.198771 c 0.840858,-0.14649 1.672879,-0.31764 2.50734,-0.48989 0.335865,-0.12926 0.702957,-0.0123 1.042314,-0.0532 0.312372,-0.0376 0.617345,-0.12276 0.926558,-0.18087 0.398653,-0.10804 0.829656,-0.003 1.229383,-0.0646 0.300558,-0.046 0.593386,-0.134257 0.892452,-0.189137 0.0919,-0.0236 0.253466,-0.0397 0.423746,-0.0512 0.718609,0.01 1.444437,0.004 2.143022,-0.17053 0.410354,0.12114 0.821015,0.25353 1.22008,0.410827 -0.01434,-0.0177 -0.06471,-0.0591 -0.04289,-0.0527 0.33945,0.10006 0.866279,0.51077 1.242818,0.45992 0.06372,-0.009 -0.111922,-0.063 -0.167948,-0.0946 0.334751,0.0649 0.651714,0.28726 1.000456,0.29507 0.03392,7.9e-4 -0.05268,-0.0428 -0.07906,-0.0641 0.05989,0.0176 0.119425,0.035 0.179317,0.0527 0.09858,0.0331 0.196654,0.0689 0.296106,0.0992 0.105915,0.0293 0.211894,0.0591 0.31781,0.0884 0.0031,-0.001 0.0063,-0.002 0.0093,-0.004 0.648483,1.29837 1.316684,2.58769 2.004528,3.86539 0.785781,1.4067 1.569715,2.814 2.352312,4.22248 0.671018,1.23929 1.159878,2.56879 1.76475,3.84215 0.723823,1.49736 1.686736,2.84729 2.625679,4.21163 0.415435,0.71092 0.832174,1.42315 1.431437,1.99781 1.228068,1.29974 1.520529,1.37447 3.778064,0.40721 0.349874,-0.1499 0.87676,-1.48743 1.009758,-1.78697 0.757237,-1.7364 1.372257,-3.52853 2.073267,-5.28754 0.85771,-1.88498 1.8296,-3.73008 2.9714,-5.45961 0.80594,-0.97099 1.53378,-1.99231 2.21795,-3.05149 0.3742,-0.59282 0.67303,-1.21581 0.94619,-1.85416 1.2807,-0.13018 2.56887,-0.15014 3.85507,-0.14986 0.95474,-0.068 1.89136,-0.17617 2.77399,-0.56844 1.76756,-0.78557 -0.28598,0.0493 0.97255,-0.45372 1.12845,-0.68218 2.29427,-1.318527 3.34863,-2.111497 0.70639,-0.543816 1.43468,-1.155322 1.91823,-1.918745 0.30507,-0.481645 0.43331,-0.860013 0.64491,-1.380795 0.63152,-1.318103 0.89083,-2.756725 1.21543,-4.168221 0.2171,-1.251351 0.53052,-2.48275 0.70539,-3.740857 0.31829,-1.899982 0.33078,-3.832526 0.34623,-5.753654 0.002,-1.507373 -0.0186,-3.01434 -0.0248,-4.521687 0.0523,-1.690243 -0.0701,-3.373285 -0.1757,-5.058606 -0.20348,-1.865015 -0.51312,-3.707477 -0.60358,-5.583639 -0.12891,-1.545902 -0.2325,-3.093053 -0.37155,-4.63796 -0.0746,-1.507608 -0.15339,-3.008375 -0.31626,-4.509285 -0.12124,-1.451472 -0.0739,-2.912964 -0.0687,-4.368209 0.0228,-2.236734 0.0397,-4.470095 -0.10284,-6.70295 -0.0433,-1.562734 -0.26855,-3.110193 -0.37569,-4.667932 -0.06,-1.045675 -0.0361,-2.093696 -0.0258,-3.140377 0.0887,-1.175429 -0.16101,-2.314554 -0.49506,-3.432865 -0.46726,-1.240284 -1.18227,-2.37561 -1.9079,-3.479375 -0.99217,-1.46456 -2.25022,-2.706125 -3.55895,-3.883483 -1.41177,-1.224872 -2.9381,-2.309126 -4.43953,-3.419947 -1.03301,-0.745258 -2.12352,-1.410378 -3.27577,-1.954402 -1.5096,-0.846702 -3.18548,-1.291177 -4.85861,-1.681552 -2.28466,-0.426841 -4.543448,-0.976511 -6.844547,-1.311031 -1.709337,-0.242653 -3.426007,-0.429556 -5.14904,-0.537435 -1.49191,-0.127991 -2.984309,-0.227653 -4.479313,-0.309541 -1.600186,-0.157978 -3.196579,-0.357778 -4.792989,-0.551388 -2.168027,-0.303149 -4.350138,-0.482749 -6.52725,-0.708484 -2.384665,-0.304613 -4.784082,-0.435992 -7.179923,-0.612365 -1.855946,-0.171172 -3.719182,-0.155442 -5.580538,-0.149862 -2.158079,0.05265 -4.31257,-0.08874 -6.466272,-0.220659 -2.504229,-0.17661 -5.003999,-0.394913 -7.509103,-0.560172 -2.634275,-0.168224 -5.260878,-0.432923 -7.889957,-0.666109 -2.625639,-0.213319 -5.25296,-0.428479 -7.88479,-0.549837 -0.821743,-0.03514 -1.64382,-0.04634 -2.466,-0.04599 z m 51.074402,85.071815 c 0.03609,0.004 0.14431,0.011 0.108004,0.0124 -0.135972,0.005 -0.172094,0.004 -0.285771,0.007 0.01128,-0.002 0.02222,-0.006 0.03359,-0.008 0.04737,-0.008 0.0962,-0.008 0.144177,-0.0114 z m -1.305863,0.0279 c -0.0085,-0.002 0.02701,-0.003 0.103352,10e-4 0.01608,8e-4 0.04009,0.007 0.05788,0.008 -0.100078,-0.002 -0.152694,-0.007 -0.16123,-0.009 z" /><path
       id="path1384"
       style="fill:#b3b3b3;fill-opacity:1;stroke:#000000;stroke-width:0.529;stroke-opacity:0;font-variation-settings:normal;vector-effect:none;stroke-linecap:butt;stroke-linejoin:miter;stroke-miterlimit:4;stroke-dasharray:none;stroke-dashoffset:0;-inkscape-stroke:none;stop-color:#000000;stop-opacity:1"
       d="m 69.687219,32.358232 c -0.93761,0.0138 -1.875348,0.108854 -2.807064,0.19637 -1.765896,0.174295 -3.537349,0.288907 -5.297867,0.516764 -1.389971,0.171767 -2.783162,0.315245 -4.175456,0.466639 -1.575584,0.235766 -3.131102,0.580568 -4.696354,0.875915 -1.359126,0.311695 -2.716673,0.650909 -3.936194,1.35599 -0.261604,0.160432 -0.529677,0.310545 -0.784448,0.481624 -1.330003,0.893105 -2.455557,2.050125 -3.753776,2.985348 -1.918735,1.321267 -3.985891,2.386949 -6.103504,3.354317 -0.686687,0.33649 -1.676587,0.801453 -2.332674,1.201477 -1.070331,0.652592 -1.976318,1.509077 -2.85564,2.393135 -1.322577,1.269337 -2.705253,2.486511 -3.786849,3.981153 -0.67135,0.931742 -1.303396,1.888435 -1.894458,2.870109 -0.308442,-0.236578 -0.537832,-0.376334 -0.586527,-0.323495 -0.704018,0.696679 -1.267921,1.477683 -1.537374,2.446879 -0.326513,0.938258 -0.576602,1.899873 -0.743107,2.879928 -0.09266,0.473673 -0.177261,0.85729 -0.227376,1.346171 -0.119474,1.165498 -0.01921,2.336563 0.0646,3.500045 0.08661,1.073257 0.07924,2.162529 0.443901,3.192053 0.223505,0.842516 0.561263,1.634537 0.939477,2.418974 0.47938,1.256115 0.963132,2.509357 1.373043,3.790983 0.173046,0.511808 0.427374,1.287566 0.628902,1.774569 0.448048,1.082729 1.000256,2.12507 1.440222,3.212207 0.41643,0.813179 0.87796,1.584847 1.337386,2.374015 0.322019,0.553133 0.746854,1.315228 1.115178,1.83658 0.167947,0.237728 0.365107,0.453444 0.54777,0.680062 0.958059,1.027701 2.052433,1.929205 3.208073,2.725932 1.255745,0.92333 2.43038,1.976191 3.843693,2.66237 0.448767,0.234308 1.449667,0.765162 1.881539,0.953947 1.411216,0.616885 2.918687,1.007911 4.413684,1.355989 1.70195,0.477975 3.437137,0.823792 5.160409,1.214913 2.086974,0.432223 4.204167,0.749651 6.333463,0.867647 0.312089,0.02389 1.891615,0.147413 2.168343,0.158647 1.658745,0.06735 3.324603,0.0014 4.982642,-0.05684 2.135712,-0.142351 4.25788,-0.407096 6.38669,-0.625285 2.151143,-0.180374 4.307185,-0.32381 6.444051,-0.641821 2.171522,-0.350255 4.307974,-0.849669 6.360335,-1.658297 1.730629,-0.579732 3.460072,-1.191546 5.289083,-1.374593 1.673543,-0.227391 3.315754,-0.587542 4.941301,-1.047481 0.291185,-0.101986 0.587414,-0.189985 0.873331,-0.305925 1.301383,-0.527725 2.43271,-1.377202 3.420463,-2.364196 1.308106,-1.250488 2.56969,-2.552819 3.68919,-3.977535 1.10275,-1.464356 2.29623,-2.89792 2.89749,-4.660181 0.695,-2.133644 1.07875,-4.114829 0.82373,-6.36757 -0.22778,-2.471194 -0.56714,-4.930572 -0.80357,-7.401099 -0.23326,-1.7089 -0.60408,-3.381043 -0.93173,-5.073075 -0.31445,-2.025575 -0.58584,-4.079666 -1.25884,-6.024439 -0.57312,-1.594584 -1.19564,-3.197867 -2.07791,-4.648295 -0.19283,-0.266328 -0.371271,-0.543435 -0.57826,-0.798917 -1.009619,-1.246167 -2.322821,-2.224661 -3.523816,-3.270602 -1.258414,-0.979983 -2.59603,-1.852569 -3.809587,-2.890779 -1.444973,-1.080567 -2.920031,-2.179748 -4.737178,-2.520777 -0.549314,-0.09628 -1.10204,-0.171872 -1.650029,-0.275435 -2.018558,-0.381479 -3.992835,-0.976581 -6.005318,-1.387512 -1.414109,-0.339391 -2.849901,-0.633793 -4.247286,-1.03973 -0.329154,-0.09562 -1.929566,-0.628527 -2.263944,-0.730188 -0.318903,-0.09696 -0.641832,-0.180161 -0.962732,-0.270268 -0.317617,-0.0847 -0.626169,-0.213913 -0.952397,-0.254248 -0.561353,-0.0694 -1.124152,-0.09045 -1.686719,-0.08216 z" /><path
       style="display:inline;fill:#666666;stroke:#000000;stroke-width:0.529;stroke-opacity:0"
       id="path994-9"
       d="m 44.499346,77.586763 c 0.01632,-0.247403 0.03474,-0.494678 0.04899,-0.742211 0.06478,-1.125361 0.07124,-1.823797 0.227124,-2.983193 0.259701,-1.931506 0.702138,-3.819176 1.207344,-5.69786 0.766222,-2.45803 1.870747,-4.784868 3.069068,-7.056324 0.906331,-1.592588 1.739141,-3.221784 2.428256,-4.919755 0.16582,-0.431284 0.408861,-0.804691 0.605825,-1.218488 -0.151035,1.132133 -2.159733,0.21382 -2.924228,0.427344 -0.203684,0.05689 0.250465,0.342008 0.354743,0.525989 0.45812,0.808276 1.096525,2.172245 1.472961,2.950797 1.4805,3.273917 2.696763,6.65928 3.6839,10.112174 0.433586,1.590633 0.822968,3.19405 1.124164,4.815157 0.08982,0.490956 0.249415,0.951736 0.427083,1.415545 0.100465,0.262035 3.806182,-1.158753 3.705717,-1.420786 v 0 c -0.09829,0.04992 -0.159912,-0.531606 -0.210278,-0.598739 C 59.405188,71.470007 58.993247,69.76268 58.534841,68.068889 57.50291,64.430479 56.22905,60.863695 54.679324,57.411673 54.309175,56.64059 53.464673,54.842101 53.018196,54.054413 52.821801,53.707925 52.741376,53.185 52.365363,53.0537 c -2.626807,-0.917247 -3.08516,-1.138129 -3.956158,0.421074 -0.258993,0.467162 -0.485267,0.950592 -0.68961,1.444038 -0.654881,1.596591 -1.480373,3.111748 -2.313961,4.621223 -1.303303,2.496388 -2.487004,5.062333 -3.297918,7.766341 -0.165097,0.630909 -0.348734,1.257257 -0.495286,1.892733 -0.63585,2.757102 -1.005751,5.559478 -1.081839,8.387654 0,0.280633 3.96875,0.280633 3.96875,0 z" /><path
       style="display:inline;font-variation-settings:normal;opacity:1;vector-effect:none;fill:#666666;fill-opacity:1;stroke:#000000;stroke-width:0.529;stroke-linecap:butt;stroke-linejoin:miter;stroke-miterlimit:4;stroke-dasharray:none;stroke-dashoffset:0;stroke-opacity:0;-inkscape-stroke:none;stop-color:#000000;stop-opacity:1;color:#000000"
       d="m 77.490433,72.600155 c 0.632994,-1.069811 1.08908,-2.228501 1.641917,-3.338703 0.28281,-0.567936 0.581342,-1.127935 0.865936,-1.694979 1.074647,-1.897139 1.766996,-3.969544 2.555878,-5.992217 0.126621,-0.340815 0.255314,-0.680866 0.379862,-1.022443 0.423214,-1.160674 0.694298,-2.421371 1.194514,-3.537773 0.21531,-0.308953 0.215884,-0.738645 0.414536,-1.052075 0.01151,-0.01818 0.03914,0.0471 0.05544,0.03306 0.1211,-0.104331 0.401828,-0.568429 0.456261,-0.653005 0.07448,-0.01799 0.475504,-0.880856 0.526875,-0.810374 0.03112,0.0427 -0.0039,0.141377 -0.05627,0.148201 -2.786414,0.362929 -2.170509,0.879369 -3.000835,0.08648 0.655735,2.142167 1.237064,4.304434 1.910548,6.441876 0.687745,2.017805 1.328679,4.052681 2.104885,6.038898 0.336965,0.964438 0.846375,1.847744 1.321482,2.746245 0.229307,0.592455 0.465741,1.181939 0.778457,1.736273 0.11539,0.255812 3.733112,-1.376085 3.61772,-1.631895 v 0 c -0.05052,-0.09311 -0.122828,-0.173371 -0.17221,-0.267086 -0.230534,-0.437475 -0.372673,-0.914043 -0.562697,-1.368978 -0.406688,-0.816443 -0.917165,-1.582169 -1.212093,-2.452748 -0.768633,-1.904024 -1.361374,-3.872535 -2.037318,-5.810166 -0.725086,-2.286254 -1.329603,-4.605057 -2.057281,-6.889763 -0.194551,-0.348562 -0.200676,-0.933103 -0.583653,-1.045686 -3.136571,-0.92207 -3.001433,-0.401656 -4.078377,1.209058 -0.155226,0.22592 -0.328369,0.440243 -0.468389,0.675892 -0.300083,0.505029 -0.484667,1.044964 -0.712478,1.582063 -0.597085,1.520973 -0.953164,3.125361 -1.597795,4.63088 -0.742545,1.926828 -1.424453,3.886192 -2.445359,5.690494 -0.817403,1.620044 -1.572299,3.270832 -2.434507,4.867013 -0.118899,0.254201 3.476053,1.93566 3.594949,1.681459 z"
       id="path1-9"
       transform="translate(0.16992941,-0.49193196)" /></g></svg>
