<?xml version="1.0" encoding="UTF-8" standalone="no"?>
<!-- Created with Inkscape (http://www.inkscape.org/) -->
<svg version="1.1" id="svg129" width="128" height="128" viewBox="0 0 128 128" sodipodi:docname="vukkydisabled.svg" inkscape:export-filename="spookyvukky.svg" inkscape:export-xdpi="96" inkscape:export-ydpi="96" inkscape:version="1.2.2 (b0a8486541, 2022-12-01)" xmlns:inkscape="http://www.inkscape.org/namespaces/inkscape" xmlns:sodipodi="http://sodipodi.sourceforge.net/DTD/sodipodi-0.dtd" xmlns="http://www.w3.org/2000/svg" xmlns:svg="http://www.w3.org/2000/svg">
  <defs id="defs133">
    <inkscape:path-effect effect="bspline" id="path-effect895" is_visible="true" lpeversion="1" weight="33.333333" steps="2" helper_size="0" apply_no_weight="true" apply_with_weight="true" only_selected="false"/>
    <inkscape:path-effect effect="bspline" id="path-effect879" is_visible="true" lpeversion="1" weight="33.333333" steps="2" helper_size="0" apply_no_weight="true" apply_with_weight="true" only_selected="false"/>
    <inkscape:path-effect effect="bspline" id="path-effect570" is_visible="true" lpeversion="1" weight="33.333333" steps="2" helper_size="0" apply_no_weight="true" apply_with_weight="true" only_selected="false"/>
    <inkscape:path-effect effect="bspline" id="path-effect566" is_visible="true" lpeversion="1" weight="33.333333" steps="2" helper_size="0" apply_no_weight="true" apply_with_weight="true" only_selected="false"/>
    <inkscape:path-effect effect="bspline" id="path-effect570-3" is_visible="true" lpeversion="1" weight="33.333333" steps="2" helper_size="0" apply_no_weight="true" apply_with_weight="true" only_selected="false"/>
  </defs>
  <sodipodi:namedview id="namedview131" pagecolor="#505050" bordercolor="#eeeeee" borderopacity="1" inkscape:showpageshadow="0" inkscape:pageopacity="0" inkscape:pagecheckerboard="0" inkscape:deskcolor="#505050" showgrid="false" inkscape:zoom="2.8867188" inkscape:cx="71.188092" inkscape:cy="88.85521" inkscape:window-width="1920" inkscape:window-height="1014" inkscape:window-x="0" inkscape:window-y="0" inkscape:window-maximized="1" inkscape:current-layer="g135"/>
  <g inkscape:groupmode="layer" inkscape:label="Image" id="g135">
    <path id="path783" style="display:inline;fill:#000000;stroke:#000000" inkscape:label="bodyoutline" d="M 69.685547 13.861328 C 66.660174 13.850258 63.449343 14.014934 60.429688 14.382812 C 54.390327 15.118619 49.115115 16.669697 44.414062 19.089844 C 39.713035 21.509965 35.586805 24.797821 33.177734 28.142578 C 30.768689 31.487335 30.076506 34.887164 29.736328 39.814453 C 29.39615 44.741742 29.407134 51.197251 29.248047 54.484375 C 29.240117 54.648231 29.199536 54.952563 29.185547 55.142578 C 29.005024 54.37607 28.967253 54.594397 28.878906 54.830078 C 28.766187 55.130778 28.560726 55.395736 27.142578 57.0625 C 25.72443 58.729264 23.093888 61.796555 21.150391 64.058594 C 19.206893 66.320632 17.950292 67.776979 16.791016 69.193359 C 15.631739 70.609739 14.570802 71.985983 13.835938 73.003906 C 13.101073 74.021829 12.691062 74.68154 12.394531 75.251953 C 12.098001 75.822366 11.915088 76.303338 11.804688 76.720703 C 11.694287 77.138068 11.65757 77.491429 11.662109 77.837891 C 11.666649 78.184352 11.712202 78.52537 11.806641 78.816406 C 11.901079 79.107443 12.044187 79.350143 12.199219 79.570312 C 12.35425 79.790482 12.521566 79.988014 12.757812 80.214844 C 12.994059 80.441674 13.298807 80.695886 13.636719 80.910156 C 13.97463 81.124427 14.344349 81.298186 14.703125 81.421875 C 15.061901 81.545564 15.409427 81.6206 15.769531 81.636719 C 16.129635 81.652837 16.503628 81.609802 16.947266 81.492188 C 17.390903 81.374573 17.904868 81.18063 18.445312 80.873047 C 18.985757 80.565463 19.551333 80.143183 20.052734 79.712891 C 20.554135 79.282598 20.991731 78.845577 21.519531 78.248047 C 22.047331 77.650517 22.664524 76.892746 23.308594 76.068359 C 23.952664 75.243973 24.623114 74.352829 25.927734 72.607422 C 26.433891 71.930253 27.279162 70.798325 27.939453 69.914062 C 28.014955 70.975916 28.098394 72.283886 28.207031 74.527344 C 28.453562 79.6184 28.786448 88.41646 28.957031 93.494141 C 29.127615 98.571821 29.136018 99.930501 29.634766 100.89648 C 30.133488 101.86259 31.122193 102.43743 32.785156 102.77539 C 34.448144 103.11336 36.786779 103.21487 38.539062 103.47266 C 40.291371 103.73045 41.456462 104.14305 42.166016 104.39453 C 42.875545 104.64601 43.12866 104.73598 43.423828 107.41406 C 43.718996 110.0924 44.057392 115.35998 44.253906 118.10156 C 44.45042 120.84339 44.505805 121.05936 44.787109 121.49023 C 45.068438 121.92111 45.574784 122.56764 46.220703 122.94336 C 46.866622 123.31907 47.650624 123.42539 48.453125 123.38672 C 49.255626 123.34802 50.077668 123.16386 50.669922 122.7832 C 51.262151 122.40255 51.62636 121.82417 51.785156 118.78516 C 51.943953 115.74589 51.896733 110.24477 51.837891 107.44922 C 51.779171 104.65367 51.707182 104.56511 54.660156 104.65039 C 57.61313 104.73569 63.591863 104.99598 66.660156 105.16211 C 69.728449 105.32824 69.887858 105.39859 69.941406 108.33789 C 69.994956 111.27719 69.943207 117.08517 69.998047 120.23438 C 70.052847 123.38333 70.212633 123.87475 70.660156 124.42578 C 71.107705 124.97681 71.842864 125.58838 72.621094 125.92578 C 73.399324 126.26318 74.220863 126.32709 74.894531 126.06641 C 75.568225 125.80572 76.09491 125.22022 76.505859 124.76758 C 76.916834 124.31493 77.212802 123.99357 77.462891 120.81445 C 77.712954 117.63558 77.916649 111.59657 77.984375 108.5 C 78.052105 105.40343 77.983278 105.24916 80.333984 105.2168 C 82.684672 105.1844 87.455447 105.2747 90.199219 105.02148 C 92.942965 104.76827 93.659754 104.17189 94.183594 103.58594 C 94.707409 102.99998 95.037931 102.42562 95.134766 98.560547 C 95.231596 94.695573 95.094256 87.540053 94.927734 82.501953 C 94.761241 77.463853 94.565573 74.541199 94.478516 71.587891 C 94.460212 70.966996 94.464233 70.401281 94.455078 69.791016 C 95.756499 71.697394 96.751959 73.155711 97.666016 74.427734 C 98.734065 75.91406 99.790981 77.296283 100.58398 78.269531 C 101.377 79.242779 101.90661 79.808162 102.38086 80.242188 C 102.85506 80.676233 103.27388 80.978703 103.64844 81.193359 C 104.02299 81.408016 104.35363 81.533878 104.68945 81.619141 C 105.02528 81.704421 105.36632 81.748324 105.67188 81.732422 C 105.97744 81.716522 106.24917 81.641602 106.50195 81.548828 C 106.75474 81.456058 106.98745 81.345279 107.26758 81.175781 C 107.54782 81.006283 107.87548 80.77682 108.16992 80.505859 C 108.46436 80.23492 108.72518 79.921921 108.9375 79.607422 C 109.14982 79.292902 109.3131 78.97651 109.42188 78.632812 C 109.53065 78.289136 109.58472 77.919913 109.58594 77.460938 C 109.58694 77.001983 109.53413 76.455141 109.37695 75.853516 C 109.21973 75.251869 108.95957 74.595646 108.67383 74 C 108.38798 73.404333 108.07728 72.867565 107.63672 72.203125 C 107.19616 71.538685 106.62571 70.74565 105.99609 69.910156 C 105.36647 69.074662 104.67638 68.198186 103.32812 66.486328 C 101.97999 64.77447 99.972994 62.227909 97.964844 59.681641 C 97.940353 59.6795 97.924843 59.677917 97.900391 59.675781 C 97.841468 59.604141 97.745346 59.484162 97.666016 59.357422 C 97.577871 59.2166 97.520632 59.074384 97.46875 58.986328 C 97.416868 58.898273 97.361908 58.86932 97.328125 58.828125 C 97.294342 58.78693 97.293732 58.729943 97.226562 58.628906 C 97.159393 58.527869 97.016638 58.384254 96.787109 58.126953 C 96.557581 57.869652 96.242772 57.497876 96.041016 57.226562 C 95.83926 56.955249 95.752828 56.781874 95.697266 56.689453 C 95.641703 56.597032 95.612515 56.596812 95.541016 56.53125 C 95.469516 56.465688 95.35784 56.32516 95.216797 56.181641 C 95.194859 56.159317 95.16959 56.13747 95.146484 56.115234 C 95.337302 53.809849 95.502582 51.641901 95.494141 50.832031 C 95.473481 48.850134 95.495941 44.805119 95.300781 41.714844 C 95.105592 38.624569 94.692852 36.489516 94.021484 33.785156 C 93.350142 31.080821 92.420483 27.806397 91.208984 25.007812 C 89.997528 22.209253 88.503797 19.885672 86.601562 18.097656 C 84.699353 16.309641 82.387388 15.056794 77.830078 14.390625 C 75.551423 14.057528 72.71092 13.872403 69.685547 13.861328 z M 64.349609 20.341797 C 64.832146 20.34117 65.314338 20.341913 65.796875 20.341797 C 66.300883 20.341701 66.806513 20.341813 67.310547 20.341797 C 67.763325 20.341785 68.215164 20.3418 68.667969 20.341797 L 69.947266 20.341797 L 71.263672 20.341797 L 72.691406 20.341797 C 73.135434 20.320637 73.574645 20.362548 74.013672 20.423828 C 74.555284 20.482838 75.071926 20.661201 75.583984 20.837891 C 76.029999 20.973224 76.476219 21.109787 76.929688 21.21875 C 77.316213 21.338582 77.705015 21.450995 78.087891 21.582031 C 78.517206 21.691744 78.897615 21.916902 79.267578 22.152344 C 79.712868 22.399124 80.113257 22.709798 80.513672 23.021484 C 80.924932 23.307301 81.311323 23.624092 81.703125 23.935547 C 82.095008 24.235955 82.423813 24.609026 82.763672 24.964844 C 83.210406 25.42264 83.6288 25.903977 84.019531 26.410156 C 84.455979 26.964304 84.793977 27.587921 85.15625 28.191406 C 85.461674 28.706015 85.742921 29.234119 86.001953 29.773438 C 86.233412 30.227503 86.379564 30.708938 86.517578 31.197266 C 86.65837 31.681071 86.816985 32.157229 86.923828 32.650391 C 87.063721 33.115756 87.121673 33.598421 87.220703 34.072266 C 87.311903 34.592535 87.411939 35.110221 87.511719 35.628906 C 87.585659 36.106516 87.713181 36.57358 87.800781 37.048828 C 87.846411 37.442494 87.945779 37.824556 88.011719 38.214844 C 88.085279 38.733858 88.112966 39.257959 88.134766 39.78125 C 88.130566 40.228745 88.202196 40.671513 88.25 41.115234 C 88.31093 41.717542 88.331956 42.322902 88.347656 42.927734 C 88.361886 43.587361 88.366041 44.246523 88.369141 44.90625 C 88.344691 45.473227 88.407084 46.034902 88.464844 46.597656 C 88.504774 47.013954 88.602049 47.422043 88.662109 47.835938 C 88.691759 48.254851 88.777993 48.666419 88.845703 49.080078 C 88.922833 49.594128 88.944873 50.112129 88.964844 50.630859 C 88.980304 51.067777 88.986434 51.50624 88.990234 51.943359 C 88.993334 52.370134 88.993541 52.795899 88.994141 53.222656 C 88.994651 53.712091 88.994058 54.201998 88.994141 54.691406 C 88.99421 55.164831 88.99413 55.637931 88.994141 56.111328 C 88.952001 56.671879 88.908571 57.235027 88.824219 57.791016 C 88.758919 58.233979 88.655237 58.668268 88.552734 59.103516 C 88.479864 59.492961 88.355202 59.868757 88.289062 60.259766 C 88.214583 60.750725 88.130722 61.239346 88.070312 61.732422 C 87.985873 62.339715 87.879821 62.942587 87.765625 63.544922 C 87.644264 64.039644 87.53866 64.539207 87.392578 65.027344 C 87.297928 65.321063 87.25103 65.625746 87.21875 65.931641 C 87.18519 66.28712 87.180228 66.643218 87.173828 67 C 87.167428 67.467262 87.165362 67.935046 87.164062 68.402344 C 87.162963 68.9084 87.164241 69.413838 87.164062 69.919922 C 87.163946 70.417383 87.162209 70.914648 87.162109 71.412109 C 87.139489 71.774344 87.175939 72.128709 87.224609 72.486328 C 87.297699 72.850409 87.278289 73.228067 87.345703 73.591797 C 87.435513 74.046237 87.483218 74.507296 87.517578 74.96875 C 87.565538 75.441612 87.532904 75.920611 87.583984 76.392578 C 87.654294 76.810305 87.662054 77.237998 87.738281 77.654297 C 87.798811 78.116376 87.938945 78.562544 88.064453 79.009766 C 88.193067 79.441245 88.264507 79.885192 88.310547 80.332031 C 88.352167 80.809575 88.356181 81.288589 88.363281 81.767578 C 88.368781 82.182972 88.369894 82.598247 88.371094 83.013672 C 88.372008 83.429194 88.372847 83.844217 88.373047 84.259766 C 88.352527 84.738817 88.396686 85.215177 88.441406 85.691406 C 88.491446 86.194853 88.526896 86.697822 88.550781 87.203125 C 88.568381 87.698618 88.587507 88.196221 88.560547 88.691406 C 88.516807 89.110735 88.468137 89.528669 88.4375 89.949219 C 88.42535 90.472715 88.35399 90.991863 88.296875 91.511719 C 88.250455 92.03781 88.138625 92.553653 88.078125 93.078125 C 88.048555 93.565455 87.962681 94.046586 87.894531 94.529297 C 87.840851 94.970414 87.824734 95.415589 87.808594 95.859375 C 87.810394 96.282423 87.784304 96.69871 87.689453 97.111328 C 87.567615 97.627854 87.240463 97.992825 86.794922 98.257812 C 86.425737 98.442552 86.016317 98.477893 85.611328 98.501953 C 85.171873 98.521733 84.732784 98.522891 84.292969 98.525391 C 83.752377 98.527691 83.210492 98.528797 82.669922 98.529297 C 82.231622 98.529651 81.793742 98.529236 81.355469 98.529297 C 80.865253 98.529347 80.374955 98.529288 79.884766 98.529297 C 79.378476 98.552647 78.876971 98.478027 78.375 98.425781 C 77.937292 98.379141 77.498325 98.356467 77.058594 98.341797 C 76.63045 98.329167 76.20171 98.325566 75.773438 98.322266 C 75.273874 98.319566 74.774934 98.318859 74.275391 98.318359 C 73.786479 98.31794 73.297479 98.316506 72.808594 98.316406 C 72.315086 98.316348 71.821633 98.316417 71.328125 98.316406 C 70.911915 98.316398 70.496288 98.316408 70.080078 98.316406 C 69.774163 98.312906 69.471068 98.381906 69.167969 98.419922 C 68.720896 98.467312 68.271371 98.481561 67.822266 98.494141 C 67.394454 98.505051 66.966988 98.507666 66.539062 98.509766 C 66.09455 98.511566 65.64962 98.511319 65.205078 98.511719 C 64.67848 98.561039 64.15285 98.615681 63.625 98.650391 C 62.995694 98.687081 62.364563 98.700748 61.734375 98.710938 C 61.167782 98.737497 60.605007 98.70824 60.041016 98.65625 C 59.560907 98.62759 59.08612 98.56012 58.611328 98.486328 C 58.236945 98.425608 57.858748 98.390527 57.480469 98.367188 C 57.071676 98.355438 56.666925 98.341373 56.261719 98.283203 C 55.920992 98.227253 55.578676 98.188803 55.234375 98.164062 C 54.789111 98.126793 54.347315 98.050419 53.902344 98.005859 C 53.346043 97.966069 52.790975 97.943389 52.236328 97.882812 C 51.747955 97.824143 51.258674 97.776507 50.767578 97.748047 C 50.244737 97.690537 49.723456 97.613029 49.199219 97.568359 C 48.578348 97.523269 47.956174 97.516312 47.333984 97.507812 C 46.576094 97.504813 45.820424 97.432572 45.064453 97.384766 C 44.379541 97.333866 43.693966 97.265872 43.013672 97.169922 C 42.487598 97.073512 41.958359 97.002558 41.425781 96.955078 C 40.916623 96.914858 40.405041 96.905484 39.894531 96.896484 C 39.428996 96.889384 38.963626 96.886786 38.498047 96.884766 C 38.14207 96.883466 37.78564 96.883112 37.429688 96.882812 C 36.823183 96.924732 36.320603 96.731854 35.873047 96.330078 C 35.561986 96.011782 35.408567 95.60469 35.267578 95.193359 C 35.139642 94.837234 35.077396 94.46438 35.035156 94.089844 C 34.983636 93.673383 35.059036 93.257793 35.097656 92.84375 C 35.131376 92.456175 35.141391 92.068428 35.150391 91.679688 C 35.158691 91.285898 35.160089 90.891882 35.162109 90.498047 C 35.163709 90.132571 35.165716 89.765843 35.166016 89.400391 C 35.166317 88.978681 35.165974 88.55645 35.166016 88.134766 C 35.166053 87.661896 35.166009 87.18964 35.166016 86.716797 C 35.166021 86.257041 35.166015 85.79762 35.166016 85.337891 C 35.187856 84.889606 35.146529 84.446918 35.099609 84.001953 C 35.047209 83.526393 35.012549 83.048081 34.988281 82.570312 C 34.915001 82.145652 34.862922 81.718328 34.826172 81.289062 C 34.788102 80.746193 34.771676 80.202194 34.759766 79.658203 C 34.773526 79.190539 34.706126 78.729308 34.65625 78.265625 C 34.60093 77.772677 34.576104 77.276725 34.558594 76.78125 C 34.566694 76.406183 34.517699 76.035504 34.474609 75.664062 C 34.432199 75.29838 34.413921 74.930216 34.400391 74.5625 C 34.371861 74.131195 34.400081 73.7038 34.449219 73.275391 C 34.518499 72.912844 34.598261 72.553977 34.644531 72.1875 C 34.667421 71.801365 34.752201 71.423079 34.806641 71.041016 C 34.855051 70.630626 34.952045 70.228496 35.015625 69.820312 C 35.095985 69.462002 35.182142 69.104262 35.232422 68.740234 C 35.288102 68.31938 35.363079 67.901007 35.445312 67.484375 C 35.547279 67.05234 35.585238 66.611695 35.611328 66.169922 C 35.677318 65.555412 35.749824 64.942008 35.802734 64.326172 C 35.838934 63.891926 35.856568 63.457 35.867188 63.021484 C 35.877227 62.523204 35.878959 62.023754 35.880859 61.525391 C 35.882259 61.097042 35.882413 60.668585 35.882812 60.240234 C 35.88306 59.858738 35.882796 59.477226 35.882812 59.095703 C 35.882848 58.700264 35.882812 58.305623 35.882812 57.910156 C 35.882816 57.518863 35.882812 57.127648 35.882812 56.736328 L 35.882812 55.603516 C 35.871923 55.230246 35.903407 54.854428 35.867188 54.482422 C 35.815198 54.021507 35.768098 53.560131 35.732422 53.097656 C 35.729322 52.779054 35.692226 52.472042 35.634766 52.160156 C 35.567776 51.81205 35.531242 51.458807 35.507812 51.105469 C 35.463403 50.614005 35.535708 50.125333 35.580078 49.636719 C 35.620248 49.187677 35.645569 48.737566 35.662109 48.287109 C 35.674239 47.936259 35.678641 47.583473 35.681641 47.232422 C 35.683041 47.015435 35.681366 47.122704 35.683594 46.910156 C 35.684314 46.771137 35.694881 46.643907 35.712891 46.523438 C 35.594973 46.253287 35.537914 45.903183 35.585938 45.466797 C 35.649517 44.888973 35.684058 44.308839 35.714844 43.728516 C 35.741074 43.232291 35.752466 42.735077 35.759766 42.238281 C 35.745196 41.708617 35.782813 41.183553 35.845703 40.658203 C 35.878093 40.207372 35.979234 39.766024 36.058594 39.322266 C 36.110144 38.983898 36.201626 38.654733 36.253906 38.316406 C 36.300086 37.974013 36.392006 37.639951 36.447266 37.298828 C 36.480236 36.933793 36.56246 36.577295 36.625 36.216797 C 36.66355 35.878985 36.743718 35.547962 36.798828 35.212891 C 36.850668 34.868067 36.856668 34.518264 36.892578 34.171875 C 36.928498 33.757091 37.030642 33.359953 37.179688 32.972656 C 37.336317 32.603422 37.583838 32.291858 37.837891 31.986328 C 38.047136 31.755141 38.227096 31.50102 38.416016 31.253906 C 38.675568 30.928039 38.99372 30.657224 39.306641 30.384766 C 39.637246 30.118195 39.893263 29.794255 40.285156 29.638672 C 40.467342 29.496133 40.770866 29.486912 40.957031 29.349609 C 40.988661 29.316139 41.018091 29.280399 41.050781 29.248047 L 41.052734 29.246094 C 41.106084 29.182344 41.158835 29.118062 41.214844 29.056641 C 41.301324 28.961801 41.38842 28.892112 41.472656 28.845703 L 41.474609 28.845703 C 41.625419 28.704655 41.77949 28.566621 41.939453 28.435547 C 41.957493 28.420767 41.976331 28.407641 41.994141 28.394531 C 42.068191 28.284529 42.138848 28.172289 42.212891 28.0625 C 42.507514 27.643996 42.892351 27.357373 43.359375 27.15625 C 43.644929 27.06879 43.892915 26.915402 44.142578 26.757812 C 44.537873 26.493008 44.948971 26.257565 45.369141 26.035156 C 45.741912 25.833307 46.130736 25.661669 46.501953 25.457031 C 46.884077 25.252742 47.254066 25.025412 47.632812 24.814453 C 48.045794 24.604353 48.468006 24.41338 48.894531 24.232422 C 49.296735 24.031025 49.728025 23.896901 50.140625 23.720703 C 50.620929 23.542211 51.091552 23.340551 51.560547 23.134766 C 51.997802 22.929509 52.437267 22.731776 52.875 22.527344 C 53.392731 22.290994 53.913963 22.064759 54.447266 21.865234 C 55.001077 21.619619 55.571994 21.424487 56.144531 21.228516 C 56.59815 21.068037 57.041796 20.88725 57.507812 20.763672 C 57.995078 20.677282 58.483253 20.600141 58.972656 20.525391 C 59.626682 20.439321 60.286615 20.406029 60.945312 20.380859 C 61.538554 20.360549 62.131106 20.352956 62.724609 20.347656 C 63.266101 20.343456 63.80813 20.342597 64.349609 20.341797 z M 42.267578 27.464844 C 42.425673 27.470344 42.480235 27.662751 42.273438 27.796875 C 41.615161 28.223308 40.968721 28.66717 40.318359 29.105469 C 39.918254 29.377239 39.514443 29.641952 39.109375 29.90625 C 38.838137 30.083223 38.658452 29.80978 38.929688 29.632812 C 39.333392 29.369418 39.737953 29.104852 40.136719 28.833984 C 40.788093 28.39501 41.434452 27.950532 42.09375 27.523438 C 42.14472 27.490418 42.19225 27.471817 42.234375 27.466797 C 42.245785 27.465397 42.257038 27.464544 42.267578 27.464844 z "/>
    <path style="display:inline;fill:#00a8f3;fill-opacity:1;stroke:none;stroke-width:0.185428" d="m 60.356793,98.099712 c -0.101986,-0.04373 -1.186739,-0.168173 -2.410563,-0.276536 -1.223825,-0.10836 -3.476774,-0.323167 -5.006555,-0.47735 -1.52978,-0.154182 -4.241664,-0.362082 -6.026408,-0.461998 -1.784743,-0.09992 -3.745644,-0.264962 -4.357556,-0.366767 -0.611912,-0.101806 -2.123486,-0.185584 -3.359053,-0.186175 -2.539061,-0.0012 -3.072995,-0.217075 -3.333499,-1.347687 -0.07608,-0.330208 -0.14675,-3.103657 -0.157036,-6.163218 -0.01201,-3.572273 -0.139833,-7.055763 -0.357212,-9.734967 -0.380308,-4.687303 -0.33275,-6.092012 0.323308,-9.549538 0.732828,-3.862118 0.927492,-7.060516 0.759451,-12.478036 -0.08132,-2.621719 -0.1342,-7.268052 -0.11751,-10.325184 0.02889,-5.291169 0.05708,-5.707466 0.586314,-8.658311 0.305783,-1.70494 0.557801,-3.334057 0.560041,-3.620262 0.0022,-0.286204 0.158505,-0.860392 0.347255,-1.275973 0.435485,-0.958832 2.210463,-2.787399 3.043624,-3.135516 0.350122,-0.14629 1.001988,-0.67207 1.448593,-1.1684 1.355601,-1.506535 6.043535,-3.90473 12.983961,-6.642174 2.469357,-0.973963 2.595615,-1.002575 5.292801,-1.199391 1.519706,-0.110894 5.221009,-0.166555 8.22512,-0.123692 l 5.462019,0.07793 2.063915,0.654184 c 2.334589,0.739977 3.603426,1.497098 5.492258,3.277256 1.914596,1.804437 3.627505,4.598329 4.279225,6.979759 0.848028,3.098752 1.425278,6.879016 1.528391,10.009043 0.05711,1.733751 0.276039,4.569215 0.486498,6.301031 0.307438,2.529819 0.362974,3.787298 0.282533,6.397263 -0.05507,1.78668 -0.184718,3.518227 -0.288112,3.84788 -0.103397,0.329656 -0.321113,1.414409 -0.483817,2.410563 -0.162704,0.996156 -0.470193,2.540736 -0.683311,3.432399 -0.352219,1.473643 -0.378106,1.988422 -0.284413,5.655552 0.118889,4.653305 0.342732,7.290751 0.753221,8.874878 0.225287,0.869418 0.300536,2.371775 0.33864,6.761033 0.04202,4.841082 -0.0063,6.073302 -0.339784,8.668841 -0.282544,2.198903 -0.474058,3.110884 -0.700907,3.337703 -0.285355,0.285316 -1.262165,0.312919 -11.384791,0.321721 -6.089959,0.0053 -11.90708,0.06678 -12.926934,0.136638 -1.019854,0.06986 -1.937722,0.09123 -2.039707,0.0475 z" id="path2763" inkscape:label="bodycolor"/>
    <path id="path2913" style="display:inline;fill:#000000;fill-opacity:1;stroke:none" inkscape:label="faceplateoutline" d="m 63.853516,30.601562 c -2.724835,-0.0024 -4.465469,0.04238 -6.382813,0.423829 -1.917344,0.38145 -4.011604,1.099498 -5.816406,1.699218 -1.804802,0.599721 -3.319823,1.082318 -4.685547,1.869141 -1.365724,0.786823 -2.581199,1.877666 -3.576172,3.712891 -0.994973,1.835224 -1.769995,4.412489 -2.175781,7.138671 -0.405786,2.726183 -0.442924,5.601278 -0.40625,8.173829 0.03667,2.57255 0.146353,4.842566 0.458984,6.679687 0.312631,1.837121 0.828039,3.241309 1.695313,4.5 0.867274,1.258692 2.085847,2.372716 3.271484,3.164063 1.185637,0.791347 2.338106,1.259502 3.626953,1.546875 1.288847,0.287373 2.715611,0.394994 4.251953,0.28125 1.536342,-0.113745 3.183598,-0.447875 4.978516,-0.72461 1.794918,-0.276735 3.736123,-0.496067 5.279297,-0.720703 1.543173,-0.224636 2.688079,-0.455443 4.011719,-0.820312 1.323639,-0.36487 2.825948,-0.864093 3.84375,-1.203125 1.017801,-0.339033 1.550741,-0.516775 2.455078,-1.460938 0.904337,-0.944163 2.182018,-2.655055 3.652344,-4.777344 1.470325,-2.122289 3.133703,-4.655582 4.046874,-6.802734 0.913172,-2.147152 1.074992,-3.908874 1.087891,-5.787109 0.0129,-1.878236 -0.124866,-3.873283 -0.445312,-5.769532 -0.320447,-1.896249 -0.824084,-3.692932 -1.314453,-5.035156 -0.49037,-1.342224 -0.966653,-2.229379 -1.845704,-3.109375 -0.87905,-0.879996 -2.161578,-1.752364 -3.207031,-2.230469 -1.045453,-0.478104 -1.854401,-0.562223 -4.113281,-0.628906 -2.25888,-0.06668 -5.966572,-0.116744 -8.691406,-0.119141 z m 7.189453,6.167969 c 0.188807,5e-4 0.377613,-4.47e-4 0.566406,0.002 0.15871,0.0025 0.316592,0.005 0.474609,0.02148 0.148456,0.0178 0.296563,0.04479 0.433594,0.107422 0.132956,0.05918 0.259887,0.130438 0.384766,0.205078 0.150433,0.09074 0.286619,0.199779 0.425781,0.30664 0.141042,0.114552 0.286123,0.224901 0.421875,0.345703 0.126994,0.113013 0.250294,0.229963 0.367188,0.353516 0.12254,0.13308 0.247448,0.264934 0.353515,0.41211 0.116966,0.146102 0.228612,0.295355 0.337891,0.447265 0.09844,0.138887 0.195738,0.279073 0.296875,0.416016 0.115598,0.165467 0.222952,0.335355 0.310547,0.517578 0.08409,0.174331 0.16212,0.352053 0.24414,0.527344 0.08978,0.206175 0.168163,0.416405 0.251953,0.625 0.08432,0.219662 0.167123,0.440067 0.226563,0.667968 0.03434,0.131346 0.05778,0.266524 0.08984,0.398438 0.03139,0.120823 0.07895,0.236331 0.109375,0.357422 0.03315,0.131091 0.06016,0.264171 0.08789,0.396484 0.02657,0.138889 0.04833,0.278615 0.07227,0.417969 0.02511,0.154704 0.05087,0.309278 0.07031,0.464844 0.01514,0.140261 0.03668,0.278649 0.05859,0.417968 0.02305,0.137522 0.04729,0.274262 0.06836,0.41211 0.0205,0.127231 0.03713,0.255938 0.07813,0.378906 0.02593,0.111264 0.05811,0.221609 0.09961,0.328125 0.05044,0.128132 0.09956,0.255638 0.128906,0.390625 0.02982,0.13852 0.06581,0.277572 0.07031,0.419922 5.6e-4,0.114238 -0.01395,0.227557 -0.03516,0.339844 -0.01971,0.102461 -0.04258,0.204278 -0.05078,0.308593 -0.0059,0.148915 4.06e-4,0.296401 0.0039,0.445313 -0.0091,0.144187 -0.02305,0.289359 -0.03125,0.433594 -8e-4,0.204801 -0.0024,0.408502 -0.0059,0.613281 -0.0038,0.156022 -0.0092,0.311672 -0.02734,0.466797 -0.02278,0.183785 -0.05583,0.367832 -0.111328,0.544922 -0.06297,0.217657 -0.14009,0.43102 -0.251953,0.628906 -0.105954,0.188645 -0.204154,0.381878 -0.310547,0.570312 -0.112369,0.205753 -0.218161,0.414509 -0.355469,0.605469 -0.145326,0.209143 -0.306804,0.407242 -0.445312,0.621094 -0.148009,0.223783 -0.308538,0.43798 -0.458984,0.660156 -0.172063,0.242625 -0.353362,0.480089 -0.525391,0.722656 -0.150383,0.244677 -0.284364,0.497962 -0.421875,0.75 -0.140084,0.268891 -0.269471,0.544056 -0.414063,0.810547 -0.106455,0.18131 -0.219389,0.358208 -0.335937,0.533203 -0.128245,0.181722 -0.252436,0.366634 -0.347656,0.56836 -0.148093,0.28367 -0.297798,0.570308 -0.53125,0.794922 -0.191063,0.198525 -0.38821,0.392628 -0.492188,0.654297 -0.10606,0.22504 -0.237349,0.435509 -0.375,0.642578 -0.143874,0.241112 -0.281739,0.486225 -0.439453,0.71875 -0.173386,0.248699 -0.35904,0.488603 -0.574219,0.703125 -0.192121,0.191373 -0.397045,0.367227 -0.61914,0.523437 -0.215126,0.163544 -0.430154,0.324457 -0.660157,0.466797 -0.204414,0.1396 -0.410371,0.277447 -0.623047,0.404297 -0.212645,0.128662 -0.42529,0.257242 -0.648437,0.367187 -0.198524,0.103842 -0.406511,0.189518 -0.625,0.242188 -0.282599,0.06948 -0.567021,0.127657 -0.849609,0.197265 -0.348699,0.0852 -0.700829,0.160524 -1.044922,0.263672 -0.39733,0.119217 -0.796653,0.232224 -1.19336,0.353516 -0.401039,0.121284 -0.800092,0.24724 -1.207031,0.347656 -0.429385,0.101923 -0.862632,0.19249 -1.294922,0.28125 -0.408903,0.08554 -0.819354,0.15645 -1.226562,0.25 -0.341987,0.07537 -0.685416,0.15237 -1.029297,0.21875 -0.384074,0.07403 -0.767375,0.155327 -1.158203,0.185547 -0.393331,0.03405 -0.786736,0.05469 -1.181641,0.05859 -0.368098,0.01284 -0.735219,0.03326 -1.103516,0.03906 -0.430567,0.0085 -0.862373,0.02054 -1.292968,0.02734 -0.359655,-0.0019 -0.718567,-0.0025 -1.078125,-0.01172 -0.283153,-0.0078 -0.566619,-0.02095 -0.84961,-0.0332 -0.229832,-0.0011 -0.459652,-0.0016 -0.689453,-0.0059 -0.24299,-0.005 -0.485991,-0.01278 -0.728515,-0.0293 -0.204069,-0.01516 -0.407029,-0.02759 -0.611329,-0.03906 -0.179156,-0.01681 -0.358116,-0.04147 -0.533203,-0.08398 -0.138709,-0.02955 -0.277541,-0.06039 -0.408203,-0.117187 -0.140222,-0.06041 -0.274717,-0.132001 -0.404297,-0.212891 -0.125284,-0.07866 -0.247567,-0.163807 -0.36914,-0.248047 -0.113728,-0.07664 -0.223756,-0.158397 -0.341797,-0.228515 -0.115393,-0.07497 -0.227407,-0.153697 -0.328125,-0.248047 -0.113801,-0.100314 -0.210396,-0.212852 -0.285156,-0.345703 -0.07884,-0.11962 -0.148562,-0.24413 -0.207032,-0.375 -0.04664,-0.112171 -0.09125,-0.227221 -0.136718,-0.339844 -0.05233,-0.123436 -0.115692,-0.240695 -0.169922,-0.363282 -0.03866,-0.09882 -0.07138,-0.200383 -0.105469,-0.300781 -0.07913,-0.04455 -0.140703,-0.149894 -0.140625,-0.318359 2.4e-5,-0.05164 -4.6e-5,-0.102657 0,-0.154297 1.34e-4,-0.14114 -5.74e-4,-0.282689 0,-0.423828 8e-4,-0.159404 0.0028,-0.319138 0.0059,-0.478516 0.0046,-0.205006 0.01005,-0.408636 0.02344,-0.613281 0.01693,-0.258734 0.0431,-0.516589 0.05859,-0.775391 0.01432,-0.233651 0.02042,-0.469392 0.0332,-0.703125 0.01633,-0.252776 0.03541,-0.504355 0.03711,-0.757812 0.0112,-0.329722 0.02587,-0.659026 0.04687,-0.988281 0.01152,-0.291122 0.02858,-0.582409 0.04883,-0.873047 0.0124,-0.293858 0.03222,-0.586882 0.04102,-0.88086 0.01099,-0.363275 0.02818,-0.726318 0.02148,-1.089843 -0.0042,-0.486942 -0.0085,-0.974181 -0.02344,-1.460938 -0.0097,-0.287637 -0.02022,-0.575445 -0.01172,-0.863281 0.0035,-0.177673 0.0091,-0.355891 0.02148,-0.533203 0.01604,-0.237712 0.03962,-0.474881 0.05078,-0.712891 0.01397,-0.236385 0.03416,-0.472128 0.03906,-0.708984 0.01054,-0.200152 0.03158,-0.399564 0.04297,-0.59961 0.01404,-0.236581 0.03594,-0.473085 0.05859,-0.708984 0.02266,-0.262399 0.02921,-0.523918 0.03711,-0.787109 0.0086,-0.187859 0.02478,-0.376279 0.02148,-0.564453 3e-4,-0.167461 0.002,-0.334502 0.0039,-0.501954 0.0023,-0.168538 0.0046,-0.337524 0.01367,-0.505859 0.01207,-0.200812 0.02819,-0.401848 0.05273,-0.601563 0.0203,-0.152886 0.03394,-0.306726 0.07031,-0.457031 0.02171,-0.137382 0.04219,-0.276143 0.08008,-0.410156 0.04165,-0.137407 0.08118,-0.276157 0.166016,-0.394531 0.08019,-0.118187 0.161306,-0.236769 0.253906,-0.345703 0.102631,-0.12939 0.209456,-0.25613 0.324219,-0.375 0.104305,-0.10691 0.213711,-0.208161 0.324219,-0.308594 0.119196,-0.110611 0.237624,-0.221967 0.355469,-0.333985 0.132318,-0.129608 0.262057,-0.26327 0.412109,-0.373046 0.165061,-0.116493 0.334497,-0.226979 0.511719,-0.324219 0.187753,-0.105853 0.381761,-0.200036 0.572265,-0.300781 0.221799,-0.113814 0.442614,-0.228654 0.65625,-0.357422 0.239814,-0.13081 0.473818,-0.270662 0.710938,-0.40625 0.233943,-0.138386 0.461494,-0.286949 0.705078,-0.408203 0.17879,-0.0888 0.363509,-0.167179 0.550781,-0.236329 0.236176,-0.08407 0.475722,-0.161548 0.716797,-0.230468 0.274178,-0.0739 0.545411,-0.154192 0.81836,-0.232422 0.2378,-0.07294 0.474165,-0.151301 0.705078,-0.244141 0.147017,-0.05454 0.292515,-0.109342 0.439453,-0.164062 0.193285,-0.07275 0.389566,-0.141479 0.58789,-0.199219 0.189204,-0.05903 0.378184,-0.119631 0.566407,-0.181641 0.229914,-0.07195 0.461292,-0.136159 0.695312,-0.193359 0.208327,-0.05395 0.414427,-0.113918 0.621094,-0.173828 0.226629,-0.05262 0.457485,-0.08672 0.689453,-0.105469 0.243312,-0.02404 0.486771,-0.0428 0.730469,-0.0625 0.307373,-0.015 0.614014,-0.03142 0.921875,-0.03125 0.393061,-0.0076 0.786724,-0.01769 1.179687,-0.0293 0.36207,-0.0077 0.723805,-0.0025 1.085938,-0.0039 0.42968,-6e-6 0.859382,2.8e-5 1.289062,0 0.431406,-3.4e-5 0.863518,2.05e-4 1.294922,0 0.332085,-1e-4 0.664011,-6.53e-4 0.996094,-0.002 0.285914,-0.0013 0.571555,-0.0041 0.857422,-0.0098 0.352215,-0.0072 0.704795,-0.01488 1.05664,-0.0332 0.311657,-0.0144 0.622496,-0.01885 0.933594,-0.04297 0.19017,-0.01901 0.379541,-0.05086 0.56836,-0.08008 0.192796,-0.03106 0.386241,-0.0603 0.582031,-0.0625 z" sodipodi:nodetypes="ssssssssssssssssssssssssssccccccscccccccccccccccccccccccccccccccccccccccccccccccccccccccccccccccccccccccccssccsccccccccccccccccccccccccccccccccccccccccccccccscccccccc"/>
    <path style="display:inline;fill:#ffffff;fill-opacity:1;stroke:none;stroke-width:0.0495732" d="m 51.878396,63.380815 c -1.079447,-0.0399 -1.467362,-0.08688 -1.89987,-0.230096 -0.287414,-0.09517 -1.331797,-0.775507 -1.595907,-1.039617 -0.170349,-0.170349 -0.634773,-1.052472 -0.741643,-1.408669 -0.02045,-0.06816 -0.0822,-0.198251 -0.137216,-0.289085 -0.09442,-0.155877 -0.09847,-0.22269 -0.07225,-1.189757 0.01528,-0.563534 0.05156,-1.42615 0.08062,-1.916925 0.155533,-2.626899 0.202507,-3.95257 0.202322,-5.709861 -1.8e-4,-1.712142 0.08118,-3.80205 0.175652,-4.511804 0.01522,-0.114329 0.04781,-0.850492 0.07243,-1.635917 0.04448,-1.419227 0.118117,-2.106622 0.272554,-2.544343 0.115885,-0.328453 0.54352,-0.852964 1.173113,-1.438867 0.692487,-0.644434 0.645349,-0.611977 1.850538,-1.274156 0.545305,-0.299613 1.244609,-0.691418 1.554008,-0.870679 0.564183,-0.326878 0.646392,-0.357766 2.510998,-0.94342 0.299918,-0.0942 0.868539,-0.286554 1.263603,-0.427452 0.799411,-0.285105 2.097187,-0.660756 2.553536,-0.739139 0.737115,-0.126608 1.872245,-0.164388 6.122295,-0.203765 3.858655,-0.03575 4.613674,-0.05443 5.056471,-0.125069 0.375456,-0.0599 0.727752,-0.07771 1.264117,-0.0639 0.716318,0.01844 0.754524,0.02477 1.041368,0.17262 0.573722,0.295716 1.275725,0.885132 1.755178,1.473682 1.222773,1.50101 1.795688,2.925522 2.184321,5.431154 0.09316,0.600625 0.219524,1.207682 0.309574,1.487197 0.170704,0.52986 0.175298,0.60938 0.09745,1.686848 -0.03053,0.422612 -0.05625,0.971166 -0.05714,1.219008 -0.0036,1.010001 -0.393848,1.861399 -1.667878,3.63917 -0.836621,1.167412 -0.925995,1.3077 -1.326439,2.082076 -0.190342,0.368081 -0.450092,0.825394 -0.577223,1.016251 -0.127132,0.190857 -0.34019,0.543701 -0.473464,0.784098 -0.133273,0.240397 -0.382395,0.592616 -0.553605,0.78271 -0.171209,0.190095 -0.378041,0.477861 -0.459627,0.639481 -0.211709,0.419393 -0.807371,1.355273 -1.080779,1.698077 -0.2951,0.370001 -0.844728,0.818113 -1.692532,1.379924 -1.004883,0.6659 -1.403171,0.842355 -2.446743,1.083988 -0.485395,0.112391 -1.377713,0.351297 -1.982929,0.530903 -1.485257,0.440771 -1.632655,0.477741 -3.256829,0.816854 -2.182736,0.455738 -2.612116,0.535494 -3.172688,0.589326 -0.685975,0.06587 -4.991004,0.09922 -6.345375,0.04916 z" id="path3031" inkscape:label="faceplatecolor"/>
    <path style="fill:#000000" id="path882" d="m 70.210597,48.747007 c -0.314967,0.821122 -0.03363,0.0498 -0.362593,1.113406 -0.08071,0.260929 -0.171972,0.518481 -0.255359,0.778565 -0.09265,0.288992 -0.169853,0.583124 -0.272751,0.86863 -0.09997,0.277382 -0.18386,0.565543 -0.335304,0.818524 -0.120777,0.201753 -0.313163,0.350851 -0.469745,0.526276 -0.187117,0.119917 -0.352713,0.283181 -0.561351,0.35975 -0.310869,0.114087 -0.987137,0.103162 -1.288987,-0.0251 -0.05322,-0.02262 0.163934,-0.08326 0.122131,-0.123212 -0.681321,-0.337084 -0.39609,-0.109099 -0.866317,-0.670448 -0.07832,-0.196891 -0.182329,-0.385414 -0.234944,-0.590671 -0.323082,-1.260375 0.01327,-2.750644 0.222619,-4.008704 0.02002,-0.129997 0.04004,-0.259993 0.06006,-0.389989 0.05999,-0.167116 -2.303381,-1.015462 -2.363369,-0.848347 v 0 c -0.123506,0.202609 -0.247013,0.405217 -0.370519,0.607826 -0.104562,0.280889 -0.231264,0.554505 -0.313688,0.842669 -0.445094,1.556095 -0.532301,3.302303 0.03966,4.839708 0.153233,0.411888 0.395541,0.784904 0.593311,1.177356 0.599413,0.669264 1.040265,1.347209 1.948564,1.645065 1.058185,0.347008 2.245043,0.480384 3.328676,0.151414 1.170789,-0.35543 1.37264,-0.70164 2.243684,-1.480466 0.240833,-0.377035 0.523093,-0.730614 0.7225,-1.131105 0.168007,-0.33743 0.268791,-0.70533 0.372331,-1.067774 0.297357,-1.040897 0.41564,-2.140304 0.239384,-3.211978 0.01282,-0.155422 -2.185163,-0.336786 -2.197988,-0.181365 z"/>
    <path style="fill:#000000;stroke-width:0.973632" id="path882-5" d="m 52.445631,48.232972 c 0.27412,0.830079 0.03039,0.05078 0.310591,1.123642 0.06875,0.263201 0.147594,0.523339 0.218901,0.785776 0.07924,0.291605 0.143671,0.587891 0.232714,0.876315 0.08651,0.280218 0.157462,0.570733 0.293467,0.828084 0.108463,0.205239 0.286335,0.359966 0.429504,0.539948 0.173742,0.125404 0.325812,0.293498 0.521231,0.376211 0.291172,0.123241 0.932264,0.132345 1.222069,0.01308 0.0511,-0.02104 -0.152864,-0.08807 -0.112072,-0.126773 0.655539,-0.316758 0.378529,-0.09732 0.840694,-0.644494 0.08004,-0.194483 0.184171,-0.379841 0.240102,-0.583448 0.343443,-1.250241 0.06887,-2.749799 -0.09223,-4.013491 -0.01512,-0.130531 -0.03023,-0.261061 -0.04535,-0.391592 -0.05189,-0.168816 2.212541,-0.9468 2.264432,-0.777984 v 0 c 0.111023,0.206175 0.222047,0.412349 0.333071,0.618523 0.09076,0.28386 0.202705,0.561104 0.27227,0.851579 0.375653,1.568574 0.406575,3.316578 -0.180883,4.836355 -0.157386,0.407166 -0.39802,0.772839 -0.597029,1.159258 -0.587767,0.651213 -1.025552,1.315799 -1.894992,1.586625 -1.012915,0.315518 -2.14142,0.413691 -3.158431,0.05278 -1.098807,-0.389938 -1.279812,-0.74197 -2.08207,-1.546237 -0.217028,-0.383997 -0.474001,-0.745775 -0.651082,-1.15199 -0.149196,-0.342252 -0.233796,-0.712971 -0.321169,-1.078318 -0.250926,-1.049234 -0.330446,-2.151648 -0.13171,-3.21762 -0.0075,-0.155732 2.080433,-0.27193 2.087982,-0.1162 z"/>
  </g>
</svg>