<?xml version="1.0" encoding="UTF-8" standalone="no"?>
<!-- Created with Inkscape (http://www.inkscape.org/) -->

<svg
   version="1.1"
   id="svg129"
   width="128"
   height="128"
   viewBox="0 0 128 128"
   sodipodi:docname="vukkyicon.svg"
   inkscape:export-filename="spookyvukky.svg"
   inkscape:export-xdpi="96"
   inkscape:export-ydpi="96"
   inkscape:version="1.3.2 (091e20ef0f, 2023-11-25, custom)"
   xmlns:inkscape="http://www.inkscape.org/namespaces/inkscape"
   xmlns:sodipodi="http://sodipodi.sourceforge.net/DTD/sodipodi-0.dtd"
   xmlns="http://www.w3.org/2000/svg"
   xmlns:svg="http://www.w3.org/2000/svg">
  <defs
     id="defs133" />
  <sodipodi:namedview
     id="namedview131"
     pagecolor="#505050"
     bordercolor="#eeeeee"
     borderopacity="1"
     inkscape:showpageshadow="0"
     inkscape:pageopacity="0"
     inkscape:pagecheckerboard="0"
     inkscape:deskcolor="#505050"
     showgrid="false"
     inkscape:zoom="3.2593793"
     inkscape:cx="40.038298"
     inkscape:cy="105.23476"
     inkscape:window-width="1920"
     inkscape:window-height="1014"
     inkscape:window-x="0"
     inkscape:window-y="0"
     inkscape:window-maximized="1"
     inkscape:current-layer="svg129" />
  <path
     id="path783"
     fill="currentColor"
     stroke="currentColor"
     inkscape:label="path"
     d="M 72.631836,0.56490528 C 69.217142,0.55241074 65.593123,0.7382782 62.184879,1.1534975 55.368335,1.983992 49.414278,3.7346724 44.108268,6.4662582 38.802283,9.1978149 34.145069,12.908777 31.42598,16.683954 28.706929,20.459133 27.925672,24.296472 27.541715,29.857834 27.157757,35.419196 27.170158,42.70544 26.990597,46.41557 26.811041,50.125702 26.438981,50.261927 23.32678,47.846268 20.214583,45.430608 14.362679,40.461586 10.891394,37.879883 7.4201055,35.298178 6.3305028,35.104281 5.3559824,35.329315 4.3814637,35.55438 3.5221163,36.1994 2.9398895,36.936372 c -0.5822266,0.736943 -0.8886802,1.564383 -0.8751723,2.588044 0.013509,1.023654 0.3473041,2.241466 4.2524127,5.713968 3.9050831,3.472506 11.3823771,9.201869 15.1204231,12.065039 3.738048,2.863196 3.738478,2.862235 3.829158,3.64398 0.09073,0.781746 0.270652,2.344184 0.548905,8.090384 0.278258,5.746204 0.653981,15.676452 0.846515,21.40756 0.192535,5.731106 0.202027,7.26463 0.76495,8.354925 0.562907,1.090458 1.678844,1.739218 3.555804,2.120698 1.87699,0.38149 4.516575,0.49601 6.494353,0.78696 1.977805,0.29097 3.292831,0.75667 4.09369,1.04056 0.800836,0.28379 1.086523,0.38535 1.419678,3.4081 0.333152,3.02296 0.715093,8.96848 0.936897,12.06287 0.221801,3.09466 0.284315,3.33834 0.601815,3.82474 0.317535,0.48626 0.88904,1.216 1.61808,1.64004 0.72904,0.42411 1.613931,0.54408 2.519701,0.50043 0.905773,-0.0444 1.833602,-0.25154 2.502068,-0.6811 0.66844,-0.42968 1.079517,-1.08246 1.258753,-4.51263 0.179226,-3.43037 0.125936,-9.63935 0.05946,-12.79467 -0.06634,-3.15534 -0.147529,-3.2553 3.185447,-3.159 3.332983,0.0958 10.081094,0.39006 13.544234,0.57759 3.463139,0.18749 3.643063,0.26689 3.703501,3.58445 0.0604,3.31749 0.0021,9.87291 0.06395,13.42734 0.06183,3.55424 0.242199,4.10892 0.747315,4.73078 0.50514,0.62199 1.334905,1.31223 2.213282,1.69311 0.878374,0.38073 1.805635,0.45296 2.565995,0.15867 0.760389,-0.29427 1.354851,-0.95509 1.818681,-1.46592 0.463865,-0.51097 0.79792,-0.87368 1.080194,-4.46191 0.282239,-3.58792 0.512147,-10.40411 0.58859,-13.89917 0.07646,-3.49505 -0.0013,-3.66913 2.651969,-3.70564 2.653188,-0.0372 8.037895,0.0656 11.134754,-0.2205 3.096828,-0.2858 3.905857,-0.95886 4.497098,-1.62027 0.59126,-0.66131 0.9643,-1.30964 1.07365,-5.67207 0.10928,-4.362344 -0.0464,-12.438678 -0.23373,-18.125114 -0.18792,-5.68643 -0.40874,-8.985189 -0.50699,-12.318549 -0.0981,-3.333357 -0.0725,-6.702811 0.009,-8.473961 0.0812,-1.771122 0.22002,-1.941992 4.09812,-4.550018 3.87813,-2.60802 11.49671,-7.651513 15.99555,-11.015707 4.49924,-3.364169 5.87896,-5.048999 6.00723,-6.646463 0.12824,-1.59749 -0.99661,-3.109752 -2.37206,-3.824747 -1.37565,-0.715017 -3.00212,-0.632764 -4.95565,0.224855 -1.95345,0.857592 -4.23368,2.490879 -6.79195,4.499313 -2.55818,2.00841 -5.39417,4.392223 -7.21962,5.857264 -1.8254,1.465014 -2.64017,2.011278 -3.08404,2.33012 -0.4438,0.318839 -0.51678,0.409437 -0.54009,-1.827502 -0.0237,-2.236936 0.002,-6.802494 -0.2182,-10.290442 -0.22036,-3.487951 -0.68624,-5.897751 -1.44399,-8.950131 C 99.341753,20.000306 98.292459,16.304507 96.925059,13.145783 95.557665,9.987089 93.871712,7.3644982 91.724686,5.3463895 89.577689,3.328282 86.968206,1.9142111 81.824433,1.162316 79.25255,0.7863535 76.046511,0.57740549 72.631816,0.56490528 Z"
     sodipodi:nodetypes="scccssssccsccssscssscssscsscssscsssssscssscscscsccsssscscsss"
     style="stroke-width:1.12863" />
</svg>
